<svg width="54" height="54" fill="none" xmlns="http://www.w3.org/2000/svg"><rect width="54" height="54" rx="12" fill="#DC2C2C"/><path d="M37.625 11H21.078a.938.938 0 00-.663.275l-4.703 4.702a.938.938 0 00-.274.663v25.422c0 .518.42.938.937.938h21.25c.518 0 .938-.42.938-.938V11.939a.938.938 0 00-.938-.938zm-17.5 15.688h5a.938.938 0 010 1.875h-5a.938.938 0 010-1.875zm13.75 11.25h-5a.938.938 0 010-1.876h5a.938.938 0 010 1.876zm0-4.688h-13.75a.938.938 0 010-1.875h13.75a.938.938 0 010 1.875z" fill="#fff"/></svg>