<svg width="72" height="72" fill="none" xmlns="http://www.w3.org/2000/svg"><circle cx="36" cy="36" r="34.5" stroke="#DC2C2C" stroke-width="3"/><circle cx="36" cy="36" r="34.5" stroke="#DC2C2C" stroke-width="3"/><g clip-path="url(#a)" fill="#fff"><path d="M42.092 43.418L47 48.328l-6.486 1.621-4.91-4.91 6.487-1.62zm8.388-5.023l-4.91-4.909L47.192 27l4.534 4.534c.233.233.326.57.246.89l-1.492 5.971zm-2.152 8.607l-4.91-4.91 1.622-6.485 4.909 4.91-1.621 6.485zM36.965 35.638l1.621-6.486 4.91 4.91-1.622 6.485-4.91-4.91zm7.058-3.698l-4.91-4.909 1.622-6.486 4.91 4.91-1.622 6.485zm-6.719-5.394l-6.546 1.636 1.636-6.546L38.94 20l-1.636 6.546zm-7.062 3.697l6.546-1.636-1.637 6.545-6.546 1.637 1.637-6.546zm-8.606 2.152l6.546-1.637-1.636 6.546L20 38.941l1.636-6.546zm2.698-8.743l6-1.5-1.636 6.545-6.546 1.637 1.5-6a.937.937 0 01.682-.682zm2.699 15.463l4.91 4.91-6.487 1.62-4.91-4.909 6.487-1.621zm7.029 4.379l-4.91-4.91 6.486-1.62 4.91 4.909-6.486 1.621zM27 47.191l6.486-1.621 4.91 4.91-5.972 1.492a.937.937 0 01-.89-.247L27 47.191z"/></g><defs><clipPath id="a"><path fill="#fff" transform="translate(20 20)" d="M0 0h32v32H0z"/></clipPath></defs></svg>