<svg width="72" height="72" fill="none" xmlns="http://www.w3.org/2000/svg"><circle cx="36" cy="36" r="34.5" stroke="#DC2C2C" stroke-width="3"/><circle cx="36" cy="36" r="34.5" stroke="#DC2C2C" stroke-width="3"/><path d="M45 28h4.41L44 22.59V27a1 1 0 001 1z" fill="#fff"/><path d="M45 30a3 3 0 01-3-3v-5H31a3 3 0 00-3 3v3a8 8 0 016 13.27V49c.001.342-.06.68-.18 1H47a3 3 0 003-3V30h-5zm-10-1a1 1 0 011-1h3a1 1 0 010 2h-3a1 1 0 01-1-1zm10 16h-8a1 1 0 010-2h8a1 1 0 010 2zm0-5h-6a1 1 0 010-2h6a1 1 0 010 2zm0-5h-6a1 1 0 010-2h6a1 1 0 010 2z" fill="#fff"/><path d="M24 42.92V49a1 1 0 00.62.92 1 1 0 001.09-.21l2.29-2.3 2.29 2.3A1 1 0 0031 50a.84.84 0 00.38-.08A1 1 0 0032 49v-6.08a7.95 7.95 0 01-8 0zm4-.92a6 6 0 100-12 6 6 0 000 12z" fill="#fff"/></svg>