<svg width="72" height="72" fill="none" xmlns="http://www.w3.org/2000/svg"><circle cx="36" cy="36" r="34.5" stroke="#DC2C2C" stroke-width="3"/><circle cx="36" cy="36" r="34.5" stroke="#DC2C2C" stroke-width="3"/><g clip-path="url(#a)"><path d="M49.867 32.067c-24.317 0-23.675-.053-24.15.112a2.122 2.122 0 00-.756.446c.015.087-.052.163-.134.136h-.002c-.345.378-.558.88-.558 1.439 0 13.12.012 12.525-.03 12.707-.05.346-.31.78-.682 1.023a1.922 1.922 0 01-.144.086.514.514 0 01-.744-.462v-.047a.52.52 0 01.268-.446.534.534 0 00.265-.461V34.2a3.2 3.2 0 013.2-3.2h20.8a.533.533 0 00.533-.533V28.6a2.133 2.133 0 00-2.133-2.133h-9.443c-.344 0-.668-.167-.868-.447l-1.71-2.393a2.137 2.137 0 00-1.736-.894h-9.71A2.133 2.133 0 0020 24.867V46.6a2.667 2.667 0 002.667 2.667h26.666A2.667 2.667 0 0052 46.6V34.2a2.133 2.133 0 00-2.133-2.133zm-21.467 3.8h.235a.534.534 0 010 1.066H28.4a.533.533 0 110-1.066zm3.6 4.266h-3.6a.533.533 0 110-1.066H32a.533.533 0 110 1.066zm1.8-3.2h-2.499a.533.533 0 110-1.066H33.8a.533.533 0 110 1.066z" fill="#fff"/></g><defs><clipPath id="a"><path fill="#fff" transform="translate(20 20)" d="M0 0h32v32H0z"/></clipPath></defs></svg>