<svg width="180" height="40" fill="none" xmlns="http://www.w3.org/2000/svg"><g clip-path="url(#a)"><path d="M21.184 9.389l-10.092 6.39 10.092 6.388-10.092 6.39L1 22.132l10.092-6.39L1 9.39 11.092 3l10.092 6.389zM11.04 30.611l10.092-6.39 10.092 6.39L21.132 37 11.04 30.611zm10.144-8.478l10.092-6.39L21.184 9.39 31.224 3l10.092 6.389-10.092 6.39 10.092 6.388-10.092 6.39-10.04-6.424z" fill="#0061FF"/><path d="M49.234 9.389h8.161c5.203 0 9.5 2.987 9.5 9.808v1.433c0 6.873-4.019 9.964-9.343 9.964h-8.318V9.389zm4.56 3.85v13.487h3.497c2.958 0 4.941-1.917 4.941-6.182v-1.122c0-4.266-2.088-6.182-5.098-6.182h-3.34zm15.52.208h3.654l.592 3.989c.696-2.711 2.47-4.162 5.69-4.162h1.13v4.576h-1.879c-3.706 0-4.61 1.278-4.61 4.904v7.891h-4.507V13.447h-.07zm11.971 8.945v-.484c0-5.75 3.706-8.893 8.752-8.893 5.15 0 8.753 3.143 8.753 8.893v.483c0 5.647-3.498 8.686-8.753 8.686-5.585-.052-8.752-3.022-8.752-8.686zm12.894-.052v-.432c0-3.195-1.619-5.111-4.194-5.111-2.523 0-4.193 1.761-4.193 5.111v.432c0 3.09 1.618 4.852 4.193 4.852 2.575-.052 4.194-1.761 4.194-4.852zm6.977-8.893h3.758l.435 3.246c.905-2.176 2.837-3.678 5.69-3.678 4.402 0 7.308 3.143 7.308 8.962v.484c0 5.646-3.219 8.633-7.308 8.633-2.732 0-4.611-1.226-5.533-3.194v8.686h-4.402l.052-23.14zm12.615 8.893v-.38c0-3.42-1.775-5.111-4.141-5.111-2.523 0-4.194 1.916-4.194 5.11v.329c0 3.039 1.619 4.956 4.142 4.956 2.592-.052 4.193-1.692 4.193-4.904zm11.24 5.128l-.382 3.143h-3.863V7.697h4.402v8.789c.974-2.245 2.906-3.47 5.638-3.47 4.141.051 7.203 2.883 7.203 8.581v.535c0 5.699-2.906 8.962-7.308 8.962-2.906-.069-4.785-1.398-5.69-3.626zm8.37-5.335V21.7c0-3.143-1.723-4.904-4.141-4.904-2.471 0-4.194 1.968-4.194 4.956v.38c0 3.194 1.671 5.059 4.141 5.059 2.645 0 4.194-1.64 4.194-5.06zm6.56.259v-.484c0-5.75 3.706-8.893 8.752-8.893 5.15 0 8.752 3.143 8.752 8.893v.483c0 5.647-3.55 8.686-8.752 8.686-5.586-.052-8.752-3.022-8.752-8.686zm12.928-.052v-.432c0-3.195-1.618-5.111-4.194-5.111-2.523 0-4.193 1.761-4.193 5.111v.432c0 3.09 1.618 4.852 4.193 4.852 2.593-.052 4.194-1.761 4.194-4.852zm10.475-.64l-6.073-8.253h5.203l3.497 5.163 3.55-5.163h5.15l-6.16 8.202 6.491 8.962h-5.099l-3.967-5.698-3.863 5.698h-5.324l6.595-8.91z" fill="#fff"/></g><defs><clipPath id="a"><path fill="#fff" transform="translate(1 3)" d="M0 0h174v34H0z"/></clipPath></defs></svg>