<svg width="24" height="24" fill="none" xmlns="http://www.w3.org/2000/svg"><path d="M9.942 10.687a36.496 36.496 0 01-.008-2.265c.594.324 1.3.725 1.958 1.14.48.302.917.602 1.26.876.37.295.536.487.58.562.043.075.126.315.197.783.065.434.106.962.128 1.53.03.776.025 1.588.008 2.265a36.41 36.41 0 01-1.957-1.14c-.48-.303-.918-.603-1.261-.876-.37-.295-.536-.487-.58-.562-.043-.075-.126-.315-.196-.783a14.47 14.47 0 01-.129-1.53z" stroke="#fff" stroke-width="2"/><circle cx="12" cy="12" r="9" stroke="#fff" stroke-width="2"/></svg>