<svg width="122" height="123" fill="none" xmlns="http://www.w3.org/2000/svg"><path d="M27.303 65.193h-.995c-.09 0-.271.09-.362.09-.452.09-.995.362-1.538.543-.542.18-.995.452-1.447.724-.452.271-.904.452-1.176.633-.271.18-.452.271-.452.271l.09.09c.091 0 .182.091.362.091.362.09.814.181 1.267.271.09 0 .271.09.361.09.181 0 .272 0 .453.091.271 0 .543.09.904.09.543 0 1.176-.09 1.628-.18.995-.272 1.628-.905 2.08-1.357.453-.543.634-.904.634-.904s-.362-.181-.905-.362c-.18-.181-.452-.181-.904-.181z" fill="url(#a)"/><path d="M28.839 61.213c-.272-.362-.543-.724-.814-.995-.181-.181-.362-.272-.452-.452-.091-.09-.181-.09-.272-.181-.09-.09-.18-.09-.271-.181-.272-.272-.543-.453-.814-.543-.181-.18-.362-.18-.362-.18v.451c0 .272 0 .724.09 1.176.09.453.181.995.272 1.447.18.453.361.995.633 1.357.09.09.09.181.18.272l.091.09.09.09c.182.181.272.272.453.362.18.09.271.181.452.272.181.09.272.09.452.18.543.181.905.091.905.091s.09-.452 0-1.085c0-.362-.09-.724-.181-1.086 0-.09-.09-.18-.09-.271 0-.09-.09-.181-.09-.272 0-.18-.091-.361-.272-.542z" fill="url(#b)"/><path d="M21.151 62.298s-.09-.09-.18-.09a2.822 2.822 0 00-.543-.362.69.69 0 00-.453-.181c-.18-.09-.361-.09-.542-.18-.362-.091-.814-.182-1.267-.182-.271 0-.542 0-.814.09-.271 0-.542.091-.814.091-.271 0-.543.09-.814.181-.271.09-.543.09-.814.18-.543.091-.995.182-1.266.272-.362.09-.543.09-.543.09s.181.091.452.272c.181.09.272.181.543.271.09.09.18.09.271.181.09.09.181.09.362.181.272.09.453.181.724.362.09.09.271.09.362.181.09 0 .09.09.18.09.091 0 .181 0 .181.09a5.098 5.098 0 001.629.272c1.085 0 1.899-.452 2.442-.814.271-.18.452-.362.633-.543.271-.27.362-.452.271-.452 0 0 .09 0 0 0z" fill="url(#c)"/><path d="M19.705 59.223c.09.452.361.814.542 1.085.09.181.272.271.362.362.09.09.271.18.362.271.271.181.452.272.633.272.09 0 .181 0 .181.09h.09s.09-.09.09-.271c.091-.181.091-.453.182-.724.09-.633.18-1.447-.09-2.261a2.802 2.802 0 00-.543-1.176 4.016 4.016 0 00-.724-.995c-.09-.181-.271-.271-.362-.452-.09-.09-.18-.272-.271-.362l-.271-.271s-.091.18-.091.452c-.09.271-.18.723-.18 1.176 0 .271-.091.452-.091.723v.724c0 .271 0 .543.09.724 0 .18 0 .452.09.633z" fill="url(#d)"/><path d="M14.007 56.6c-.091-.181-.272-.362-.453-.543-.18-.18-.452-.452-.814-.633-.362-.18-.723-.362-1.176-.543-.18 0-.361-.09-.542-.09-.181 0-.362-.09-.543-.09-.905-.181-1.9-.181-2.714-.272-.814 0-1.356-.09-1.356-.09s.18.271.542.633c.272.362.814.814 1.357 1.266.09.09.181.09.271.181l.09.09s.091.09.182.09c.18.091.362.272.542.363l.543.271c.181.09.362.181.543.181.995.271 1.9.09 2.533-.09.633-.272.995-.543.995-.543s.09-.09 0-.181z" fill="url(#e)"/><path d="M14.277 55.424l.452.452c.18.09.271.09.271.09s.272-.361.633-.904c.272-.542.634-1.357.634-2.261 0-.271 0-.633-.09-.995 0-.181-.091-.271-.091-.452s-.09-.272-.09-.453c-.091-.27-.182-.452-.272-.723 0-.09-.09-.09-.09-.181 0-.09 0-.09-.091-.181 0-.09-.09-.18-.09-.271l-.272-.543s-.271.452-.633 1.085l-.271.543c0 .09-.09.181-.09.271 0 .09-.091.181-.091.272-.181.362-.272.814-.362 1.266 0 .181-.09.362-.09.452v.453c0 .452.09.814.18 1.175.09.362.272.634.453.905z" fill="url(#f)"/><path d="M7.223 49.816h.543c.723 0 1.085-.18 1.085-.18s0-.091-.09-.272c0-.09-.09-.18-.09-.271 0-.09-.091-.181-.182-.362-.09-.272-.271-.543-.543-.814l-.18-.181c-.09-.09-.181-.181-.272-.181-.18-.18-.362-.271-.542-.362-.181-.09-.453-.271-.724-.362-.271-.09-.452-.271-.724-.361-.542-.181-1.085-.453-1.537-.543-.453-.181-.905-.362-1.267-.452l-.542-.181s.09.18.18.452l.272.543c.09.18.271.361.362.633.09.18.271.452.452.633 0 .09.09.09.09.18 0 .091.09.091.09.182.091.09.182.18.272.362.181.18.362.452.633.633l.272.271c.09.09.18.181.362.181.452.271.904.452 1.356.452.362-.09.543 0 .724 0z" fill="url(#g)"/><path d="M9.21 47.374c0 .362.181.633.271.904.09.09.09.272.181.362.09.09.09.181.181.271l.181.181s.362-.271.814-.723c.09-.09.181-.272.362-.362.09-.181.271-.271.362-.452.18-.362.452-.724.543-1.086 0-.09.09-.18.09-.271 0-.09.09-.181.09-.362 0-.18.09-.452.09-.633v-1.266c0-.181 0-.362-.09-.543v-.452c0-.272-.09-.362-.09-.362s-.18.09-.362.362l-.814.814c-.271.361-.633.723-.904 1.176-.181.18-.272.452-.362.633-.09.18-.181.452-.272.633-.09.18-.09.452-.09.633v.452c-.18 0-.18.09-.18.09z" fill="url(#h)"/><path d="M3.242 40.861c.18.091.362.272.542.362.362.181.724.272 1.086.362a9.32 9.32 0 001.176.09s.09-.361-.09-.904c0-.18-.091-.271-.091-.452-.09-.181-.09-.362-.181-.452l-.271-.543c-.09-.09-.09-.181-.181-.271l-.09-.09-.091-.091c-.633-.724-1.719-1.448-2.533-1.99-.452-.272-.814-.543-1.085-.724a4.708 4.708 0 00-.453-.271s0 .18.09.542c.091.362.182.724.272 1.267.181.452.362.995.543 1.537.09.09.09.272.18.362.091.09.182.272.182.362.18.271.362.452.452.633.18-.09.362.09.543.271z" fill="url(#i)"/><path d="M7.312 41.404s.452-.18.995-.452c.271-.18.633-.362.905-.633.18-.09.271-.272.452-.452.18-.181.271-.362.362-.543.09-.181.18-.362.361-.543.09-.18.181-.362.272-.633.18-.452.271-.814.362-1.176.09-.362.18-.724.18-.904v-.362s-.18.09-.452.18c-.271.182-.633.362-.995.634-.361.271-.814.543-1.176.904-.361.362-.723.724-.995 1.086l-.27.543c-.091.18-.091.361-.182.542 0 .181-.09.362-.09.543v.452c.09.452.271.814.271.814z" fill="url(#j)"/><path d="M2.246 28.922c0 .18.09.452.09.633.091.452.182.814.363 1.176.271.452.542.814.814 1.085.271.272.633.453.904.633a6.104 6.104 0 001.086.362s0-.09.09-.271c0-.181.09-.362.09-.633 0-.272 0-.634-.09-.995-.09-.362-.18-.724-.362-1.176-.09-.181-.18-.271-.271-.452-.09-.09-.09-.181-.18-.181-.091-.09-.091-.181-.182-.181l-.814-1.086c-.271-.361-.543-.723-.814-.995-.452-.633-.814-.995-.814-.995s-.09.272-.09.814c0 .272-.09.543-.09.815v.994c.18.091.18.272.27.453z" fill="url(#k)"/><path d="M10.027 31.636l.18-.181.181-.181c.09-.09.181-.272.362-.362.09-.09.181-.271.271-.362.09-.18.181-.271.272-.362.18-.18.271-.452.362-.633.09-.09.09-.18.18-.271 0-.09.091-.181.181-.272l.272-.542s-.543.09-1.267.271c-.18.09-.361.09-.542.181-.181.09-.362.09-.633.18-.362.182-.814.363-1.176.544l-.814.542c-.362.272-.633.634-.724.905-.18.362-.271.633-.271.904v.633c0 .181.09.272.09.272s.452 0 1.086-.181c.542-.181 1.356-.452 1.99-1.085z" fill="url(#l)"/><path d="M6.047 22.68c.18.362.452.634.724.905.452.452.904.633.904.633l.181-.18c.09-.181.18-.362.271-.634.09-.271.181-.543.272-.904v-.634c0-.18 0-.452-.09-.633 0-.271-.091-.452-.182-.723 0-.09-.09-.272-.09-.362 0-.09-.09-.271-.09-.362a10.978 10.978 0 00-.634-1.538 4.408 4.408 0 00-.271-.633l-.271-.542c-.09-.272-.181-.453-.181-.453s-.09.181-.272.453c-.09.18-.18.361-.18.542-.091.181-.181.453-.272.634 0 .09-.09.27-.09.361 0 .09-.09.272-.09.362-.091.271-.091.543-.182.814 0 .271-.09.543-.09.814 0 .272 0 .543.09.814.181.543.362.905.543 1.267z" fill="url(#m)"/><path d="M12.92 24.037c.18-.09.362-.27.543-.361.18-.181.361-.272.452-.453l.452-.452.362-.362.18-.18c.091-.091.091-.091.091-.181l.272-.272h-1.629c-.452 0-.994.09-1.537.181-.09 0-.271.09-.362.09-.09 0-.271.09-.362.09-.271.091-.452.182-.723.272-.181.09-.362.181-.543.362-.18.09-.271.271-.452.362-.272.271-.453.543-.543.814-.09.271-.18.452-.18.633v.272s.451.09 1.084.09c.362 0 .724 0 1.086-.09.362-.091.814-.181 1.266-.362.181-.181.362-.362.543-.453z" fill="url(#n)"/><path d="M10.838 14.992c.09.362.271.724.452.995.362.543.724.905.724.905s.362-.181.723-.633c.09-.09.181-.272.272-.362.09-.181.18-.272.271-.453.181-.361.271-.723.271-1.266.09-.452 0-.995 0-1.538 0-.542-.09-1.085-.18-1.628-.09-.542-.09-.904-.181-1.266-.09-.271-.09-.543-.09-.543l-.091.09-.272.272c-.18.272-.452.633-.814.995-.271.452-.542.905-.814 1.447-.18.543-.362 1.086-.452 1.538v.724c0 .361.09.542.18.723z" fill="url(#o)"/><path d="M17.08 18.067c.09 0 .181-.09.362-.09.09 0 .09 0 .181-.09.09 0 .09 0 .181-.091.452-.18.814-.362 1.176-.543.362-.18.633-.362.814-.452.09-.09.18-.09.271-.18.09 0 .09-.091.09-.091l-.09-.09c-.09 0-.18-.091-.361-.091-.272-.09-.724-.181-1.176-.362-.272-.09-.453-.09-.724-.181-.09 0-.271 0-.362-.09h-1.899c-.452.09-.814.27-1.176.452-.181.09-.272.18-.452.271-.09.09-.181.181-.272.362-.362.452-.452.814-.452.814s.452.271 1.085.362c.362.09.724.18 1.086.18h1.266s.181 0 .452-.09z" fill="url(#p)"/><path d="M18.258 10.38c.09.18.18.27.18.27h.091s.09 0 .181-.09c.18-.09.362-.18.633-.362A4.292 4.292 0 0020.7 8.39c.09-.271.271-.633.362-.995l.271-1.356c.09-.453.18-.905.271-1.267.09-.723.181-1.266.181-1.266s-.271.18-.633.452c-.18.181-.452.271-.633.452-.271.181-.452.453-.724.634l-.452.452-.09.09-.09.09c-.091.091-.091.182-.182.272-.271.362-.452.724-.633 1.085-.09.272-.18.453-.18.724 0 .181-.091.452-.091.633 0 .453.09.814.09 1.086-.09.542 0 .723.09.904z" fill="url(#q)"/><path d="M24.227 13.002c.271-.09.542-.09.723-.18.272-.091.453-.091.633-.182.362-.09.543-.18.543-.18s-.362-.272-.995-.724a6.024 6.024 0 00-1.085-.543 5.232 5.232 0 00-1.267-.452c-.361-.09-.633-.181-.904-.181-.905-.09-1.628.18-2.08.543-.272.18-.362.271-.543.452-.09.09-.09.09-.09.18v.091s.09.09.27.181c.182.09.363.272.634.453.271.18.633.361.995.452.18.09.362.18.633.18.18.091.452.091.633.091.633 0 1.266-.09 1.9-.18z" fill="url(#r)"/><path d="M33.905 65.826c-.181 0-.362-.09-.633-.09-.09 0-.272 0-.362-.091-.181 0-.272-.09-.453-.09-.27-.091-.633-.091-.995-.181l-1.085-.272c-.18 0-.362-.09-.543-.09-.18-.09-.361-.09-.542-.181-.362-.09-.814-.181-1.176-.362-1.628-.452-3.076-1.085-4.251-1.628-.272-.181-.543-.271-.724-.362-.09-.09-.18-.09-.271-.18-.09-.091-.181-.091-.272-.182-.271-.18-.452-.271-.452-.271s-.18-.09-.452-.271c-.272-.181-.724-.453-1.267-.815-.994-.633-2.351-1.628-3.618-2.713-1.266-1.085-2.351-2.261-3.165-3.166a1.25 1.25 0 01-.272-.362l-.271-.271c-.181-.18-.272-.362-.362-.452-.09-.09-.18-.272-.271-.362l-.09-.09s-.091-.181-.363-.453c-.09-.18-.27-.271-.361-.542-.181-.181-.272-.453-.453-.724-.09-.09-.18-.271-.271-.362-.09-.18-.18-.271-.271-.452-.181-.272-.362-.633-.543-.905-.18-.361-.362-.633-.543-.995-.09-.09-.09-.18-.18-.271 0-.09-.091-.18-.091-.271l-.271-.543c-.634-1.447-1.267-2.985-1.538-4.16 0-.182-.09-.272-.09-.453 0-.09-.091-.271-.091-.362-.09-.271-.09-.452-.181-.633-.09-.362-.09-.543-.09-.543v-.18c0-.091 0-.272-.09-.362 0-.181-.091-.362-.091-.634 0-.27-.09-.542-.181-.814 0-.271-.09-.633-.09-.995v-1.085c-.091-.724-.091-1.538-.091-2.352 0-.814 0-1.628.09-2.352v-1.084c0-.363.09-.634.09-.996 0-.271.091-.543.182-.814 0-.271.09-.452.09-.633s.09-.271.09-.362v-.18s.091-.182.091-.544c0-.18.09-.361.181-.633 0-.09.09-.271.09-.361 0-.09.09-.272.09-.453.363-1.176.905-2.623 1.539-4.16l.27-.543c0-.09.091-.181.091-.272.09-.09.09-.18.181-.27.181-.363.362-.724.543-.996.18-.362.362-.633.543-.904.09-.181.18-.272.271-.453.09-.18.18-.271.271-.361.181-.272.362-.453.453-.724.18-.181.271-.362.361-.543.181-.271.362-.452.362-.452l.09-.09c.091-.09.091-.181.272-.362.09-.181.271-.272.362-.453l.271-.27c.09-.091.181-.182.272-.363.814-.904 1.899-2.08 3.165-3.165a37.597 37.597 0 013.618-2.714c.543-.362.995-.633 1.267-.814.361-.181.452-.271.452-.271s.18-.09.452-.272c.09 0 .181-.09.272-.18.09-.091.18-.091.271-.182.09 0 .18-.09.271-.09h.814c.634 0 1.538-.181 2.262-.543.361-.18.723-.452 1.085-.814.181-.18.362-.271.452-.452l.453-.452c.27-.272.452-.543.633-.724l.271-.271h-1.99c-.09 0-.271 0-.362.09-.271 0-.542.09-.814.181-.542.09-.995.271-1.447.543-.362.18-.723.452-.995.723-.271.272-.362.543-.452.814-.09.272-.181.453-.181.634v.09h-.09c-.09.09-.181.09-.362.18-.09.091-.181.091-.272.182-.271.18-.452.271-.452.271l-.543.272c-.271.18-.723.452-1.266.814-.995.723-2.352 1.628-3.618 2.713-1.266 1.085-2.352 2.261-3.166 3.166-.09.09-.18.271-.271.362l-.272.271c-.18.181-.27.362-.452.543a1.25 1.25 0 01-.271.362l-.09.09s-.091.181-.362.452c-.09.181-.272.362-.362.543-.181.18-.271.452-.452.724-.09.09-.181.271-.272.361-.09.181-.18.272-.271.453-.181.271-.362.633-.543.904-.18.362-.362.724-.543.995-.09.09-.09.181-.18.271 0 .091-.09.181-.09.272l-.272.543c-.724 1.447-1.267 2.985-1.538 4.16 0 .181-.09.272-.09.453 0 .09-.09.271-.09.361-.091.272-.091.453-.182.634-.09.361-.09.542-.09.542v.181c0 .09 0 .271-.09.362 0 .18-.091.362-.091.633s-.09.543-.181.814c0 .272-.09.633-.09.995v1.086c-.09.723-.09 1.537-.09 2.351 0 .814 0 1.628.09 2.352v1.086c0 .361.09.633.09.995 0 .27.09.542.18.813 0 .272.091.453.091.634 0 .18.09.271.09.361v.181s.091.181.091.543c0 .181.09.362.181.633 0 .09.09.272.09.362 0 .09.091.271.091.452a40.76 40.76 0 001.538 4.161l.271.543c0 .09.09.18.09.271.091.09.091.181.181.271.181.362.362.724.543.995.181.362.362.634.543.905.09.18.18.271.271.452.09.181.181.272.272.362.18.271.361.452.452.724.18.18.271.361.362.542.18.272.361.453.361.453l.09.09c.091.09.182.181.272.362.09.18.272.271.452.543l.272.27c.09.091.18.182.271.363.814.904 1.99 2.08 3.166 3.166 1.266 1.085 2.623 2.08 3.618 2.713.543.362.995.633 1.266.814l.543.271s.181.09.452.272c.09 0 .181.09.272.18.09.091.18.091.361.182.272.09.453.271.724.361a24.707 24.707 0 004.251 1.629c.362.18.814.27 1.176.361.181.09.362.09.633.181.181.09.362.09.543.09l1.085.272c.362.09.724.09.995.181.181 0 .272.09.453.09.18 0 .271 0 .362.09.27 0 .452.091.633.091.361 0 .542.09.542.09v-.27c.09.361-.18.361-.542.27z" fill="url(#s)"/><path d="M30.377 65.554s4.342 1.086 5.337 5.156l-.09-4.703-4.975-.633-.272.18z" fill="url(#t)"/><path opacity=".8" d="M21.003 99.182v-9.93h4.398c.983 0 1.795.316 2.437.949.646.627.97 1.398.97 2.312 0 .397-.063.769-.188 1.115a2.9 2.9 0 01-.443.838 3.92 3.92 0 01-.512.547 1.938 1.938 0 01-.45.312l-.18.097 2.126 3.76h-2.272l-1.91-3.476h-1.843v3.476h-2.133zm5.679-6.669c0-.387-.13-.708-.388-.962-.254-.254-.575-.381-.963-.381h-2.195v2.624h2.195c.388 0 .709-.122.963-.367a1.22 1.22 0 00.388-.914zm6.523 4.758h5.318v1.91h-7.451v-9.93h7.305v1.919h-5.172v1.987h4.037v1.912h-4.037v2.202zm9.992 1.91l-3.684-9.93h2.271l2.549 7.376 2.555-7.375h2.271l-3.69 9.93h-2.272zm7.513 0v-9.93h2.133v9.93H50.71zm6.814-1.91h5.318v1.91h-7.45v-9.93h7.305v1.919h-5.173v1.987h4.037v1.912h-4.037v2.202zm12.693-8.02h1.98l2.057 6.808 2.057-6.807h2.271l-3.261 9.93h-1.988l-2.126-6.669-2.125 6.669h-1.988l-3.261-9.93h2.271l2.057 6.807 2.056-6.807zm17.333 9.93h-4.501v-9.93h4.258c.9 0 1.644.264 2.23.79.591.527.886 1.138.886 1.835 0 .263-.036.515-.11.755a1.994 1.994 0 01-.284.589 3.61 3.61 0 01-.346.408c-.111.111-.204.19-.277.236l-.118.069a2.647 2.647 0 01.568.34c.189.133.355.28.498.442.143.162.273.384.388.665.12.277.18.575.18.894 0 .793-.316 1.477-.949 2.05-.632.572-1.44.858-2.423.858zm-2.368-1.772h2.264c.388 0 .709-.122.962-.367.259-.245.388-.547.388-.907s-.129-.662-.388-.907c-.254-.25-.574-.374-.962-.374h-2.264v2.555zm1.98-6.384h-1.98v2.132h1.98c.35 0 .628-.097.831-.29.203-.194.305-.453.305-.776s-.102-.582-.305-.776c-.203-.194-.48-.29-.831-.29zm6.315-1.773l2.34 4.259 2.341-4.26h2.272l-3.546 6.385v3.546h-2.133v-3.546l-3.545-6.384h2.271zm-53.742 18.792c.521 0 1.018.069 1.489.208.47.134.856.298 1.156.492.305.193.572.387.803.581.236.194.404.358.506.492l.159.208-1.35 1.35a7.033 7.033 0 00-.118-.152 2.542 2.542 0 00-.326-.347 3.059 3.059 0 00-.547-.422 3.37 3.37 0 00-.782-.339 3.13 3.13 0 00-.99-.16c-.928 0-1.704.312-2.327.935s-.935 1.399-.935 2.327c0 .928.312 1.703.935 2.327.623.623 1.399.934 2.327.934.36 0 .704-.048 1.032-.145a3.57 3.57 0 00.823-.353 5.63 5.63 0 00.575-.416 2.14 2.14 0 00.36-.36l.111-.145 1.281 1.35a2.573 2.573 0 01-.173.222 5.953 5.953 0 01-.505.478 5.414 5.414 0 01-.838.602c-.296.171-.686.328-1.17.471-.48.143-.98.215-1.496.215-1.514 0-2.793-.506-3.837-1.517-1.038-1.016-1.558-2.237-1.558-3.663 0-1.427.52-2.645 1.558-3.656 1.044-1.011 2.322-1.517 3.837-1.517zm8.012 8.227h5.318v1.911h-7.451v-9.93h7.305v1.918h-5.172v1.987h4.037v1.912h-4.037v2.202zm7.298 1.911v-9.93h4.397c.984 0 1.796.316 2.438.949.646.627.97 1.398.97 2.312 0 .397-.063.769-.188 1.115a2.886 2.886 0 01-.443.838 3.871 3.871 0 01-.512.547 1.944 1.944 0 01-.45.312l-.18.097 2.126 3.76H60.93l-1.911-3.476h-1.842v3.476h-2.133zm5.678-6.669c0-.387-.129-.708-.387-.962-.254-.254-.575-.381-.963-.381h-2.195v2.624h2.195c.388 0 .709-.122.963-.367a1.22 1.22 0 00.388-.914zm3.11-3.261h7.797v1.918h-2.832v8.012h-2.126v-8.012h-2.84v-1.918zm9.355 9.93v-9.93h2.133v9.93h-2.133zm6.814-9.93v4.328l3.898-4.328h2.48l-3.684 4.113 3.967 5.817h-2.479l-2.908-4.252-1.274 1.413v2.839h-2.133v-9.93h2.133z" fill="#fff"/><path fill-rule="evenodd" clip-rule="evenodd" d="M78.53 6.798l.22 1.335c.174 1.242.255 2.496.242 3.75a34.65 34.65 0 01-.995 8.226 30.85 30.85 0 01-4.584 10.217c-2.47 3.558-6.042 7.056-11.249 9.867l-.637.344-.637-.344c-5.207-2.81-8.778-6.31-11.25-9.866a30.855 30.855 0 01-4.583-10.218 34.653 34.653 0 01-.995-8.224 25.102 25.102 0 01.241-3.75l.221-1.336a.84.84 0 00-.688-.97.836.836 0 00-.963.697l-.22 1.335a26.627 26.627 0 00-.265 4.024 36.328 36.328 0 001.043 8.629 32.528 32.528 0 004.838 10.774c2.607 3.757 6.39 7.451 11.834 10.384l1.034.557a.833.833 0 00.793 0l1.033-.557c5.438-2.934 9.222-6.627 11.834-10.384a32.528 32.528 0 004.834-10.773 36.318 36.318 0 001.044-8.629 26.627 26.627 0 00-.265-4.024l-.22-1.335a.838.838 0 00-1.509-.354.837.837 0 00-.142.628l-.01-.003z" fill="#fff"/><path fill-rule="evenodd" clip-rule="evenodd" d="M49.096 5.887L61.53 2.084 74.24 5.97a.839.839 0 00.982-1.2.84.84 0 00-.494-.409L61.773.4a.832.832 0 00-.488 0L48.607 4.276a.839.839 0 00-.408 1.34.84.84 0 00.896.27l.002.002z" fill="#fff"/><path fill-rule="evenodd" clip-rule="evenodd" d="M42.956 7.042L60.78 41.869a.835.835 0 001.481.013l10.87-20.352.016-.032 6.957-14.48a.84.84 0 00-1.028-1.151.838.838 0 00-.48.42l-6.945 14.468L61.55 39.681 44.445 6.275a.837.837 0 10-1.49.764v.003z" fill="#fff"/><path fill-rule="evenodd" clip-rule="evenodd" d="M52.383 20.663h19.353a.754.754 0 00.578-.288c.153-.185.239-.435.239-.696 0-.26-.086-.511-.24-.696a.754.754 0 00-.577-.288H52.383a.754.754 0 00-.577.288c-.154.185-.24.435-.24.696 0 .26.086.511.24.696.153.184.36.288.577.288zM37.67 50.098h-6.447a.423.423 0 00-.42.42v5.18a.424.424 0 00.42.422h6.446v.877h-6.446a1.287 1.287 0 01-1.293-1.295v-5.18a1.29 1.29 0 011.293-1.294h6.446v.87zm12.103-.875v.877h-6.208v2.565h4.99v.884h-4.99v2.569h6.208v.877h-7.085v-7.772h7.085z" fill="#fff"/><path d="M62.553 50.527v2.277a1.293 1.293 0 01-.798 1.198 1.288 1.288 0 01-.496.097h-1.185l2.435 2.892h-1.153l-2.425-2.892h-2.849a4.149 4.149 0 01-.42-.043v2.934h-.877v-7.758h6.467a1.285 1.285 0 011.197.799c.065.157.098.326.097.496h.007zm-6.468 2.687h5.174a.405.405 0 00.41-.41v-2.277a.415.415 0 00-.119-.297.39.39 0 00-.292-.124h-5.174a.423.423 0 00-.42.421v2.277a.387.387 0 00.124.292.414.414 0 00.297.118z" fill="#fff"/><path fill-rule="evenodd" clip-rule="evenodd" d="M67.191 49.222h7.758v.877h-3.433v6.896h-.876v-6.896h-3.449v-.877zm12.46 7.77v-7.77h.877v7.77h-.877zm12.525-7.77h1.121l-3.244 3.885 3.255 3.884h-1.132l-2.889-3.442h-2.5v3.442h-.883v-7.77h.884v3.443h2.5l2.888-3.442z" fill="#fff"/><path d="M95.44 65.193h.994c.09 0 .272.09.362.09.452.09.995.362 1.538.543.542.18.995.452 1.447.724.452.271.904.452 1.176.633.271.18.452.271.452.271l-.09.09c-.091 0-.181.091-.362.091-.362.09-.814.181-1.266.271-.091 0-.272.09-.362.09-.181 0-.272 0-.453.091-.27 0-.542.09-.904.09-.543 0-1.176-.09-1.628-.18-.995-.272-1.628-.905-2.08-1.357-.453-.543-.634-.904-.634-.904s.362-.181.905-.362c.18-.181.452-.181.904-.181z" fill="url(#u)"/><path d="M93.903 61.213c.272-.362.543-.724.814-.995.181-.181.362-.272.453-.452.09-.09.18-.09.271-.181.09-.09.181-.09.271-.181.272-.272.543-.453.814-.543.181-.18.362-.18.362-.18v.451c0 .272 0 .724-.09 1.176-.09.453-.181.995-.272 1.447-.18.453-.361.995-.633 1.357-.09.09-.09.181-.18.272l-.091.09-.09.09c-.181.181-.272.272-.453.362-.18.09-.271.181-.452.272-.18.09-.271.09-.452.18-.543.181-.905.091-.905.091s-.09-.452 0-1.085c0-.362.09-.724.181-1.086 0-.09.09-.18.09-.271 0-.09.091-.181.091-.272 0-.18.09-.361.271-.542z" fill="url(#v)"/><path d="M101.591 62.298s.09-.09.181-.09a2.8 2.8 0 01.543-.362.69.69 0 01.452-.181c.181-.09.362-.09.543-.18.361-.091.814-.182 1.266-.182.271 0 .543 0 .814.09.271 0 .543.091.814.091.271 0 .543.09.814.181.271.09.543.09.814.18.543.091.995.182 1.266.272.362.09.543.09.543.09s-.181.091-.452.272c-.181.09-.272.181-.543.271-.09.09-.181.09-.271.181-.091.09-.181.09-.362.181a2.71 2.71 0 00-.724.362c-.09.09-.271.09-.361.181-.091 0-.091.09-.181.09-.091 0-.181 0-.181.09a5.126 5.126 0 01-1.628.272c-1.086 0-1.9-.452-2.443-.814-.271-.18-.452-.362-.633-.543-.271-.27-.362-.452-.271-.452 0 0-.091 0 0 0z" fill="url(#w)"/><path d="M103.038 59.223c-.091.452-.362.814-.543 1.085-.091.181-.271.271-.362.362-.09.09-.271.18-.362.271-.271.181-.452.272-.633.272-.09 0-.181 0-.181.09h-.09s-.091-.09-.091-.271c-.09-.181-.09-.453-.181-.724-.09-.633-.18-1.447.091-2.261a2.79 2.79 0 01.543-1.176 3.99 3.99 0 01.723-.995c.091-.181.272-.271.362-.452.09-.09.181-.272.271-.362l.272-.271s.09.18.09.452c.091.271.181.723.181 1.176 0 .271.091.452.091.723v.724c0 .271 0 .543-.091.724 0 .18 0 .452-.09.633z" fill="url(#x)"/><path d="M108.736 56.6c.09-.181.271-.362.452-.543.181-.18.452-.452.814-.633.362-.18.724-.362 1.176-.543.181 0 .362-.09.543-.09.18 0 .361-.09.542-.09.905-.181 1.9-.181 2.714-.272.814 0 1.357-.09 1.357-.09s-.181.271-.543.633c-.271.362-.814.814-1.357 1.266-.09.09-.181.09-.271.181l-.091.09s-.09.09-.181.09c-.18.091-.361.272-.542.363l-.543.271c-.181.09-.362.181-.543.181-.995.271-1.899.09-2.532-.09a5.256 5.256 0 01-.995-.543s-.091-.09 0-.181z" fill="url(#y)"/><path d="M108.466 55.424l-.453.452c-.181.09-.271.09-.271.09s-.271-.361-.633-.904c-.272-.542-.633-1.357-.633-2.261 0-.271 0-.633.09-.995 0-.181.091-.271.091-.452s.09-.272.09-.453c.09-.27.181-.452.271-.723 0-.09.091-.09.091-.181 0-.09 0-.09.09-.181 0-.09.091-.18.091-.271l.271-.543s.271.452.633 1.085l.272.543c0 .09.09.181.09.271 0 .09.09.181.09.272.181.362.272.814.362 1.266 0 .181.091.362.091.452v.453c0 .452-.091.814-.181 1.175-.091.362-.272.634-.452.905z" fill="url(#z)"/><path d="M115.519 49.816h-.542c-.724 0-1.086-.18-1.086-.18s0-.091.091-.272c0-.09.09-.18.09-.271 0-.09.091-.181.181-.362.09-.272.271-.543.543-.814l.181-.181c.09-.09.18-.181.271-.181.181-.18.362-.271.543-.362.181-.09.452-.271.723-.362.272-.09.453-.271.724-.361.543-.181 1.085-.453 1.538-.543.452-.181.904-.362 1.266-.452l.543-.181s-.091.18-.181.452l-.272.543c-.09.18-.271.361-.361.633-.091.18-.272.452-.453.633 0 .09-.09.09-.09.18 0 .091-.091.091-.091.182-.09.09-.181.18-.271.362-.181.18-.362.452-.633.633l-.272.271c-.09.09-.18.181-.361.181-.453.271-.905.452-1.357.452-.362-.09-.543 0-.724 0z" fill="url(#A)"/><path d="M113.532 47.374c0 .362-.181.633-.271.904-.091.09-.091.272-.181.362-.091.09-.091.181-.181.271l-.181.181s-.362-.271-.814-.723c-.09-.09-.181-.272-.362-.362-.09-.181-.271-.271-.362-.452-.181-.362-.452-.724-.542-1.086 0-.09-.091-.18-.091-.271 0-.09-.09-.181-.09-.362 0-.18-.091-.452-.091-.633v-1.266c0-.181 0-.362.091-.543v-.452c0-.272.09-.362.09-.362s.181.09.362.362l.814.814c.271.361.633.723.905 1.176.18.18.271.452.361.633.091.18.181.452.272.633.09.18.09.452.09.633v.452c.181 0 .181.09.181.09z" fill="url(#B)"/><path d="M119.5 40.861c-.18.091-.361.272-.542.362-.362.181-.724.272-1.086.362-.633.09-1.176.09-1.176.09s-.09-.361.091-.904c0-.18.09-.271.09-.452.091-.181.091-.362.181-.452l.272-.543c.09-.09.09-.181.18-.271l.091-.09.09-.091c.634-.724 1.719-1.448 2.533-1.99.452-.272.814-.543 1.085-.724.272-.18.453-.271.453-.271s0 .18-.091.542c-.09.362-.181.724-.271 1.267a29.41 29.41 0 00-.543 1.537c-.09.09-.09.272-.181.362-.09.09-.181.272-.181.362-.18.271-.361.452-.452.633-.181-.09-.362.09-.543.271z" fill="url(#C)"/><path d="M115.43 41.404s-.452-.18-.995-.452c-.271-.18-.633-.362-.904-.633-.181-.09-.272-.272-.453-.452-.181-.181-.271-.362-.361-.543-.091-.181-.181-.362-.362-.543a4.403 4.403 0 01-.272-.633 8.299 8.299 0 01-.361-1.176c-.091-.362-.181-.724-.181-.904v-.362s.181.09.452.18c.271.182.633.362.995.634.362.271.814.543 1.176.904.362.362.723.724.995 1.086l.271.543c.091.18.091.361.181.542 0 .181.09.362.09.543v.452c-.09.452-.271.814-.271.814z" fill="url(#D)"/><path d="M120.496 28.922c0 .18-.091.452-.091.633-.09.452-.181.814-.362 1.176-.271.452-.542.814-.814 1.085-.271.272-.633.453-.904.633a6.095 6.095 0 01-1.086.362s0-.09-.09-.271c0-.181-.09-.362-.09-.633 0-.272 0-.634.09-.995.09-.362.181-.724.362-1.176.09-.181.181-.271.271-.452.091-.09.091-.181.181-.181.091-.09.091-.181.181-.181l.814-1.086c.271-.361.543-.723.814-.995.452-.633.814-.995.814-.995s.091.272.091.814c0 .272.09.543.09.815v.994c-.181.091-.181.272-.271.453z" fill="url(#E)"/><path d="M112.716 31.636l-.181-.181-.181-.181c-.091-.09-.181-.272-.362-.362-.09-.09-.181-.271-.271-.362a1.25 1.25 0 00-.272-.362c-.181-.18-.271-.452-.361-.633-.091-.09-.091-.18-.181-.271 0-.09-.091-.181-.181-.272l-.272-.542s.543.09 1.267.271c.181.09.362.09.542.181.181.09.362.09.634.18.361.182.814.363 1.175.544l.814.542c.362.272.634.634.724.905.181.362.271.633.271.904v.633c0 .181-.09.272-.09.272s-.452 0-1.085-.181c-.543-.181-1.357-.452-1.99-1.085z" fill="url(#F)"/><path d="M116.695 22.68c-.181.362-.452.634-.723.905a3.029 3.029 0 01-.905.633l-.181-.18c-.09-.181-.181-.362-.271-.634a11.36 11.36 0 01-.272-.904v-.634c0-.18 0-.452.091-.633 0-.271.09-.452.181-.723 0-.09.09-.272.09-.362 0-.09.091-.271.091-.362.181-.543.362-.995.633-1.538.09-.27.181-.452.271-.633l.272-.542c.09-.272.18-.453.18-.453s.091.181.272.453c.09.18.181.361.181.542.09.181.181.453.271.634 0 .09.091.27.091.361 0 .09.09.272.09.362.09.271.09.543.181.814 0 .271.09.543.09.814 0 .272 0 .543-.09.814a8.817 8.817 0 01-.543 1.267z" fill="url(#G)"/><path d="M109.822 24.037c-.181-.09-.362-.27-.542-.361-.181-.181-.362-.272-.453-.453l-.452-.452-.362-.362-.181-.18c-.09-.091-.09-.091-.09-.181l-.271-.272h1.628c.452 0 .995.09 1.537.181.091 0 .272.09.362.09.091 0 .271.09.362.09.271.091.452.182.724.272.18.09.361.181.542.362.181.09.272.271.452.362.272.271.453.543.543.814.091.271.181.452.181.633v.272s-.452.09-1.085.09c-.362 0-.724 0-1.086-.09-.362-.091-.814-.181-1.266-.362-.181-.181-.362-.362-.543-.453z" fill="url(#H)"/><path d="M111.904 14.992c-.09.362-.271.724-.452.995-.362.543-.724.905-.724.905s-.361-.181-.723-.633c-.091-.09-.181-.272-.272-.362-.09-.181-.18-.272-.271-.453-.181-.361-.271-.723-.271-1.266-.091-.452 0-.995 0-1.538 0-.542.09-1.085.181-1.628.09-.542.09-.904.181-1.266.09-.271.09-.543.09-.543l.09.09.272.272c.181.272.452.633.814.995.271.452.543.905.814 1.447.181.543.362 1.086.452 1.538v.724c0 .361-.09.542-.181.723z" fill="url(#I)"/><path d="M105.662 18.067c-.091 0-.181-.09-.362-.09-.091 0-.091 0-.181-.09-.09 0-.09 0-.181-.091-.452-.18-.814-.362-1.176-.543-.362-.18-.633-.362-.814-.452-.09-.09-.181-.09-.271-.18-.091 0-.091-.091-.091-.091l.091-.09c.09 0 .181-.091.362-.091.271-.09.723-.181 1.176-.362.271-.09.452-.09.723-.181.091 0 .271 0 .362-.09h1.899c.453.09.814.27 1.176.452.181.09.272.18.453.271.09.09.18.181.271.362.362.452.452.814.452.814s-.452.271-1.085.362c-.362.09-.724.18-1.086.18h-1.266s-.181 0-.452-.09z" fill="url(#J)"/><path d="M104.484 10.38c-.09.18-.18.27-.18.27h-.091s-.09 0-.181-.09c-.181-.09-.362-.18-.633-.362a4.296 4.296 0 01-1.357-1.809c-.09-.271-.271-.633-.362-.995l-.271-1.356c-.09-.453-.181-.905-.271-1.267-.091-.723-.181-1.266-.181-1.266s.271.18.633.452c.181.181.452.271.633.452.272.181.452.453.724.634l.452.452.091.09.09.09c.09.091.09.182.181.272.271.362.452.724.633 1.085.09.272.181.453.181.724 0 .181.09.452.09.633 0 .453-.09.814-.09 1.086.09.542 0 .723-.091.904z" fill="url(#K)"/><path d="M98.516 13.002c-.272-.09-.543-.09-.724-.18-.271-.091-.452-.091-.633-.182-.362-.09-.543-.18-.543-.18s.362-.272.995-.724a6.012 6.012 0 011.085-.543c.362-.18.814-.362 1.267-.452.362-.09.633-.181.904-.181.905-.09 1.628.18 2.081.543.271.18.361.271.542.452.091.09.091.09.091.18v.091s-.091.09-.272.181c-.18.09-.361.272-.633.453-.271.18-.633.361-.995.452-.181.09-.361.18-.633.18-.181.091-.452.091-.633.091-.633 0-1.266-.09-1.9-.18z" fill="url(#L)"/><path d="M88.838 65.826c.18 0 .361-.09.633-.09.09 0 .271 0 .361-.091.181 0 .272-.09.453-.09.271-.091.633-.091.995-.181l1.085-.272c.181 0 .362-.09.543-.09.18-.09.362-.09.543-.181.361-.09.814-.181 1.175-.362 1.628-.452 3.076-1.085 4.252-1.628.271-.181.542-.271.723-.362.09-.09.181-.09.272-.18.09-.091.18-.091.271-.182.271-.18.452-.271.452-.271s.181-.09.452-.271c.272-.181.724-.453 1.267-.815.995-.633 2.352-1.628 3.618-2.713 1.266-1.085 2.352-2.261 3.166-3.166.09-.09.181-.18.271-.362l.271-.271c.181-.18.272-.362.362-.452.091-.09.181-.272.271-.362l.091-.09s.09-.181.362-.453c.09-.18.271-.271.362-.542.18-.181.271-.453.452-.724.09-.09.181-.271.271-.362.091-.18.181-.271.272-.452.18-.272.361-.633.542-.905.181-.361.362-.633.543-.995.09-.09.09-.18.181-.271 0-.09.09-.18.09-.271l.272-.543c.633-1.447 1.266-2.985 1.537-4.16 0-.182.091-.272.091-.453 0-.09.09-.271.09-.362.091-.271.091-.452.181-.633.091-.362.091-.543.091-.543v-.18c0-.091 0-.272.09-.362 0-.181.09-.362.09-.634 0-.27.091-.542.181-.814 0-.271.091-.633.091-.995v-1.085c.09-.724.09-1.538.09-2.352 0-.814 0-1.628-.09-2.352v-1.084c0-.363-.091-.634-.091-.996 0-.271-.09-.543-.181-.814 0-.271-.09-.452-.09-.633s-.09-.271-.09-.362v-.18s-.091-.182-.091-.544c0-.18-.09-.361-.181-.633 0-.09-.09-.271-.09-.361 0-.09-.091-.272-.091-.453-.361-1.176-.904-2.623-1.537-4.16l-.272-.543c0-.09-.09-.181-.09-.272-.091-.09-.091-.18-.181-.27-.181-.363-.362-.724-.543-.996-.181-.362-.362-.633-.542-.904-.091-.181-.181-.272-.272-.453a1.25 1.25 0 00-.271-.361c-.181-.272-.362-.453-.452-.724a1.882 1.882 0 01-.362-.543 3.266 3.266 0 00-.362-.452l-.091-.09c-.09-.09-.09-.181-.271-.362-.09-.181-.271-.272-.362-.453l-.271-.27c-.09-.091-.181-.182-.271-.363-.814-.904-1.9-2.08-3.166-3.165a37.61 37.61 0 00-3.618-2.714c-.543-.362-.995-.633-1.267-.814-.361-.181-.452-.271-.452-.271s-.181-.09-.452-.272c-.091 0-.181-.09-.271-.18-.09-.091-.181-.091-.272-.182-.09 0-.18-.09-.271-.09h-.814a5.5 5.5 0 01-2.262-.543c-.361-.18-.723-.452-1.085-.814-.18-.18-.362-.271-.452-.452l-.452-.452c-.272-.272-.453-.543-.634-.724l-.27-.271h1.989c.09 0 .271 0 .362.09.271 0 .542.09.814.181.543.09.995.271 1.447.543.362.18.724.452.995.723.271.272.362.543.452.814.09.272.181.453.181.634v.09h.09c.091.09.182.09.362.18.091.091.181.091.272.182.271.18.452.271.452.271l.543.272c.271.18.723.452 1.266.814.995.723 2.352 1.628 3.618 2.713 1.266 1.085 2.352 2.261 3.166 3.166.09.09.181.271.271.362l.272.271c.181.181.271.362.452.543.09.18.181.271.271.362l.091.09s.09.181.362.452c.09.181.271.362.361.543.181.18.272.452.453.724.09.09.181.271.271.361.09.181.181.272.271.453.181.271.362.633.543.904.181.362.362.724.543.995.09.09.09.181.181.271 0 .091.09.181.09.272.091.18.181.362.271.543.724 1.447 1.267 2.985 1.538 4.16 0 .181.091.272.091.453 0 .09.09.271.09.361.09.272.09.453.181.634.09.361.09.542.09.542v.181c0 .09 0 .271.091.362 0 .18.09.362.09.633s.091.543.181.814c0 .272.091.633.091.995v1.086c.09.723.09 1.537.09 2.351 0 .814 0 1.628-.09 2.352v1.086c0 .361-.091.633-.091.995 0 .27-.09.542-.181.813 0 .272-.09.453-.09.634 0 .18-.091.271-.091.361v.181s-.09.181-.09.543c0 .181-.091.362-.181.633 0 .09-.09.272-.09.362 0 .09-.091.271-.091.452a40.613 40.613 0 01-1.538 4.161l-.271.543c0 .09-.09.18-.09.271-.091.09-.091.181-.181.271-.181.362-.362.724-.543.995a7.915 7.915 0 01-.543.905c-.09.18-.181.271-.271.452-.09.181-.181.272-.271.362-.181.271-.362.452-.453.724-.181.18-.271.361-.361.542-.181.272-.362.453-.362.453l-.091.09c-.09.09-.181.181-.271.362-.091.18-.271.271-.452.543l-.272.27c-.09.091-.181.182-.271.363-.814.904-1.99 2.08-3.166 3.166-1.266 1.085-2.623 2.08-3.618 2.713-.543.362-.995.633-1.266.814l-.543.271s-.181.09-.452.272c-.091 0-.181.09-.272.18-.09.091-.18.091-.361.182-.272.09-.453.271-.724.361a24.707 24.707 0 01-4.251 1.629c-.362.18-.814.27-1.176.361-.18.09-.362.09-.633.181-.181.09-.362.09-.543.09l-1.085.272c-.362.09-.724.09-.995.181-.181 0-.272.09-.453.09-.18 0-.27 0-.361.09-.272 0-.453.091-.633.091-.362 0-.543.09-.543.09v-.27c-.09.361.18.361.543.27z" fill="url(#M)"/><path d="M92.365 65.554s-4.342 1.086-5.337 5.156l.09-4.703 4.976-.633.27.18z" fill="url(#N)"/><defs><linearGradient id="b" x1="27.683" y1="58.68" x2="27.683" y2="64.492" gradientUnits="userSpaceOnUse"><stop offset=".177" stop-color="#fff"/><stop offset="1" stop-color="#fff" stop-opacity="0"/></linearGradient><linearGradient id="u" x1="97.52" y1="65.193" x2="97.52" y2="68.178" gradientUnits="userSpaceOnUse"><stop offset=".177" stop-color="#fff"/><stop offset="1" stop-color="#fff" stop-opacity="0"/></linearGradient><linearGradient id="c" x1="17.146" y1="61.303" x2="17.146" y2="64.107" gradientUnits="userSpaceOnUse"><stop offset=".177" stop-color="#fff"/><stop offset="1" stop-color="#fff" stop-opacity="0"/></linearGradient><linearGradient id="d" x1="20.88" y1="54.791" x2="20.88" y2="61.303" gradientUnits="userSpaceOnUse"><stop offset=".177" stop-color="#fff"/><stop offset="1" stop-color="#fff" stop-opacity="0"/></linearGradient><linearGradient id="e" x1="10.228" y1="54.339" x2="10.228" y2="57.552" gradientUnits="userSpaceOnUse"><stop offset=".177" stop-color="#fff"/><stop offset="1" stop-color="#fff" stop-opacity="0"/></linearGradient><linearGradient id="f" x1="14.955" y1="49.002" x2="14.955" y2="55.967" gradientUnits="userSpaceOnUse"><stop offset=".177" stop-color="#fff"/><stop offset="1" stop-color="#fff" stop-opacity="0"/></linearGradient><linearGradient id="g" x1="5.504" y1="45.294" x2="5.504" y2="49.816" gradientUnits="userSpaceOnUse"><stop offset=".177" stop-color="#fff"/><stop offset="1" stop-color="#fff" stop-opacity="0"/></linearGradient><linearGradient id="h" x1="10.793" y1="42.58" x2="10.793" y2="49.092" gradientUnits="userSpaceOnUse"><stop offset=".177" stop-color="#fff"/><stop offset="1" stop-color="#fff" stop-opacity="0"/></linearGradient><linearGradient id="i" x1="3.524" y1="35.887" x2="3.524" y2="41.676" gradientUnits="userSpaceOnUse"><stop offset=".177" stop-color="#fff"/><stop offset="1" stop-color="#fff" stop-opacity="0"/></linearGradient><linearGradient id="j" x1="9.121" y1="35.706" x2="9.121" y2="41.404" gradientUnits="userSpaceOnUse"><stop offset=".177" stop-color="#fff"/><stop offset="1" stop-color="#fff" stop-opacity="0"/></linearGradient><linearGradient id="k" x1="3.829" y1="25.846" x2="3.829" y2="32.811" gradientUnits="userSpaceOnUse"><stop offset=".177" stop-color="#fff"/><stop offset="1" stop-color="#fff" stop-opacity="0"/></linearGradient><linearGradient id="l" x1="9.574" y1="28.47" x2="9.574" y2="32.902" gradientUnits="userSpaceOnUse"><stop offset=".177" stop-color="#fff"/><stop offset="1" stop-color="#fff" stop-opacity="0"/></linearGradient><linearGradient id="m" x1="6.906" y1="16.62" x2="6.906" y2="24.218" gradientUnits="userSpaceOnUse"><stop offset=".177" stop-color="#fff"/><stop offset="1" stop-color="#fff" stop-opacity="0"/></linearGradient><linearGradient id="n" x1="12.106" y1="21.776" x2="12.106" y2="24.942" gradientUnits="userSpaceOnUse"><stop offset=".177" stop-color="#fff"/><stop offset="1" stop-color="#fff" stop-opacity="0"/></linearGradient><linearGradient id="o" x1="12.124" y1="9.203" x2="12.124" y2="16.892" gradientUnits="userSpaceOnUse"><stop offset=".177" stop-color="#fff"/><stop offset="1" stop-color="#fff" stop-opacity="0"/></linearGradient><linearGradient id="p" x1="16.673" y1="15.716" x2="16.673" y2="18.158" gradientUnits="userSpaceOnUse"><stop offset=".177" stop-color="#fff"/><stop offset="1" stop-color="#fff" stop-opacity="0"/></linearGradient><linearGradient id="q" x1="19.931" y1="3.505" x2="19.931" y2="10.65" gradientUnits="userSpaceOnUse"><stop offset=".177" stop-color="#fff"/><stop offset="1" stop-color="#fff" stop-opacity="0"/></linearGradient><linearGradient id="r" x1="22.644" y1="10.543" x2="22.644" y2="13.183" gradientUnits="userSpaceOnUse"><stop offset=".177" stop-color="#fff"/><stop offset="1" stop-color="#fff" stop-opacity="0"/></linearGradient><linearGradient id="s" x1="20.3" y1="4.681" x2="20.3" y2="65.876" gradientUnits="userSpaceOnUse"><stop offset=".177" stop-color="#fff"/><stop offset="1" stop-color="#fff" stop-opacity="0"/></linearGradient><linearGradient id="t" x1="33.046" y1="65.374" x2="33.046" y2="70.71" gradientUnits="userSpaceOnUse"><stop offset=".177" stop-color="#fff"/><stop offset="1" stop-color="#fff" stop-opacity="0"/></linearGradient><linearGradient id="a" x1="25.223" y1="65.193" x2="25.223" y2="68.178" gradientUnits="userSpaceOnUse"><stop offset=".177" stop-color="#fff"/><stop offset="1" stop-color="#fff" stop-opacity="0"/></linearGradient><linearGradient id="v" x1="95.059" y1="58.68" x2="95.059" y2="64.492" gradientUnits="userSpaceOnUse"><stop offset=".177" stop-color="#fff"/><stop offset="1" stop-color="#fff" stop-opacity="0"/></linearGradient><linearGradient id="w" x1="105.596" y1="61.303" x2="105.596" y2="64.107" gradientUnits="userSpaceOnUse"><stop offset=".177" stop-color="#fff"/><stop offset="1" stop-color="#fff" stop-opacity="0"/></linearGradient><linearGradient id="x" x1="101.862" y1="54.791" x2="101.862" y2="61.303" gradientUnits="userSpaceOnUse"><stop offset=".177" stop-color="#fff"/><stop offset="1" stop-color="#fff" stop-opacity="0"/></linearGradient><linearGradient id="y" x1="112.515" y1="54.339" x2="112.515" y2="57.552" gradientUnits="userSpaceOnUse"><stop offset=".177" stop-color="#fff"/><stop offset="1" stop-color="#fff" stop-opacity="0"/></linearGradient><linearGradient id="z" x1="107.787" y1="49.002" x2="107.787" y2="55.967" gradientUnits="userSpaceOnUse"><stop offset=".177" stop-color="#fff"/><stop offset="1" stop-color="#fff" stop-opacity="0"/></linearGradient><linearGradient id="A" x1="117.238" y1="45.294" x2="117.238" y2="49.816" gradientUnits="userSpaceOnUse"><stop offset=".177" stop-color="#fff"/><stop offset="1" stop-color="#fff" stop-opacity="0"/></linearGradient><linearGradient id="B" x1="111.949" y1="42.58" x2="111.949" y2="49.092" gradientUnits="userSpaceOnUse"><stop offset=".177" stop-color="#fff"/><stop offset="1" stop-color="#fff" stop-opacity="0"/></linearGradient><linearGradient id="C" x1="119.218" y1="35.887" x2="119.218" y2="41.676" gradientUnits="userSpaceOnUse"><stop offset=".177" stop-color="#fff"/><stop offset="1" stop-color="#fff" stop-opacity="0"/></linearGradient><linearGradient id="D" x1="113.621" y1="35.706" x2="113.621" y2="41.404" gradientUnits="userSpaceOnUse"><stop offset=".177" stop-color="#fff"/><stop offset="1" stop-color="#fff" stop-opacity="0"/></linearGradient><linearGradient id="E" x1="118.913" y1="25.846" x2="118.913" y2="32.811" gradientUnits="userSpaceOnUse"><stop offset=".177" stop-color="#fff"/><stop offset="1" stop-color="#fff" stop-opacity="0"/></linearGradient><linearGradient id="F" x1="113.168" y1="28.47" x2="113.168" y2="32.902" gradientUnits="userSpaceOnUse"><stop offset=".177" stop-color="#fff"/><stop offset="1" stop-color="#fff" stop-opacity="0"/></linearGradient><linearGradient id="G" x1="115.836" y1="16.62" x2="115.836" y2="24.218" gradientUnits="userSpaceOnUse"><stop offset=".177" stop-color="#fff"/><stop offset="1" stop-color="#fff" stop-opacity="0"/></linearGradient><linearGradient id="H" x1="110.636" y1="21.776" x2="110.636" y2="24.942" gradientUnits="userSpaceOnUse"><stop offset=".177" stop-color="#fff"/><stop offset="1" stop-color="#fff" stop-opacity="0"/></linearGradient><linearGradient id="I" x1="110.618" y1="9.203" x2="110.618" y2="16.892" gradientUnits="userSpaceOnUse"><stop offset=".177" stop-color="#fff"/><stop offset="1" stop-color="#fff" stop-opacity="0"/></linearGradient><linearGradient id="J" x1="106.069" y1="15.716" x2="106.069" y2="18.158" gradientUnits="userSpaceOnUse"><stop offset=".177" stop-color="#fff"/><stop offset="1" stop-color="#fff" stop-opacity="0"/></linearGradient><linearGradient id="K" x1="102.811" y1="3.505" x2="102.811" y2="10.65" gradientUnits="userSpaceOnUse"><stop offset=".177" stop-color="#fff"/><stop offset="1" stop-color="#fff" stop-opacity="0"/></linearGradient><linearGradient id="L" x1="100.098" y1="10.543" x2="100.098" y2="13.183" gradientUnits="userSpaceOnUse"><stop offset=".177" stop-color="#fff"/><stop offset="1" stop-color="#fff" stop-opacity="0"/></linearGradient><linearGradient id="M" x1="102.442" y1="4.681" x2="102.442" y2="65.876" gradientUnits="userSpaceOnUse"><stop offset=".177" stop-color="#fff"/><stop offset="1" stop-color="#fff" stop-opacity="0"/></linearGradient><linearGradient id="N" x1="89.697" y1="65.374" x2="89.697" y2="70.71" gradientUnits="userSpaceOnUse"><stop offset=".177" stop-color="#fff"/><stop offset="1" stop-color="#fff" stop-opacity="0"/></linearGradient></defs></svg>