<svg width="868" height="496" fill="none" xmlns="http://www.w3.org/2000/svg"><g opacity=".5" fill="#4D4D5D"><rect opacity=".4" x="62" width="124" height="124" rx="30"/><rect opacity=".4" x="186" width="124" height="124" rx="30"/><rect opacity=".3" x="310" width="124" height="124" rx="30"/><rect opacity=".4" x="434" width="124" height="124" rx="30"/><rect opacity=".7" x="558" width="124" height="124" rx="30"/><rect opacity=".4" x="682" width="124" height="124" rx="30"/><rect opacity=".4" x="124" y="124" width="124" height="124" rx="30"/><rect opacity=".5" x="248" y="124" width="124" height="124" rx="30"/><rect opacity=".2" x="372" y="124" width="124" height="124" rx="30"/><rect opacity=".4" x="496" y="124" width="124" height="124" rx="30"/><rect opacity=".6" x="620" y="124" width="124" height="124" rx="30"/><rect opacity=".4" x="124" y="248" width="124" height="124" rx="30"/><rect opacity=".7" x="248" y="248" width="124" height="124" rx="30"/><rect opacity=".2" x="372" y="248" width="124" height="124" rx="30"/><rect opacity=".2" x="496" y="248" width="124" height="124" rx="30"/><rect opacity=".4" x="620" y="248" width="124" height="124" rx="30"/><rect opacity=".4" y="372" width="124" height="124" rx="30"/><rect opacity=".5" x="124" y="372" width="124" height="124" rx="30"/><rect opacity=".2" x="248" y="372" width="124" height="124" rx="30"/><rect opacity=".6" x="372" y="372" width="124" height="124" rx="30"/><rect opacity=".4" x="496" y="372" width="124" height="124" rx="30"/><rect opacity=".5" x="620" y="372" width="124" height="124" rx="30"/><rect opacity=".5" x="744" y="372" width="124" height="124" rx="30"/></g></svg>