<svg width="345" height="421" fill="none" xmlns="http://www.w3.org/2000/svg"><path d="M120.049 29.146a8.358 8.358 0 01-3.443-.732 8.937 8.937 0 01-2.856-2.036 10.082 10.082 0 01-1.963-3.047c-.488-1.162-.732-2.422-.732-3.78 0-1.337.244-2.592.732-3.764a10.034 10.034 0 011.963-3.061 8.935 8.935 0 012.856-2.037 8.356 8.356 0 013.443-.732c1.035 0 2.002.176 2.9.527a7.923 7.923 0 012.388 1.392 8.429 8.429 0 011.758 2.007c.488.762.84 1.553 1.054 2.373h-3.003a6.158 6.158 0 00-.673-1.406 4.57 4.57 0 00-1.084-1.202 5.301 5.301 0 00-1.48-.82 5.128 5.128 0 00-1.86-.322 5.29 5.29 0 00-2.285.527 6.145 6.145 0 00-1.963 1.465 7.495 7.495 0 00-1.377 2.227c-.352.859-.528 1.801-.528 2.827 0 1.015.176 1.953.528 2.812a7.7 7.7 0 001.377 2.241 6.445 6.445 0 001.963 1.465 5.282 5.282 0 002.285.528 5.59 5.59 0 002.051-.367 5.754 5.754 0 001.67-1.01c.478-.42.874-.909 1.186-1.465a5.947 5.947 0 00.645-1.802h-5.699v-2.71h8.394V29h-2.095l-.747-1.802c-.4.381-.874.713-1.421.996-.459.245-1.025.464-1.699.66-.664.195-1.426.293-2.285.293zm21.299-6.899c0-.645-.108-1.23-.323-1.758a4.594 4.594 0 00-.82-1.377 3.455 3.455 0 00-1.201-.893 3.285 3.285 0 00-1.406-.323c-.479 0-.948.108-1.407.323a3.455 3.455 0 00-1.201.893 4.79 4.79 0 00-.835 1.392 4.773 4.773 0 00-.307 1.743c0 .645.102 1.23.307 1.758.215.527.493.986.835 1.377.342.39.742.693 1.201.908.459.205.928.308 1.407.308.478 0 .947-.103 1.406-.308a3.623 3.623 0 001.201-.908c.342-.39.615-.85.82-1.377a4.616 4.616 0 00.323-1.758zm2.695 0c0 1.016-.166 1.948-.498 2.798a6.378 6.378 0 01-1.377 2.182 6.392 6.392 0 01-2.051 1.421 6.37 6.37 0 01-2.519.498 6.372 6.372 0 01-2.52-.498 6.551 6.551 0 01-2.065-1.42 6.693 6.693 0 01-1.377-2.183c-.323-.84-.484-1.773-.484-2.798 0-1.016.161-1.943.484-2.783a6.527 6.527 0 011.377-2.168 6.437 6.437 0 012.065-1.436 6.216 6.216 0 012.52-.512c.898 0 1.738.17 2.519.512.781.342 1.465.82 2.051 1.436a6.225 6.225 0 011.377 2.168c.332.84.498 1.767.498 2.783zm13.345 2.256c0 .596.2 1.094.6 1.494.401.4.899.6 1.494.6a3.386 3.386 0 00.63-.058 1.33 1.33 0 00.279-.088v2.402a1.975 1.975 0 01-.425.147 3.495 3.495 0 01-1.07.146 4.307 4.307 0 01-1.669-.322 4.112 4.112 0 01-1.333-.937 4.276 4.276 0 01-.894-1.45c-.205-.567-.308-1.211-.308-1.934v-6.46h-2.402v-2.549h1.055c.517 0 .947-.166 1.289-.498.342-.342.512-.771.512-1.289v-1.802h2.242v3.59h3.003v2.548h-3.003v6.46zm15.307-2.256c0-.645-.107-1.23-.322-1.758a4.594 4.594 0 00-.82-1.377 3.455 3.455 0 00-1.201-.893 3.286 3.286 0 00-1.407-.323c-.478 0-.947.108-1.406.323a3.455 3.455 0 00-1.201.893 4.79 4.79 0 00-.835 1.392 4.773 4.773 0 00-.308 1.743c0 .645.103 1.23.308 1.758.215.527.493.986.835 1.377.342.39.742.693 1.201.908.459.205.928.308 1.406.308.479 0 .948-.103 1.407-.308a3.623 3.623 0 001.201-.908c.342-.39.615-.85.82-1.377a4.616 4.616 0 00.322-1.758zm2.696 0c0 1.016-.166 1.948-.498 2.798a6.408 6.408 0 01-1.377 2.182 6.392 6.392 0 01-2.051 1.421 6.372 6.372 0 01-2.52.498 6.37 6.37 0 01-2.519-.498 6.567 6.567 0 01-2.066-1.42 6.693 6.693 0 01-1.377-2.183c-.322-.84-.483-1.773-.483-2.798 0-1.016.161-1.943.483-2.783a6.527 6.527 0 011.377-2.168 6.452 6.452 0 012.066-1.436 6.214 6.214 0 012.519-.512c.899 0 1.739.17 2.52.512.781.342 1.465.82 2.051 1.436a6.254 6.254 0 011.377 2.168c.332.84.498 1.767.498 2.783zm11.396 2.402c.078.596.308 1.07.689 1.421.38.352.952.528 1.713.528.84 0 1.451-.157 1.832-.47.38-.321.571-.712.571-1.171 0-.4-.181-.703-.542-.908-.362-.215-.811-.39-1.348-.527a43.804 43.804 0 00-1.728-.44 7.95 7.95 0 01-1.714-.645 4.12 4.12 0 01-1.333-1.127c-.362-.47-.542-1.104-.542-1.905 0-.556.107-1.079.322-1.567.225-.498.537-.933.938-1.304.4-.37.883-.659 1.45-.864.576-.215 1.225-.322 1.948-.322 1.582 0 2.778.38 3.589 1.142.82.762 1.274 1.783 1.362 3.062h-2.71a1.95 1.95 0 00-.674-1.172c-.371-.322-.893-.483-1.567-.483-.684 0-1.206.156-1.567.468-.362.313-.542.66-.542 1.04 0 .4.18.708.542.923a5.49 5.49 0 001.333.513l1.728.44a7.061 7.061 0 011.714.644c.537.273.986.65 1.348 1.128.361.468.542 1.103.542 1.904 0 1.201-.43 2.202-1.289 3.003-.86.791-2.081 1.186-3.663 1.186-1.66 0-2.905-.39-3.735-1.171-.83-.782-1.284-1.89-1.362-3.326h2.695zm23.862-9.301a4.3 4.3 0 011.802.38 4.08 4.08 0 011.465 1.1c.42.478.752 1.064.996 1.757.254.684.381 1.455.381 2.314V29h-2.695v-8.1c0-.899-.259-1.622-.777-2.169-.508-.556-1.098-.835-1.772-.835-.684 0-1.279.279-1.787.835-.508.547-.762 1.27-.762 2.168V29h-2.71v-8.1c0-.899-.254-1.622-.762-2.169-.507-.556-1.103-.835-1.787-.835-.683 0-1.279.279-1.787.835-.508.547-.762 1.27-.762 2.168V29h-2.695V15.494h1.948l.601 1.362c.244-.283.532-.537.864-.761.283-.176.63-.342 1.04-.498.41-.166.874-.25 1.392-.25.644 0 1.196.113 1.655.338.459.214.85.454 1.172.717.361.323.669.674.923 1.055l.263-.322c.166-.205.42-.445.762-.718a5.494 5.494 0 011.26-.732c.498-.225 1.089-.337 1.772-.337zm13.506 0c.782 0 1.494.127 2.139.38a4.937 4.937 0 011.67 1.011 4.633 4.633 0 011.45 3.413V29h-1.948l-.601-1.348a4.198 4.198 0 01-.937.747 5.758 5.758 0 01-1.216.528c-.488.146-1.074.22-1.758.22-1.504 0-2.656-.372-3.457-1.114-.791-.752-1.186-1.728-1.186-2.93 0-.683.127-1.298.38-1.845.264-.557.708-1.026 1.333-1.406.635-.391 1.49-.694 2.564-.909 1.084-.224 2.456-.337 4.116-.337v-.454c0-.683-.215-1.23-.644-1.64-.43-.41-1.065-.616-1.905-.616-.898 0-1.552.162-1.963.484-.41.322-.654.713-.732 1.172h-2.695c.078-1.201.581-2.202 1.508-3.003.928-.801 2.222-1.201 3.882-1.201zm-1.04 11.396c1.143 0 2.027-.293 2.652-.879.625-.586.937-1.299.937-2.138v-.733c-1.201 0-2.173.059-2.915.176-.732.107-1.309.259-1.728.454-.42.186-.704.42-.85.703a2.032 2.032 0 00-.205.923c0 .38.181.727.542 1.04.361.303.884.454 1.567.454zm15.733-11.396c.156 0 .283.01.381.029.107.02.205.039.292.058l.235.06v2.71a19.47 19.47 0 00-.586-.117 1.224 1.224 0 00-.322-.045c-.459 0-.889.093-1.289.278a3.42 3.42 0 00-1.055.718 3.562 3.562 0 00-.703 1.055c-.166.4-.249.82-.249 1.26V29h-2.696V15.494h1.949l.6 1.362c.244-.283.533-.537.865-.761a5.785 5.785 0 011.069-.498c.43-.166.932-.25 1.509-.25zm7.192 9.155c0 .596.2 1.094.601 1.494.4.4.898.6 1.494.6a3.382 3.382 0 00.63-.058c.097-.02.19-.049.278-.088v2.402a1.956 1.956 0 01-.425.147 3.493 3.493 0 01-1.069.146 4.308 4.308 0 01-1.67-.322 4.123 4.123 0 01-1.333-.937 4.276 4.276 0 01-.894-1.45c-.205-.567-.307-1.211-.307-1.934v-6.46h-2.403v-2.549h1.055c.518 0 .947-.166 1.289-.498.342-.342.513-.771.513-1.289v-1.802h2.241v3.59h3.003v2.548h-3.003v6.46zM123.506 58.049a7.47 7.47 0 01-.747 2.021 5.96 5.96 0 01-1.304 1.612 5.906 5.906 0 01-1.787 1.084 6.022 6.022 0 01-2.168.38 6.38 6.38 0 01-2.52-.498 6.563 6.563 0 01-2.065-1.42 6.693 6.693 0 01-1.377-2.183c-.322-.84-.483-1.773-.483-2.798 0-1.016.161-1.943.483-2.783a6.527 6.527 0 011.377-2.168 6.447 6.447 0 012.065-1.436 6.223 6.223 0 012.52-.512c.781 0 1.504.132 2.168.395a5.54 5.54 0 011.787 1.084 5.655 5.655 0 011.289 1.626c.342.615.596 1.28.762 1.992h-2.857c-.224-.761-.595-1.377-1.113-1.845-.517-.47-1.196-.703-2.036-.703a3.28 3.28 0 00-1.406.322c-.459.205-.86.503-1.201.893-.342.39-.621.855-.835 1.392a4.773 4.773 0 00-.308 1.743c0 .645.103 1.23.308 1.758.214.527.493.986.835 1.377.341.39.742.693 1.201.908.459.205.927.308 1.406.308.84 0 1.519-.235 2.036-.703.527-.47.899-1.085 1.113-1.846h2.857zm12.158-1.802c0-.645-.107-1.23-.322-1.758a4.597 4.597 0 00-.821-1.377 3.446 3.446 0 00-1.201-.893 3.281 3.281 0 00-1.406-.322c-.478 0-.947.107-1.406.322-.459.205-.86.503-1.201.893a4.79 4.79 0 00-.835 1.392 4.773 4.773 0 00-.308 1.743c0 .645.103 1.23.308 1.758.215.527.493.986.835 1.377.341.39.742.693 1.201.908.459.205.928.308 1.406.308.479 0 .947-.103 1.406-.308.459-.215.86-.517 1.201-.908.342-.39.616-.85.821-1.377a4.616 4.616 0 00.322-1.758zm2.695 0c0 1.016-.166 1.948-.498 2.798a6.378 6.378 0 01-1.377 2.182 6.388 6.388 0 01-2.05 1.421 6.38 6.38 0 01-2.52.498 6.37 6.37 0 01-2.519-.498 6.555 6.555 0 01-2.066-1.42 6.693 6.693 0 01-1.377-2.183c-.322-.84-.483-1.773-.483-2.798 0-1.016.161-1.943.483-2.783a6.527 6.527 0 011.377-2.168 6.44 6.44 0 012.066-1.436 6.214 6.214 0 012.519-.512 6.223 6.223 0 014.57 1.948 6.225 6.225 0 011.377 2.168c.332.84.498 1.767.498 2.783zm9.302-6.9c.742 0 1.441.147 2.095.44.664.293 1.24.694 1.728 1.201a5.548 5.548 0 011.158 1.846c.283.713.424 1.504.424 2.373V63h-2.695v-7.793c0-.44-.088-.86-.264-1.26a3.339 3.339 0 00-1.699-1.772 2.709 2.709 0 00-1.201-.278 3.02 3.02 0 00-1.289.278c-.4.176-.752.415-1.055.718a3.562 3.562 0 00-.703 1.054c-.166.39-.249.81-.249 1.26V63h-2.695V49.494h1.948l.601 1.362c.263-.283.571-.537.923-.761a7.054 7.054 0 011.215-.498c.489-.166 1.075-.25 1.758-.25zm12.744 9.156c0 .596.2 1.094.601 1.494.4.4.898.6 1.494.6a3.403 3.403 0 00.63-.058c.098-.02.19-.049.278-.088v2.402a1.956 1.956 0 01-.425.147 3.488 3.488 0 01-1.069.147 4.312 4.312 0 01-1.67-.323 4.123 4.123 0 01-1.333-.937 4.258 4.258 0 01-.893-1.45c-.206-.567-.308-1.211-.308-1.934v-6.46h-2.402v-2.549h1.054c.518 0 .948-.166 1.289-.498.342-.342.513-.771.513-1.289v-1.802h2.241v3.59h3.003v2.548h-3.003v6.46zm12.144-9.155c.156 0 .283.01.381.029.107.02.205.039.293.058l.234.06v2.71a17.521 17.521 0 00-.586-.117 1.218 1.218 0 00-.322-.045c-.459 0-.889.093-1.289.278a3.42 3.42 0 00-1.055.718 3.562 3.562 0 00-.703 1.055c-.166.4-.249.82-.249 1.26V63h-2.695V49.494h1.948l.6 1.362c.245-.283.533-.537.865-.761a5.785 5.785 0 011.069-.498c.43-.166.933-.25 1.509-.25zm8.393 0c.782 0 1.495.127 2.139.38a4.937 4.937 0 011.67 1.011 4.633 4.633 0 011.45 3.413V63h-1.948l-.601-1.348a4.198 4.198 0 01-.937.747 5.736 5.736 0 01-1.216.528c-.488.146-1.074.22-1.758.22-1.504 0-2.656-.372-3.457-1.114-.791-.752-1.186-1.728-1.186-2.93 0-.683.127-1.298.381-1.845.263-.557.708-1.026 1.333-1.406.634-.391 1.489-.694 2.563-.909 1.084-.224 2.456-.337 4.116-.337v-.454c0-.683-.215-1.23-.644-1.64-.43-.41-1.065-.615-1.905-.615-.898 0-1.552.16-1.963.483-.41.322-.654.713-.732 1.172h-2.695c.078-1.201.581-2.202 1.509-3.003.927-.801 2.221-1.201 3.881-1.201zm-1.04 11.396c1.143 0 2.027-.293 2.652-.879.625-.586.937-1.299.937-2.138v-.733c-1.201 0-2.173.059-2.915.176-.732.107-1.308.259-1.728.454-.42.186-.703.42-.85.703a2.032 2.032 0 00-.205.923c0 .38.181.727.542 1.04.361.303.884.454 1.567.454zm21.446-2.695a7.537 7.537 0 01-.747 2.021 5.96 5.96 0 01-1.304 1.612 5.918 5.918 0 01-1.787 1.084 6.022 6.022 0 01-2.168.38 6.376 6.376 0 01-2.52-.498 6.563 6.563 0 01-2.065-1.42 6.693 6.693 0 01-1.377-2.183c-.322-.84-.484-1.773-.484-2.798 0-1.016.162-1.943.484-2.783a6.527 6.527 0 011.377-2.168 6.447 6.447 0 012.065-1.436 6.22 6.22 0 012.52-.512c.781 0 1.504.132 2.168.395a5.553 5.553 0 011.787 1.084 5.655 5.655 0 011.289 1.626c.342.615.596 1.28.762 1.992h-2.857c-.224-.761-.595-1.377-1.113-1.845-.518-.47-1.196-.703-2.036-.703a3.28 3.28 0 00-1.406.322c-.459.205-.86.503-1.202.893-.341.39-.62.855-.835 1.392a4.773 4.773 0 00-.307 1.743c0 .645.102 1.23.307 1.758.215.527.494.986.835 1.377.342.39.743.693 1.202.908.459.205.927.308 1.406.308.84 0 1.518-.235 2.036-.703.527-.47.898-1.085 1.113-1.846h2.857zm6.606.454c0 .596.2 1.094.601 1.494.4.4.898.6 1.494.6a3.382 3.382 0 00.63-.058c.097-.02.19-.049.278-.088v2.402a1.956 1.956 0 01-.425.147 3.493 3.493 0 01-1.069.147 4.312 4.312 0 01-1.67-.323 4.123 4.123 0 01-1.333-.937 4.276 4.276 0 01-.894-1.45c-.205-.567-.307-1.211-.307-1.934v-6.46h-2.403v-2.549h1.055c.518 0 .947-.166 1.289-.498.342-.342.513-.771.513-1.289v-1.802h2.241v3.59h3.003v2.548h-3.003v6.46zm7.808.146c.078.596.307 1.07.688 1.421.381.352.952.528 1.714.528.84 0 1.45-.157 1.831-.47.381-.321.571-.712.571-1.171 0-.4-.18-.703-.542-.908-.361-.215-.81-.39-1.347-.527a44.329 44.329 0 00-1.729-.44 7.99 7.99 0 01-1.714-.645 4.142 4.142 0 01-1.333-1.127c-.361-.47-.542-1.104-.542-1.905 0-.556.108-1.079.323-1.567a4 4 0 01.937-1.304c.401-.37.884-.659 1.45-.864.577-.215 1.226-.322 1.949-.322 1.582 0 2.778.38 3.588 1.142.821.762 1.275 1.782 1.363 3.062h-2.71a1.95 1.95 0 00-.674-1.172c-.371-.322-.894-.483-1.567-.483-.684 0-1.206.156-1.568.468-.361.313-.542.66-.542 1.04 0 .4.181.708.542.923.362.205.806.376 1.333.513l1.729.44a7.077 7.077 0 011.714.644c.537.273.986.65 1.347 1.128.362.469.542 1.103.542 1.904 0 1.201-.429 2.202-1.289 3.003-.859.791-2.08 1.187-3.662 1.187-1.66 0-2.905-.391-3.735-1.172-.83-.782-1.284-1.89-1.363-3.326h2.696zM235.405 63h-2.695V44.103h2.695V63zm6.446 0h-2.696V49.494h2.696V63zm-1.348-15.6a1.62 1.62 0 01-1.172-.47 1.614 1.614 0 01-.483-1.186c0-.459.161-.845.483-1.157a1.596 1.596 0 011.172-.484c.459 0 .85.162 1.172.484.322.312.483.698.483 1.157 0 .46-.161.85-.483 1.172a1.596 1.596 0 01-1.172.483zm11.543 15.747c-.684 0-1.27-.074-1.758-.22-.488-.147-.889-.322-1.201-.528a4.872 4.872 0 01-.938-.747l-.6 1.348h-1.948V44.103h2.695v6.753c.264-.283.576-.537.937-.761a7.566 7.566 0 011.172-.498c.459-.166 1.006-.25 1.641-.25a6.228 6.228 0 014.57 1.949 6.407 6.407 0 011.392 2.168c.332.84.498 1.767.498 2.783s-.166 1.948-.498 2.798a6.568 6.568 0 01-1.392 2.182 6.381 6.381 0 01-2.051 1.421 6.37 6.37 0 01-2.519.498zm-.147-11.25a3.51 3.51 0 00-1.479.322 3.702 3.702 0 00-1.245.893c-.362.39-.65.855-.864 1.392a4.752 4.752 0 00-.308 1.743c0 .645.102 1.23.308 1.758.214.527.502.986.864 1.377.361.39.776.693 1.245.908.469.205.962.308 1.479.308.518 0 1.011-.103 1.48-.308a3.7 3.7 0 001.245-.908c.361-.39.645-.85.85-1.377a4.635 4.635 0 00.322-1.758c0-.645-.108-1.23-.322-1.758a4.303 4.303 0 00-.85-1.377 3.533 3.533 0 00-1.245-.893 3.511 3.511 0 00-1.48-.322zm15.455-2.55c.156 0 .283.01.38.03.108.02.205.039.293.058l.235.06v2.71a17.357 17.357 0 00-.586-.117 1.224 1.224 0 00-.322-.045c-.459 0-.889.093-1.29.278-.4.176-.752.415-1.054.718a3.543 3.543 0 00-.703 1.055c-.166.4-.249.82-.249 1.26V63h-2.696V49.494h1.949l.6 1.362c.244-.283.532-.537.864-.761.284-.176.64-.342 1.07-.498.429-.166.932-.25 1.509-.25zm8.393 0c.781 0 1.494.128 2.139.381a4.937 4.937 0 011.67 1.011 4.633 4.633 0 011.45 3.413V63h-1.948l-.601-1.348a4.22 4.22 0 01-.937.747 5.758 5.758 0 01-1.216.528c-.489.146-1.075.22-1.758.22-1.504 0-2.656-.372-3.457-1.114-.791-.752-1.187-1.728-1.187-2.93 0-.683.127-1.298.381-1.845.264-.557.708-1.026 1.333-1.406.635-.391 1.489-.694 2.564-.909 1.084-.224 2.456-.337 4.116-.337v-.454c0-.683-.215-1.23-.645-1.64-.429-.41-1.064-.615-1.904-.615-.898 0-1.553.16-1.963.483-.41.322-.654.713-.732 1.172h-2.696c.079-1.201.582-2.202 1.509-3.003.928-.801 2.222-1.201 3.882-1.201zm-1.04 11.397c1.143 0 2.026-.293 2.651-.879.625-.586.938-1.299.938-2.138v-.733c-1.201 0-2.173.059-2.915.176-.733.107-1.309.259-1.729.454-.42.186-.703.42-.849.703a2.032 2.032 0 00-.205.923c0 .38.18.727.542 1.04.361.303.883.454 1.567.454zm15.732-11.396c.157 0 .284.01.381.029.108.02.205.039.293.058l.235.06v2.71a17.357 17.357 0 00-.586-.117 1.225 1.225 0 00-.323-.045 3.03 3.03 0 00-1.289.278c-.4.176-.752.415-1.054.718a3.543 3.543 0 00-.703 1.055c-.166.4-.249.82-.249 1.26V63h-2.696V49.494h1.948l.601 1.362c.244-.283.532-.537.864-.761.284-.176.64-.342 1.07-.498.429-.166.932-.25 1.508-.25zm1.788.146h2.856l3.75 9.756 3.75-9.756h2.856l-5.712 14.4a14.845 14.845 0 01-.894 1.904c-.283.517-.596.933-.937 1.245a2.92 2.92 0 01-1.114.688c-.41.147-.874.22-1.391.22a2.975 2.975 0 01-.63-.059 1.324 1.324 0 01-.279-.087v-2.256c.762 0 1.338-.161 1.729-.484a2.47 2.47 0 00.82-1.171l.454-1.348-5.258-13.052zM113.896 187.552c0 1.015.176 1.953.528 2.812a7.68 7.68 0 001.377 2.241 6.437 6.437 0 001.963 1.465 5.277 5.277 0 002.285.528c.722 0 1.372-.103 1.948-.308a5.057 5.057 0 001.538-.879c.44-.371.801-.801 1.084-1.289a6.38 6.38 0 00.674-1.567h3.003a9.385 9.385 0 01-1.055 2.549 8.416 8.416 0 01-1.787 2.109 8.396 8.396 0 01-2.417 1.421c-.908.342-1.904.512-2.988.512a8.36 8.36 0 01-3.443-.732 8.934 8.934 0 01-2.856-2.036 10.083 10.083 0 01-1.963-3.047c-.488-1.162-.732-2.422-.732-3.779 0-1.338.244-2.593.732-3.765a10.03 10.03 0 011.963-3.061 8.937 8.937 0 012.856-2.037 8.36 8.36 0 013.443-.732c1.035 0 2.002.176 2.9.527a7.62 7.62 0 012.388 1.421 8.487 8.487 0 011.758 2.095 8.78 8.78 0 011.054 2.549h-3.003a6.384 6.384 0 00-.673-1.568 4.97 4.97 0 00-1.084-1.289 4.759 4.759 0 00-1.48-.864c-.556-.215-1.177-.322-1.86-.322a5.29 5.29 0 00-2.285.527 6.144 6.144 0 00-1.963 1.465c-.567.625-1.026 1.372-1.377 2.241-.352.86-.528 1.797-.528 2.813zm22.208 9.594c-.762 0-1.47-.141-2.125-.424a5.68 5.68 0 01-1.713-1.201 5.758 5.758 0 01-1.158-1.846 6.666 6.666 0 01-.41-2.373v-7.808h2.696v7.808c0 .459.083.888.249 1.289.175.4.405.752.688 1.055.293.292.63.527 1.011.703.381.166.781.249 1.201.249.439 0 .859-.083 1.26-.249.4-.176.752-.411 1.054-.703.303-.303.542-.655.718-1.055.186-.401.279-.83.279-1.289v-7.808h2.695V197h-1.948l-.601-1.348a4.159 4.159 0 01-.938.747 5.674 5.674 0 01-1.215.528c-.479.146-1.06.219-1.743.219zm11.982-4.497c.078.596.308 1.07.688 1.421.381.352.953.528 1.714.528.84 0 1.45-.157 1.831-.469.381-.322.572-.713.572-1.172 0-.4-.181-.703-.542-.908-.362-.215-.811-.391-1.348-.528a45.754 45.754 0 00-1.729-.439 7.97 7.97 0 01-1.713-.644 4.14 4.14 0 01-1.333-1.128c-.362-.469-.542-1.104-.542-1.905 0-.556.107-1.079.322-1.567a4 4 0 01.937-1.304 4.218 4.218 0 011.451-.864c.576-.215 1.225-.322 1.948-.322 1.582 0 2.778.381 3.589 1.142.82.762 1.274 1.782 1.362 3.062h-2.71a1.95 1.95 0 00-.674-1.172c-.371-.322-.893-.484-1.567-.484-.684 0-1.206.157-1.568.469-.361.313-.542.659-.542 1.04 0 .401.181.708.542.923.362.205.806.376 1.333.513l1.729.439a7.107 7.107 0 011.714.645c.537.273.986.649 1.347 1.128.362.468.542 1.103.542 1.904 0 1.201-.429 2.202-1.289 3.003-.859.791-2.08 1.186-3.662 1.186-1.66 0-2.905-.39-3.735-1.171-.83-.782-1.284-1.89-1.362-3.326h2.695zm14.106-.146c0 .596.201 1.094.601 1.494.4.4.898.601 1.494.601.098 0 .2-.005.308-.015.117-.01.224-.024.322-.044.098-.019.19-.049.278-.088v2.403a1.974 1.974 0 01-.424.146c-.303.098-.66.146-1.07.146a4.31 4.31 0 01-1.67-.322 4.118 4.118 0 01-1.333-.937 4.283 4.283 0 01-.893-1.45c-.205-.567-.308-1.211-.308-1.934v-6.46h-2.402v-2.549h1.054c.518 0 .948-.166 1.289-.498.342-.342.513-.771.513-1.289v-1.802h2.241v3.589h3.003v2.549h-3.003v6.46zm15.308-2.256c0-.644-.107-1.23-.322-1.758a4.607 4.607 0 00-.821-1.377 3.452 3.452 0 00-1.201-.893 3.28 3.28 0 00-1.406-.323 3.28 3.28 0 00-1.406.323c-.459.205-.86.503-1.201.893a4.782 4.782 0 00-.835 1.392 4.77 4.77 0 00-.308 1.743c0 .645.103 1.231.308 1.758.214.527.493.986.835 1.377.341.39.742.693 1.201.908.459.205.927.308 1.406.308.479 0 .947-.103 1.406-.308.459-.215.86-.518 1.201-.908.342-.391.616-.85.821-1.377a4.614 4.614 0 00.322-1.758zm2.695 0c0 1.016-.166 1.948-.498 2.798a6.387 6.387 0 01-1.377 2.183 6.38 6.38 0 01-2.05 1.42 6.38 6.38 0 01-2.52.498 6.38 6.38 0 01-2.52-.498 6.555 6.555 0 01-2.065-1.42 6.703 6.703 0 01-1.377-2.183c-.322-.84-.483-1.773-.483-2.798 0-1.016.161-1.943.483-2.783a6.521 6.521 0 011.377-2.168 6.457 6.457 0 012.065-1.436 6.235 6.235 0 012.52-.512c.898 0 1.738.171 2.52.512a6.287 6.287 0 012.05 1.436 6.22 6.22 0 011.377 2.168c.332.84.498 1.767.498 2.783zm16.509-6.899c.645 0 1.245.127 1.802.381.556.244 1.045.61 1.465 1.098.42.479.752 1.065.996 1.758.254.684.381 1.455.381 2.314V197h-2.696v-8.101c0-.898-.258-1.621-.776-2.168-.508-.556-1.099-.835-1.772-.835-.684 0-1.28.279-1.788.835-.507.547-.761 1.27-.761 2.168V197h-2.71v-8.101c0-.898-.254-1.621-.762-2.168-.508-.556-1.104-.835-1.787-.835-.684 0-1.279.279-1.787.835-.508.547-.762 1.27-.762 2.168V197h-2.695v-13.506H185l.601 1.362c.244-.283.532-.537.864-.761.283-.176.63-.342 1.04-.498a3.68 3.68 0 011.391-.249c.645 0 1.197.112 1.656.337.459.214.849.454 1.172.717.361.323.669.674.922 1.055l.264-.322c.166-.205.42-.445.762-.718a5.48 5.48 0 011.26-.732c.498-.225 1.089-.337 1.772-.337zM207.661 197h-2.695v-13.506h2.695V197zm-1.348-15.601a1.62 1.62 0 01-1.171-.468 1.613 1.613 0 01-.484-1.187c0-.459.161-.845.484-1.157a1.594 1.594 0 011.171-.483c.459 0 .85.161 1.172.483.323.312.484.698.484 1.157 0 .459-.161.85-.484 1.172a1.596 1.596 0 01-1.172.483zm6.9 11.25c.078.596.308 1.07.688 1.421.381.352.953.528 1.714.528.84 0 1.45-.157 1.831-.469.381-.322.572-.713.572-1.172 0-.4-.181-.703-.542-.908-.362-.215-.811-.391-1.348-.528a45.754 45.754 0 00-1.729-.439 7.97 7.97 0 01-1.713-.644 4.14 4.14 0 01-1.333-1.128c-.362-.469-.542-1.104-.542-1.905 0-.556.107-1.079.322-1.567a4 4 0 01.937-1.304 4.218 4.218 0 011.451-.864c.576-.215 1.225-.322 1.948-.322 1.582 0 2.778.381 3.589 1.142.82.762 1.274 1.782 1.362 3.062h-2.71a1.95 1.95 0 00-.674-1.172c-.371-.322-.893-.484-1.567-.484-.684 0-1.206.157-1.568.469-.361.313-.542.659-.542 1.04 0 .401.181.708.542.923.362.205.806.376 1.333.513l1.729.439a7.107 7.107 0 011.714.645c.537.273.986.649 1.347 1.128.362.468.542 1.103.542 1.904 0 1.201-.429 2.202-1.289 3.003-.859.791-2.08 1.186-3.662 1.186-1.66 0-2.905-.39-3.735-1.171-.83-.782-1.284-1.89-1.362-3.326h2.695zm21.914.455a7.857 7.857 0 01-.85 1.567 5.67 5.67 0 01-2.9 2.168c-.625.205-1.328.307-2.109.307a6.374 6.374 0 01-2.52-.498 6.385 6.385 0 01-2.051-1.42 6.703 6.703 0 01-1.377-2.183c-.332-.84-.498-1.773-.498-2.798 0-1.016.166-1.943.498-2.783a6.787 6.787 0 011.348-2.168 6.002 6.002 0 012.007-1.436 5.983 5.983 0 012.446-.512c.859 0 1.675.171 2.446.512a6.002 6.002 0 012.007 1.436 6.77 6.77 0 011.348 2.168c.332.84.498 1.767.498 2.783 0 .156-.01.313-.029.469-.02.146-.039.273-.059.381a6.49 6.49 0 01-.059.351h-9.609c.039.42.161.821.366 1.201.205.381.459.718.762 1.011a3.77 3.77 0 001.113.689c.43.166.884.249 1.363.249.82 0 1.469-.176 1.948-.528.488-.351.84-.674 1.055-.966h2.856zm-6.006-7.208c-.898 0-1.66.308-2.285.923-.615.606-1.006 1.402-1.172 2.388h7.207c-.156-.977-.557-1.772-1.201-2.388-.635-.615-1.484-.923-2.549-.923zm17.695 6.753c.079.596.308 1.07.689 1.421.381.352.952.528 1.714.528.84 0 1.45-.157 1.831-.469.381-.322.571-.713.571-1.172 0-.4-.181-.703-.542-.908-.361-.215-.81-.391-1.348-.528a45.678 45.678 0 00-1.728-.439 7.98 7.98 0 01-1.714-.644 4.15 4.15 0 01-1.333-1.128c-.361-.469-.542-1.104-.542-1.905 0-.556.107-1.079.322-1.567.225-.498.537-.933.938-1.304.4-.371.884-.659 1.45-.864.576-.215 1.226-.322 1.948-.322 1.582 0 2.779.381 3.589 1.142.82.762 1.275 1.782 1.362 3.062h-2.71a1.949 1.949 0 00-.673-1.172c-.371-.322-.894-.484-1.568-.484-.683 0-1.206.157-1.567.469-.361.313-.542.659-.542 1.04 0 .401.181.708.542.923.361.205.806.376 1.333.513l1.728.439a7.076 7.076 0 011.714.645c.537.273.987.649 1.348 1.128.361.468.542 1.103.542 1.904 0 1.201-.43 2.202-1.289 3.003-.86.791-2.08 1.186-3.662 1.186-1.66 0-2.906-.39-3.736-1.171-.83-.782-1.284-1.89-1.362-3.326h2.695zm23.863-9.301c.644 0 1.245.127 1.801.381.557.244 1.045.61 1.465 1.098.42.479.752 1.065.996 1.758.254.684.381 1.455.381 2.314V197h-2.695v-8.101c0-.898-.259-1.621-.776-2.168-.508-.556-1.099-.835-1.773-.835-.683 0-1.279.279-1.787.835-.508.547-.762 1.27-.762 2.168V197h-2.71v-8.101c0-.898-.254-1.621-.761-2.168-.508-.556-1.104-.835-1.787-.835-.684 0-1.28.279-1.788.835-.507.547-.761 1.27-.761 2.168V197h-2.696v-13.506h1.949l.6 1.362c.244-.283.532-.537.864-.761.284-.176.63-.342 1.04-.498a3.69 3.69 0 011.392-.249c.645 0 1.196.112 1.655.337.459.214.85.454 1.172.717.362.323.669.674.923 1.055l.264-.322c.166-.205.42-.445.761-.718a5.48 5.48 0 011.26-.732c.498-.225 1.089-.337 1.773-.337zm13.506 0c.781 0 1.494.127 2.138.381a4.933 4.933 0 011.67 1.01 4.63 4.63 0 011.45 3.413V197h-1.948l-.6-1.348a4.18 4.18 0 01-.938.747 5.684 5.684 0 01-1.216.528c-.488.146-1.074.219-1.758.219-1.504 0-2.656-.371-3.457-1.113-.791-.752-1.186-1.728-1.186-2.929 0-.684.127-1.299.381-1.846.263-.557.708-1.026 1.333-1.406.634-.391 1.489-.694 2.563-.909 1.084-.224 2.456-.337 4.116-.337v-.454c0-.683-.214-1.23-.644-1.64-.43-.41-1.065-.616-1.904-.616-.899 0-1.553.162-1.963.484-.41.322-.655.713-.733 1.172h-2.695c.078-1.201.581-2.202 1.509-3.003.927-.801 2.221-1.201 3.882-1.201zm-1.04 11.396c1.142 0 2.026-.293 2.651-.879.625-.586.937-1.299.937-2.138v-.733c-1.201 0-2.172.059-2.915.176-.732.107-1.308.259-1.728.454-.42.186-.703.42-.85.703a2.046 2.046 0 00-.205.923c0 .381.181.728.542 1.04.361.303.884.454 1.568.454zm15.732-11.396c.156 0 .283.009.381.029.107.019.205.039.293.059l.234.058v2.71a4.514 4.514 0 00-.278-.058c-.098-.02-.2-.04-.308-.059a1.23 1.23 0 00-.322-.044c-.459 0-.889.093-1.289.278-.4.176-.752.415-1.055.718a3.56 3.56 0 00-.703 1.055c-.166.4-.249.82-.249 1.26V197h-2.695v-13.506h1.948l.601 1.362c.244-.283.532-.537.864-.761a5.759 5.759 0 011.069-.498c.43-.166.933-.249 1.509-.249zm7.192 9.155c0 .596.201 1.094.601 1.494.4.4.898.601 1.494.601.098 0 .2-.005.308-.015.117-.01.224-.024.322-.044.098-.019.19-.049.278-.088v2.403a1.984 1.984 0 01-.425.146 3.48 3.48 0 01-1.069.146 4.31 4.31 0 01-1.67-.322 4.118 4.118 0 01-2.226-2.387c-.205-.567-.308-1.211-.308-1.934v-6.46h-2.402v-2.549h1.054c.518 0 .948-.166 1.289-.498.342-.342.513-.771.513-1.289v-1.802h2.241v3.589h3.003v2.549h-3.003v6.46zm-182.563 33.546a7.475 7.475 0 01-.747 2.021 5.953 5.953 0 01-1.304 1.612 5.914 5.914 0 01-1.787 1.084 6.02 6.02 0 01-2.168.38 6.38 6.38 0 01-2.52-.498 6.555 6.555 0 01-2.065-1.42 6.703 6.703 0 01-1.377-2.183c-.322-.84-.483-1.773-.483-2.798 0-1.016.161-1.943.483-2.783a6.521 6.521 0 011.377-2.168 6.457 6.457 0 012.065-1.436 6.235 6.235 0 012.52-.512c.781 0 1.504.131 2.168.395a5.54 5.54 0 011.787 1.084 5.655 5.655 0 011.289 1.626 7.64 7.64 0 01.762 1.992h-2.857c-.224-.761-.595-1.377-1.113-1.845-.517-.469-1.196-.704-2.036-.704a3.28 3.28 0 00-1.406.323c-.459.205-.86.503-1.201.893a4.782 4.782 0 00-.835 1.392 4.77 4.77 0 00-.308 1.743c0 .645.103 1.231.308 1.758.214.527.493.986.835 1.377.341.39.742.693 1.201.908.459.205.927.308 1.406.308.84 0 1.519-.235 2.036-.703.527-.469.899-1.084 1.113-1.846h2.857zm12.158-1.802c0-.644-.107-1.23-.322-1.758a4.607 4.607 0 00-.821-1.377 3.452 3.452 0 00-1.201-.893 3.28 3.28 0 00-1.406-.323c-.478 0-.947.108-1.406.323-.459.205-.86.503-1.201.893-.342.391-.62.855-.835 1.392a4.77 4.77 0 00-.308 1.743c0 .645.103 1.231.308 1.758.215.527.493.986.835 1.377.341.39.742.693 1.201.908.459.205.928.308 1.406.308.479 0 .947-.103 1.406-.308.459-.215.86-.518 1.201-.908.342-.391.616-.85.821-1.377a4.614 4.614 0 00.322-1.758zm2.695 0c0 1.016-.166 1.948-.498 2.798a6.387 6.387 0 01-1.377 2.183 6.38 6.38 0 01-2.05 1.42 6.38 6.38 0 01-2.52.498 6.372 6.372 0 01-2.519-.498 6.548 6.548 0 01-2.066-1.42 6.703 6.703 0 01-1.377-2.183c-.322-.84-.483-1.773-.483-2.798 0-1.016.161-1.943.483-2.783a6.521 6.521 0 011.377-2.168 6.45 6.45 0 012.066-1.436 6.227 6.227 0 012.519-.512c.898 0 1.738.171 2.52.512a6.287 6.287 0 012.05 1.436 6.22 6.22 0 011.377 2.168c.332.84.498 1.767.498 2.783zm9.302-6.899c.742 0 1.441.146 2.095.439a5.38 5.38 0 011.728 1.201 5.548 5.548 0 011.158 1.846c.283.713.424 1.504.424 2.373V231h-2.695v-7.793c0-.439-.088-.859-.264-1.26a3.346 3.346 0 00-1.699-1.772 2.703 2.703 0 00-1.201-.279 3.02 3.02 0 00-1.289.279c-.4.176-.752.415-1.055.718a3.555 3.555 0 00-.703 1.054 3.19 3.19 0 00-.249 1.26V231h-2.695v-13.506h1.948l.601 1.362c.263-.283.571-.537.923-.761a7.022 7.022 0 011.215-.498c.489-.166 1.075-.249 1.758-.249zm12.744 9.155c0 .596.2 1.094.601 1.494.4.4.898.601 1.494.601.098 0 .2-.005.308-.015.117-.01.224-.024.322-.044.098-.019.19-.049.278-.088v2.403a1.984 1.984 0 01-.425.146 3.48 3.48 0 01-1.069.146 4.31 4.31 0 01-1.67-.322 4.118 4.118 0 01-2.226-2.387c-.206-.567-.308-1.211-.308-1.934v-6.46h-2.402v-2.549h1.054c.518 0 .948-.166 1.289-.498.342-.342.513-.771.513-1.289v-1.802h2.241v3.589h3.003v2.549h-3.003v6.46zm12.144-9.155c.156 0 .283.009.381.029.107.019.205.039.293.059l.234.058v2.71a4.514 4.514 0 00-.278-.058c-.098-.02-.2-.04-.308-.059a1.23 1.23 0 00-.322-.044c-.459 0-.889.093-1.289.278a3.42 3.42 0 00-1.055.718 3.56 3.56 0 00-.703 1.055c-.166.4-.249.82-.249 1.26V231h-2.695v-13.506h1.948l.6 1.362c.245-.283.533-.537.865-.761a5.759 5.759 0 011.069-.498c.43-.166.933-.249 1.509-.249zm8.393 0c.782 0 1.495.127 2.139.381a4.943 4.943 0 011.67 1.01 4.63 4.63 0 011.45 3.413V231h-1.948l-.601-1.348a4.153 4.153 0 01-.937.747 5.684 5.684 0 01-1.216.528c-.488.146-1.074.219-1.758.219-1.504 0-2.656-.371-3.457-1.113-.791-.752-1.186-1.728-1.186-2.929 0-.684.127-1.299.381-1.846.263-.557.708-1.026 1.333-1.406.634-.391 1.489-.694 2.563-.909 1.084-.224 2.456-.337 4.116-.337v-.454c0-.683-.215-1.23-.644-1.64-.43-.41-1.065-.616-1.905-.616-.898 0-1.552.162-1.963.484-.41.322-.654.713-.732 1.172h-2.695c.078-1.201.581-2.202 1.509-3.003.927-.801 2.221-1.201 3.881-1.201zm-1.04 11.396c1.143 0 2.027-.293 2.652-.879.625-.586.937-1.299.937-2.138v-.733c-1.201 0-2.173.059-2.915.176-.732.107-1.308.259-1.728.454-.42.186-.703.42-.85.703a2.033 2.033 0 00-.205.923c0 .381.181.728.542 1.04.361.303.884.454 1.567.454zm21.446-2.695a7.542 7.542 0 01-.747 2.021 5.953 5.953 0 01-1.304 1.612 5.926 5.926 0 01-1.787 1.084 6.02 6.02 0 01-2.168.38 6.377 6.377 0 01-2.52-.498 6.555 6.555 0 01-2.065-1.42 6.703 6.703 0 01-1.377-2.183c-.322-.84-.484-1.773-.484-2.798 0-1.016.162-1.943.484-2.783a6.521 6.521 0 011.377-2.168 6.457 6.457 0 012.065-1.436 6.232 6.232 0 012.52-.512c.781 0 1.504.131 2.168.395a5.55 5.55 0 011.787 1.084 5.655 5.655 0 011.289 1.626 7.64 7.64 0 01.762 1.992h-2.857c-.224-.761-.595-1.377-1.113-1.845-.518-.469-1.196-.704-2.036-.704a3.28 3.28 0 00-1.406.323c-.459.205-.86.503-1.202.893-.341.391-.62.855-.835 1.392a4.77 4.77 0 00-.307 1.743c0 .645.102 1.231.307 1.758.215.527.494.986.835 1.377.342.39.743.693 1.202.908.459.205.927.308 1.406.308.84 0 1.518-.235 2.036-.703.527-.469.898-1.084 1.113-1.846h2.857zm6.606.454c0 .596.2 1.094.601 1.494.4.4.898.601 1.494.601.097 0 .2-.005.307-.015.118-.01.225-.024.323-.044.097-.019.19-.049.278-.088v2.403a1.984 1.984 0 01-.425.146 3.484 3.484 0 01-1.069.146 4.31 4.31 0 01-1.67-.322 4.118 4.118 0 01-1.333-.937 4.285 4.285 0 01-.894-1.45c-.205-.567-.307-1.211-.307-1.934v-6.46h-2.403v-2.549h1.055c.518 0 .947-.166 1.289-.498.342-.342.513-.771.513-1.289v-1.802h2.241v3.589h3.003v2.549h-3.003v6.46zm7.808.146c.078.596.307 1.07.688 1.421.381.352.952.528 1.714.528.84 0 1.45-.157 1.831-.469.381-.322.571-.713.571-1.172 0-.4-.18-.703-.542-.908-.361-.215-.81-.391-1.347-.528a46.247 46.247 0 00-1.729-.439 8 8 0 01-1.714-.644 4.16 4.16 0 01-1.333-1.128c-.361-.469-.542-1.104-.542-1.905 0-.556.108-1.079.323-1.567a4 4 0 01.937-1.304 4.222 4.222 0 011.45-.864c.577-.215 1.226-.322 1.949-.322 1.582 0 2.778.381 3.588 1.142.821.762 1.275 1.782 1.363 3.062h-2.71a1.95 1.95 0 00-.674-1.172c-.371-.322-.894-.484-1.567-.484-.684 0-1.206.157-1.568.469-.361.313-.542.659-.542 1.04 0 .401.181.708.542.923.362.205.806.376 1.333.513l1.729.439a7.107 7.107 0 011.714.645c.537.273.986.649 1.347 1.128.362.468.542 1.103.542 1.904 0 1.201-.429 2.202-1.289 3.003-.859.791-2.08 1.186-3.662 1.186-1.66 0-2.905-.39-3.735-1.171-.83-.782-1.284-1.89-1.363-3.326h2.696zm-96.607 141.455c.821 0 1.592.161 2.315.483a5.855 5.855 0 011.904 1.289 5.855 5.855 0 011.289 1.904c.322.723.483 1.494.483 2.315 0 .82-.161 1.596-.483 2.329a5.855 5.855 0 01-1.289 1.904 6.185 6.185 0 01-1.904 1.289 5.624 5.624 0 01-2.315.484h-4.057V387h-2.842v-18.896h6.899zm0 9.301c.42 0 .816-.083 1.187-.249a3.346 3.346 0 001.699-1.772 3.17 3.17 0 00.264-1.289c0-.44-.088-.86-.264-1.26a3.173 3.173 0 00-.688-1.04 3.346 3.346 0 00-1.011-.718 2.626 2.626 0 00-1.187-.278h-4.057v6.606h4.057zm14.839-4.057c.156 0 .283.009.381.029.107.019.205.039.293.059l.234.058v2.71a4.514 4.514 0 00-.278-.058c-.098-.02-.2-.04-.308-.059a1.225 1.225 0 00-.322-.044c-.459 0-.889.093-1.289.278-.4.176-.752.415-1.055.718a3.56 3.56 0 00-.703 1.055c-.166.4-.249.82-.249 1.26V387h-2.695v-13.506h1.948l.601 1.362c.244-.283.532-.537.864-.761a5.79 5.79 0 011.069-.498c.43-.166.933-.249 1.509-.249zm14.854 9.756a7.857 7.857 0 01-.85 1.567 5.94 5.94 0 01-1.23 1.289 5.683 5.683 0 01-1.67.879c-.625.205-1.328.307-2.11.307a6.372 6.372 0 01-2.519-.498 6.385 6.385 0 01-2.051-1.42 6.703 6.703 0 01-1.377-2.183c-.332-.84-.498-1.773-.498-2.798 0-1.016.166-1.943.498-2.783a6.77 6.77 0 011.348-2.168 6.002 6.002 0 012.007-1.436 5.98 5.98 0 012.446-.512c.859 0 1.675.171 2.446.512a6.002 6.002 0 012.007 1.436 6.787 6.787 0 011.348 2.168c.332.84.498 1.767.498 2.783 0 .156-.01.313-.03.469a8.612 8.612 0 01-.058.381 6.49 6.49 0 01-.059.351h-9.609c.039.42.161.821.366 1.201.205.381.459.718.762 1.011.312.283.683.513 1.113.689.43.166.884.249 1.362.249.821 0 1.47-.176 1.949-.528.488-.351.839-.674 1.054-.966h2.857zm-6.006-7.208c-.899 0-1.66.308-2.285.923-.616.606-1.006 1.402-1.172 2.388h7.207c-.156-.977-.557-1.772-1.201-2.388-.635-.615-1.485-.923-2.549-.923zm11.103 6.753c.078.596.308 1.07.689 1.421.381.352.952.528 1.714.528.84 0 1.45-.157 1.831-.469.381-.322.571-.713.571-1.172 0-.4-.181-.703-.542-.908-.361-.215-.811-.391-1.348-.528a45.678 45.678 0 00-1.728-.439 7.98 7.98 0 01-1.714-.644 4.15 4.15 0 01-1.333-1.128c-.361-.469-.542-1.104-.542-1.905 0-.556.107-1.079.322-1.567.225-.498.537-.933.938-1.304.4-.371.884-.659 1.45-.864.576-.215 1.226-.322 1.948-.322 1.582 0 2.778.381 3.589 1.142.82.762 1.274 1.782 1.362 3.062h-2.71a1.949 1.949 0 00-.673-1.172c-.372-.322-.894-.484-1.568-.484-.683 0-1.206.157-1.567.469-.362.313-.542.659-.542 1.04 0 .401.18.708.542.923.361.205.805.376 1.333.513l1.728.439a7.076 7.076 0 011.714.645c.537.273.987.649 1.348 1.128.361.468.542 1.103.542 1.904 0 1.201-.43 2.202-1.289 3.003-.86.791-2.08 1.186-3.662 1.186-1.66 0-2.906-.39-3.736-1.171-.83-.782-1.284-1.89-1.362-3.326h2.695zm12.159 0c.078.596.307 1.07.688 1.421.381.352.952.528 1.714.528.84 0 1.45-.157 1.831-.469.381-.322.571-.713.571-1.172 0-.4-.18-.703-.542-.908-.361-.215-.81-.391-1.347-.528a46.247 46.247 0 00-1.729-.439 8 8 0 01-1.714-.644 4.15 4.15 0 01-1.333-1.128c-.361-.469-.542-1.104-.542-1.905 0-.556.108-1.079.322-1.567.225-.498.538-.933.938-1.304.4-.371.884-.659 1.45-.864.576-.215 1.226-.322 1.948-.322 1.582 0 2.779.381 3.589 1.142.821.762 1.275 1.782 1.363 3.062h-2.71a1.955 1.955 0 00-.674-1.172c-.371-.322-.894-.484-1.568-.484-.683 0-1.206.157-1.567.469-.361.313-.542.659-.542 1.04 0 .401.181.708.542.923.361.205.806.376 1.333.513l1.729.439a7.084 7.084 0 011.713.645c.537.273.987.649 1.348 1.128.361.468.542 1.103.542 1.904 0 1.201-.43 2.202-1.289 3.003-.859.791-2.08 1.186-3.662 1.186-1.66 0-2.905-.39-3.735-1.171-.831-.782-1.285-1.89-1.363-3.326h2.696zm22.5 4.497a6.374 6.374 0 01-2.52-.498 6.544 6.544 0 01-2.065-1.42 6.703 6.703 0 01-1.377-2.183c-.323-.84-.484-1.773-.484-2.798 0-1.016.161-1.943.484-2.783a6.521 6.521 0 011.377-2.168 6.446 6.446 0 012.065-1.436 6.229 6.229 0 012.52-.512c.644 0 1.196.083 1.655.249.459.156.849.322 1.172.498.361.224.669.478.923.761v-6.752h2.695V387h-1.948l-.601-1.348a4.3 4.3 0 01-.923.747 5.662 5.662 0 01-1.216.528c-.488.146-1.074.219-1.757.219zm.146-11.25c-.518 0-1.011.108-1.479.323a3.722 3.722 0 00-1.246.893 4.486 4.486 0 00-.864 1.392 4.77 4.77 0 00-.307 1.743c0 .645.102 1.231.307 1.758.215.527.503.986.864 1.377.362.39.777.693 1.246.908.468.205.961.308 1.479.308.518 0 1.011-.103 1.479-.308a3.705 3.705 0 001.246-.908 4.31 4.31 0 00.849-1.377 4.614 4.614 0 00.322-1.758c0-.644-.107-1.23-.322-1.758a4.31 4.31 0 00-.849-1.377 3.534 3.534 0 00-1.246-.893 3.502 3.502 0 00-1.479-.323zm21.768 7.208a7.857 7.857 0 01-.85 1.567 5.94 5.94 0 01-1.23 1.289 5.683 5.683 0 01-1.67.879c-.625.205-1.329.307-2.11.307a6.372 6.372 0 01-2.519-.498 6.374 6.374 0 01-2.051-1.42 6.703 6.703 0 01-1.377-2.183c-.332-.84-.498-1.773-.498-2.798 0-1.016.166-1.943.498-2.783a6.77 6.77 0 011.348-2.168 6.008 6.008 0 012.006-1.436 5.988 5.988 0 012.447-.512 6.022 6.022 0 014.453 1.948 6.785 6.785 0 011.347 2.168c.333.84.499 1.767.499 2.783 0 .156-.01.313-.03.469a8.612 8.612 0 01-.058.381 6.49 6.49 0 01-.059.351h-9.609c.039.42.161.821.366 1.201.205.381.459.718.762 1.011.312.283.683.513 1.113.689.43.166.884.249 1.362.249.821 0 1.47-.176 1.948-.528.489-.351.84-.674 1.055-.966h2.857zm-6.006-7.208c-.899 0-1.66.308-2.285.923-.616.606-1.006 1.402-1.172 2.388h7.207c-.157-.977-.557-1.772-1.201-2.388-.635-.615-1.485-.923-2.549-.923zm15.6-2.548a6.229 6.229 0 014.571 1.948 6.414 6.414 0 011.391 2.168c.332.84.498 1.767.498 2.783s-.166 1.948-.498 2.798a6.59 6.59 0 01-1.391 2.183 6.385 6.385 0 01-2.051 1.42 6.374 6.374 0 01-2.52.498c-.644 0-1.196-.073-1.655-.219a4.74 4.74 0 01-1.157-.528 4.8 4.8 0 01-.938-.747v6.153h-2.695v-18.311h1.948l.601 1.362c.263-.283.571-.537.923-.761a7.022 7.022 0 011.215-.498c.489-.166 1.075-.249 1.758-.249zm-.146 11.25a3.65 3.65 0 001.479-.308 3.899 3.899 0 001.245-.908c.362-.391.645-.85.85-1.377a4.614 4.614 0 00.322-1.758c0-.644-.107-1.23-.322-1.758a4.295 4.295 0 00-.85-1.377 3.709 3.709 0 00-1.245-.893 3.506 3.506 0 00-1.479-.323c-.518 0-1.016.108-1.494.323a3.709 3.709 0 00-1.245.893 4.628 4.628 0 00-.85 1.392 4.77 4.77 0 00-.308 1.743c0 .645.103 1.231.308 1.758.215.527.498.986.85 1.377.361.39.776.693 1.245.908.478.205.976.308 1.494.308zM232.271 387h-2.696v-18.896h2.696V387zm13.198-6.753c0-.644-.108-1.23-.323-1.758a4.604 4.604 0 00-.82-1.377 3.461 3.461 0 00-1.201-.893 3.284 3.284 0 00-1.406-.323c-.479 0-.948.108-1.407.323a3.47 3.47 0 00-1.201.893c-.341.391-.62.855-.835 1.392a4.77 4.77 0 00-.307 1.743c0 .645.102 1.231.307 1.758.215.527.494.986.835 1.377.342.39.743.693 1.201.908.459.205.928.308 1.407.308.478 0 .947-.103 1.406-.308a3.635 3.635 0 001.201-.908c.342-.391.615-.85.82-1.377a4.614 4.614 0 00.323-1.758zm2.695 0c0 1.016-.166 1.948-.498 2.798a6.387 6.387 0 01-1.377 2.183 6.374 6.374 0 01-2.051 1.42 6.372 6.372 0 01-2.519.498 6.374 6.374 0 01-2.52-.498 6.544 6.544 0 01-2.065-1.42 6.703 6.703 0 01-1.377-2.183c-.322-.84-.484-1.773-.484-2.798 0-1.016.162-1.943.484-2.783a6.521 6.521 0 011.377-2.168 6.446 6.446 0 012.065-1.436 6.229 6.229 0 012.52-.512 6.227 6.227 0 014.57 1.948 6.22 6.22 0 011.377 2.168c.332.84.498 1.767.498 2.783zm1.348-6.753h2.856l3.75 9.756 3.75-9.756h2.857l-5.713 14.4a14.891 14.891 0 01-.894 1.904c-.283.517-.596.932-.937 1.245a2.897 2.897 0 01-1.114.688c-.41.147-.874.22-1.391.22-.117 0-.23-.005-.337-.014a3.29 3.29 0 01-.293-.044 1.326 1.326 0 01-.278-.088v-2.256c.761 0 1.337-.161 1.728-.484.391-.312.664-.703.82-1.171l.455-1.348-5.259-13.052zM43.12 25.84V46h-4.64V31.6l-2.08 1.44-2.24-3.52 5.28-3.68h3.68zm3.92 183.68V214H33.12v-3.2l7.36-7.68c.32-.341.608-.693.864-1.056.235-.299.437-.64.608-1.024.192-.384.288-.757.288-1.12 0-.64-.192-1.141-.576-1.504-.384-.384-.939-.576-1.664-.576-.81 0-1.44.224-1.888.672-.448.448-.672 1.077-.672 1.888l-4.48-.32c0-.917.16-1.76.48-2.528a6.27 6.27 0 011.408-2.048 6.6 6.6 0 012.208-1.344c.875-.32 1.856-.48 2.944-.48 1.11 0 2.101.149 2.976.448.875.299 1.61.725 2.208 1.28a4.906 4.906 0 011.376 1.92c.32.747.48 1.557.48 2.432a5 5 0 01-.512 2.208c-.32.683-.683 1.291-1.088 1.824a12.162 12.162 0 01-1.6 1.728l-3.84 4h7.04zM32.8 373.44a5.5 5.5 0 01.576-2.176 5.786 5.786 0 011.472-1.824c.619-.533 1.355-.96 2.208-1.28.875-.32 1.856-.48 2.944-.48 1.088 0 2.059.16 2.912.48.875.299 1.61.715 2.208 1.248a5.147 5.147 0 011.408 1.792 4.48 4.48 0 01.512 2.08c0 .725-.15 1.355-.448 1.888a5.491 5.491 0 01-.928 1.28 5.767 5.767 0 01-1.344.992c.597.277 1.13.64 1.6 1.088.405.384.768.896 1.088 1.536.341.64.512 1.419.512 2.336a5 5 0 01-.512 2.208c-.32.683-.8 1.291-1.44 1.824-.619.512-1.387.928-2.304 1.248-.917.32-1.952.48-3.104.48-1.152 0-2.187-.16-3.104-.48-.917-.32-1.696-.747-2.336-1.28a5.947 5.947 0 01-1.504-1.856 6.112 6.112 0 01-.576-2.304l4.64-.32c.085.555.352 1.045.8 1.472.47.405 1.11.608 1.92.608.896 0 1.568-.213 2.016-.64.47-.427.704-.96.704-1.6 0-.555-.245-1.035-.736-1.44-.47-.427-1.184-.64-2.144-.64h-1.92v-3.84h1.92c.896 0 1.547-.181 1.952-.544.405-.363.608-.821.608-1.376 0-.555-.224-1.035-.672-1.44-.448-.427-1.077-.64-1.888-.64-.725 0-1.29.181-1.696.544a2.32 2.32 0 00-.704 1.376l-4.64-.32z" fill="#fff"/><circle cx="40" cy="40" r="39.5" stroke="#DC2C2C"/><circle cx="40" cy="208" r="39.5" stroke="#DC2C2C"/><circle cx="40" cy="381" r="39.5" stroke="#DC2C2C"/><path d="M40 147.5l5.773-10H34.227l5.774 10zm-1-56v47h2v-47h-2zM40 310l5.773-10H34.227L40 310zm-1-56v47h2v-47h-2z" fill="#DC2C2C"/></svg>