<svg width="72" height="72" fill="none" xmlns="http://www.w3.org/2000/svg"><circle cx="36" cy="36" r="34.5" stroke="#DC2C2C" stroke-width="3"/><circle cx="36" cy="36" r="34.5" stroke="#DC2C2C" stroke-width="3"/><path d="M29.438 43.438c4.078 0 7.837-3.504 9.145-5.011a.936.936 0 000-1.229c-1.308-1.507-5.067-5.01-9.145-5.01-4.079 0-7.9 3.503-9.208 5.01a.935.935 0 000 1.229c1.308 1.507 5.13 5.01 9.208 5.01zm0-8.438a2.816 2.816 0 012.812 2.813 2.816 2.816 0 01-2.812 2.812 2.816 2.816 0 01-2.813-2.813A2.816 2.816 0 0129.438 35z" fill="#fff"/><path d="M29.438 38.75a.938.938 0 10-.002-1.876.938.938 0 00.002 1.876zm16.937-13.125h5.076l-5.076-5.076v5.076z" fill="#fff"/><path d="M52 27.5h-6.563a.937.937 0 01-.937-.938V20h-16a.937.937 0 00-.938.938v9.572a9.495 9.495 0 011.875-.198c.64 0 1.266.075 1.875.198v-.198c0-.518.42-.937.938-.937h15.063c.518 0 .937.42.937.938v15c0 .518-.42.937-.938.937H32.25a.937.937 0 01-.938-.938v-.197a9.495 9.495 0 01-1.875.197c-.64 0-1.265-.074-1.875-.197v5.947c0 .519.42.938.938.938h22.563c.518 0 .937-.42.937-.938V27.5zm-10.313 0H32.25a.937.937 0 110-1.875h9.438a.937.937 0 110 1.875z" fill="#fff"/><path d="M33.64 44.375h12.736V31.25H33.641c3.466 1.494 5.993 4.297 6.359 4.72a2.821 2.821 0 01-.002 3.687c-.365.421-2.89 3.224-6.357 4.718z" fill="#fff"/></svg>