<svg width="54" height="54" fill="none" xmlns="http://www.w3.org/2000/svg"><rect width="54" height="54" rx="12" fill="#DC2C2C"/><g clip-path="url(#a)" fill="#fff"><path d="M40.409 19.24c-.017-.864-.032-1.68-.032-2.47a1.12 1.12 0 00-1.12-1.12c-4.79 0-8.438-1.377-11.478-4.333a1.12 1.12 0 00-1.561 0c-3.04 2.956-6.687 4.333-11.477 4.333a1.12 1.12 0 00-1.12 1.12c0 .79-.015 1.606-.032 2.47-.153 8.04-.364 19.051 13.043 23.698a1.12 1.12 0 00.733 0C40.772 38.291 40.562 27.28 40.41 19.24zm-13.41 21.45C15.5 36.515 15.675 27.365 15.829 19.283c.01-.485.018-.956.025-1.416 4.486-.19 8.073-1.55 11.145-4.225 3.071 2.676 6.66 4.035 11.146 4.225.006.46.015.93.024 1.415.154 8.083.328 17.232-11.17 21.41z"/><path d="M30.855 23.11l-5.406 5.405-2.307-2.307a1.12 1.12 0 00-1.584 1.584l3.1 3.099a1.117 1.117 0 001.583 0l6.198-6.198a1.12 1.12 0 10-1.584-1.584z"/></g><defs><clipPath id="a"><path fill="#fff" transform="translate(11 11)" d="M0 0h32v32H0z"/></clipPath></defs></svg>