<svg width="54" height="54" fill="none" xmlns="http://www.w3.org/2000/svg"><rect width="54" height="54" rx="12" fill="#DC2C2C"/><g clip-path="url(#a)"><path d="M41.083 24.299c.168-.174.285-.44.262-.687-.022-6.95-6.436-12.6-14.322-12.612H27c-3.801 0-7.39 1.324-10.104 3.727-1.324 1.173-2.366 2.537-3.097 4.055a11.374 11.374 0 00-1.146 4.937c-.012.34.17.67.463.841l10.407 6.097a.007.007 0 01-.003.013h-3.786a.944.944 0 00-.944.944v10.442c0 .521.423.944.944.944h14.53a.944.944 0 00.944-.944V31.614a.944.944 0 00-.944-.944H30.44c-.007 0-.01-.01-.004-.013l10.45-6.202a.939.939 0 00.197-.156zm-15.011 8.246h1.848c.003 0 .006.003.006.006v2.256a.007.007 0 01-.01.006l-.373-.253a.944.944 0 00-1.052-.003l-.409.271a.007.007 0 01-.01-.005v-2.278zm.94-19.67h.006c.569.004 1.459.77 2.257 2.908.535 1.433.92 3.226 1.117 5.146 0 .006-.005.01-.01.007-.94-.577-2.112-.912-3.368-.912-1.256 0-2.429.335-3.368.912a.007.007 0 01-.01-.006c.197-1.92.582-3.714 1.117-5.147.799-2.14 1.69-2.906 2.258-2.908zm3.426 10.712l-3.43 6.094a.007.007 0 01-.012 0l-3.407-6.093a.007.007 0 010-.007c.526-.993 1.893-1.683 3.425-1.683 1.531 0 2.898.69 3.424 1.682a.007.007 0 010 .007zm-8.707.52l2.755 4.927c.004.006-.003.013-.009.01l-9.68-5.672a.007.007 0 01-.002-.01c.602-.866 1.885-1.463 3.29-1.463 1.7 0 3.199.85 3.567 2.021a.91.91 0 00.079.186zm10.645-.187c.369-1.172 1.867-2.022 3.568-2.022 1.371 0 2.611.554 3.233 1.383a.007.007 0 01-.002.01l-9.617 5.708a.007.007 0 01-.01-.01l2.748-4.88a1.179 1.179 0 00.08-.189zm6.642-3.153a6.545 6.545 0 00-3.074-.744c-1.381 0-2.661.406-3.642 1.092a.006.006 0 01-.01-.005c-.276-3.056-1.009-5.97-2.156-7.878a.007.007 0 01.008-.01c4.29.966 7.689 3.862 8.874 7.545zm-20.88-4.636c1.617-1.431 3.594-2.424 5.747-2.91a.007.007 0 01.007.009c-1.148 1.908-1.88 4.823-2.156 7.88a.006.006 0 01-.01.005c-.98-.686-2.26-1.091-3.642-1.091-1.106 0-2.155.252-3.06.734a.007.007 0 01-.009-.008c.572-1.716 1.634-3.3 3.124-4.619zm15.195 24.994H20.672a.007.007 0 01-.007-.007v-8.567c0-.003.003-.006.007-.006h3.518c.004 0 .007.003.007.006v4.002c0 .332.16.652.44.827a.938.938 0 001.017-.015l1.352-.9a.007.007 0 01.008 0l1.325.896a.938.938 0 001.101-.037.97.97 0 00.361-.77v-4.003c0-.004.003-.007.007-.007h3.518c.004 0 .007.004.007.007v8.574z" fill="#fff"/></g><defs><clipPath id="a"><path fill="#fff" transform="translate(11 11)" d="M0 0h32v32H0z"/></clipPath></defs></svg>