<svg width="26" height="26" fill="none" xmlns="http://www.w3.org/2000/svg"><rect width="26" height="26" rx="12" fill="#DC2C2C"/><path d="M13 7.286a1.373 1.373 0 000 2.743 1.373 1.373 0 000-2.743zm0 1.84a.47.47 0 11.001-.938.47.47 0 010 .938z" fill="#fff"/><path d="M19.29 10.202c-.623 0-1.152.404-1.34.963h-1.07a4.15 4.15 0 00.326-1.608v-.02h1.342a.451.451 0 00.4-.242l.629-1.2a1.417 1.417 0 001.126-1.384 1.416 1.416 0 00-2.829 0c0 .541.306 1.012.754 1.25l-.353.673h-1.173a4.147 4.147 0 00-4.036-3.216 4.147 4.147 0 00-4.035 3.216H7.724L7.37 7.96a1.415 1.415 0 00-.66-2.665c-.78 0-1.415.635-1.415 1.415 0 .68.484 1.25 1.126 1.384l.63 1.2a.451.451 0 00.399.241h1.477v.021c0 .565.116 1.109.328 1.608H8.05a1.417 1.417 0 00-1.34-.963c-.78 0-1.415.634-1.415 1.414 0 .78.635 1.415 1.415 1.415.622 0 1.15-.404 1.34-.963h1.73a4.137 4.137 0 001.84 1.369v1.772h-.91a.451.451 0 00-.45.451v1.886l-.001.004v1.763c0 .249.202.451.451.451h.91v.488c0 .25.202.452.452.452h1.856c.25 0 .452-.202.452-.452v-6.768a4.167 4.167 0 001.98-1.416h1.59c.188.559.717.963 1.34.963a1.416 1.416 0 000-2.829zm0-4.003a.512.512 0 11-.002 1.024.512.512 0 01.001-1.024zm-12.58 0a.512.512 0 110 1.024.512.512 0 010-1.024zm0 5.929a.512.512 0 11.002-1.025.512.512 0 01-.001 1.025zm7.113.577a.451.451 0 00-.346.44V19.8h-.954v-.488a.451.451 0 00-.451-.452h-.91V18h.604a.451.451 0 000-.902h-.604v-.987h.91a.451.451 0 00.451-.452v-2.55a.451.451 0 00-.33-.435 3.247 3.247 0 01-2.362-3.118 3.24 3.24 0 013.237-3.237 3.24 3.24 0 013.236 3.237c.027 1.448-1.054 2.824-2.48 3.148zm5.466-.577a.512.512 0 11.002-1.025.512.512 0 01-.002 1.025z" fill="#fff"/></svg>