<svg width="26" height="26" fill="none" xmlns="http://www.w3.org/2000/svg"><rect width="26" height="26" rx="12" fill="#DC2C2C"/><g clip-path="url(#a)" fill="#fff"><path d="M11.972 17.943A5.702 5.702 0 016.5 12.23a5.724 5.724 0 015.718-5.717c2.658 0 5.005 1.88 5.581 4.471a.602.602 0 101.175-.261 6.947 6.947 0 00-2.397-3.869 6.936 6.936 0 00-4.36-1.545 6.88 6.88 0 00-4.894 2.027 6.876 6.876 0 00-2.027 4.894c0 1.797.686 3.5 1.93 4.796a6.886 6.886 0 004.721 2.12.602.602 0 00.025-1.203z"/><path d="M12.217 7.72a.602.602 0 00-.602.603v3.658L9.67 13.925a.602.602 0 00.85.851l2.121-2.12a.601.601 0 00.177-.426V8.323a.602.602 0 00-.602-.602zm7.248 5.062c-.627-.256-1.448-.397-2.312-.397-.864 0-1.685.141-2.313.397-1.077.44-1.238 1.072-1.238 1.409v4.694c0 .337.16.969 1.238 1.409.628.256 1.449.397 2.313.397.864 0 1.685-.141 2.313-.397 1.077-.44 1.238-1.072 1.238-1.409v-4.694c0-.337-.161-.969-1.239-1.409zm.035 6.084c-.1.185-.909.621-2.347.621-1.439 0-2.248-.436-2.347-.62v-.965l.034.014c.628.256 1.449.398 2.313.398.208 0 .417-.009.62-.025a.602.602 0 00-.097-1.2c-.17.014-.347.02-.523.02-1.44 0-2.248-.435-2.347-.62v-.904l.034.014c.628.256 1.449.397 2.313.397.208 0 .417-.008.62-.024a.602.602 0 10-.097-1.2 6.54 6.54 0 01-.523.02c-1.392 0-2.194-.407-2.335-.601.141-.194.944-.602 2.335-.602 1.438 0 2.248.436 2.347.621v4.656z"/></g><defs><clipPath id="a"><path fill="#fff" transform="translate(5.296 5.296)" d="M0 0h15.407v15.407H0z"/></clipPath></defs></svg>