<svg width="26" height="26" fill="none" xmlns="http://www.w3.org/2000/svg"><rect width="26" height="26" rx="12" fill="#DC2C2C"/><g clip-path="url(#a)"><path d="M19.78 11.7a.443.443 0 00.127-.331c-.01-3.347-3.099-6.067-6.896-6.072h-.012c-1.83 0-3.557.637-4.864 1.794a6.192 6.192 0 00-1.491 1.952 5.477 5.477 0 00-.552 2.377.456.456 0 00.223.405l5.01 2.936c.004.002.003.006 0 .006H9.501a.455.455 0 00-.455.455v5.027c0 .251.204.455.455.455h6.995a.455.455 0 00.455-.455v-5.027a.455.455 0 00-.455-.455h-1.84c-.004 0-.005-.004-.002-.006l5.031-2.986a.456.456 0 00.094-.075zm-7.227 3.97h.89c.002 0 .003.001.003.003v1.086a.003.003 0 01-.005.003l-.18-.122a.455.455 0 00-.506-.002l-.197.131c-.002.002-.005 0-.005-.002V15.67zm.452-9.47h.004c.273.001.702.37 1.086 1.4.258.69.443 1.553.538 2.477 0 .003-.002.005-.005.003a3.111 3.111 0 00-1.621-.439c-.605 0-1.17.162-1.622.44a.003.003 0 01-.005-.004c.095-.924.28-1.788.538-2.478.385-1.03.814-1.399 1.087-1.4zm1.65 5.157l-1.651 2.934a.003.003 0 01-.006 0l-1.64-2.934v-.003c.253-.478.911-.81 1.649-.81.737 0 1.395.332 1.648.81v.003zm-4.192.25l1.327 2.373c.001.002-.002.005-.005.004l-4.66-2.73a.003.003 0 01-.002-.005c.29-.418.908-.705 1.584-.705.819 0 1.54.409 1.718.973a.423.423 0 00.038.09zm5.125-.09c.178-.564.9-.973 1.718-.973.66 0 1.258.266 1.557.665a.003.003 0 01-.001.005l-4.63 2.748c-.003.002-.007-.001-.005-.004l1.323-2.35a.562.562 0 00.038-.09zM18.786 10a3.151 3.151 0 00-1.48-.358c-.665 0-1.281.195-1.753.525a.003.003 0 01-.005-.002c-.133-1.471-.486-2.874-1.038-3.793-.002-.002 0-.005.003-.005 2.066.465 3.703 1.86 4.273 3.633zM8.733 7.767A6.237 6.237 0 0111.5 6.365c.003 0 .005.003.004.005-.553.919-.906 2.322-1.039 3.794a.003.003 0 01-.005.002c-.472-.33-1.088-.525-1.753-.525-.533 0-1.038.122-1.473.354a.003.003 0 01-.004-.004c.275-.827.786-1.589 1.503-2.224zM16.05 19.8H9.953a.003.003 0 01-.003-.003v-4.125c0-.002.001-.003.003-.003h1.694c.002 0 .003.001.003.003V17.6a.451.451 0 00.701.391l.652-.433h.003l.639.43a.452.452 0 00.704-.387v-1.928c0-.002.001-.003.003-.003h1.694c.002 0 .003.001.003.003V19.8z" fill="#fff"/></g><defs><clipPath id="a"><path fill="#fff" transform="translate(5.296 5.296)" d="M0 0h15.407v15.407H0z"/></clipPath></defs></svg>