<svg width="62" height="62" fill="none" xmlns="http://www.w3.org/2000/svg"><path d="M25.159 12.697c.694-5.349 3.706-9.687 5.564-11.57A.43.43 0 0131.032 1a.43.43 0 01.308.127c1.859 1.883 4.87 6.221 5.565 11.57.696 5.363-2.16 8.99-4.698 9.92a.929.929 0 01-.32.054h-.248a.944.944 0 01-.32-.053c-2.595-.928-6.857-4.556-6.16-9.92z" fill="#4A9629"/><path d="M24.427 10.086l7.624 7.467c-4.212 2.055-13.733 5.024-16.24.47-2.506-4.553-3.028-9.416-2.976-11.279 0 0 5.274-.574 11.592 3.342z" fill="#8BC10F"/><path d="M37.9 10.086l-7.624 7.467c4.212 2.055 13.734 5.024 16.24.47 2.507-4.553 3.029-9.416 2.977-11.279 0 0-5.274-.574-11.593 3.342z" fill="#8BC10F"/><path d="M9.297 28.113l6.69-11.163a2.089 2.089 0 011.791-1.015h26.51c.735 0 1.415.385 1.792 1.015l6.69 11.163c.365.611.395 1.367.078 2.005l-14.79 29.724A2.089 2.089 0 0136.189 61h-10.31a2.089 2.089 0 01-1.87-1.158L9.218 30.118a2.089 2.089 0 01.079-2.005z" fill="#870C85"/></svg>