<svg width="64" height="64" fill="none" xmlns="http://www.w3.org/2000/svg"><path fill-rule="evenodd" clip-rule="evenodd" d="M17.06 20.392c2.748 0 4.976 2.285 4.976 5.105v12.608c0 2.82 2.229 5.106 4.977 5.106 2.749 0 4.977-2.286 4.977-5.106V25.497c0-2.82 2.228-5.105 4.977-5.105 2.748 0 4.977 2.285 4.977 5.105v11.705c.049.028.099.053.148.08v.823c0 2.82 1.783 5.106 4.53 5.106 2.75 0 4.977-2.286 4.977-5.106v-1.044s-.148-11.938-.742-15.294c-.595-3.357-2.526-5.425-5.051-8.172-2.526-2.746 1.337-9.07 6.388-5.56 5.05 3.509 7.614 7.965 8.467 13.732.87 5.87 1.337 16.227 1.337 16.227s-.198 3.711-.664 4.541c-1.882 6.265-7.557 10.816-14.266 10.816-3.86 0-7.378-1.507-10.028-3.98-2.65 2.473-6.168 3.98-10.028 3.98-6.709 0-12.383-4.551-14.266-10.816-.466-.83-.664-4.54-.664-4.54V25.496c.001-2.82 2.229-5.105 4.978-5.105z" fill="#FFD02F"/><path fill-rule="evenodd" clip-rule="evenodd" d="M46.94 43.51c-2.748 0-4.976-2.197-4.976-4.908V26.478c0-2.711-2.229-4.909-4.977-4.909-2.749 0-4.977 2.198-4.977 4.91v12.123c0 2.711-2.228 4.909-4.976 4.909-2.75 0-4.977-2.198-4.977-4.909v-2.768l-.149-8.256c0-.309.05-.282 0-.309v-.79c0-2.712-1.783-4.91-4.53-4.91-2.75 0-4.978 2.198-4.978 4.91v1.003s.149 11.48.743 14.707c.595 3.227 2.526 5.216 5.051 7.857 2.526 2.64-1.337 8.721-6.388 5.347-5.05-3.375-7.614-7.66-8.467-13.204-.87-5.646-1.337-15.604-1.337-15.604s.198-3.568.664-4.366c1.882-6.024 7.557-10.4 14.266-10.4a14.97 14.97 0 0110.028 3.826 14.968 14.968 0 0110.028-3.826c6.709 0 12.383 4.376 14.266 10.4.466.798.664 4.366.664 4.366v12.017c-.001 2.711-2.229 4.909-4.978 4.909z" fill="#4D525D"/></svg>