<svg width="64" height="64" fill="none" xmlns="http://www.w3.org/2000/svg"><path d="M43.866 8.482a17.906 17.906 0 0110.88 17.305c-12.227 0-24.455.103-36.682-.104a18.453 18.453 0 015.18-13.264 18.963 18.963 0 0120.622-3.937z" fill="#5FC0C1"/><path d="M43.348 55.112c.725 0 1.347.414 1.347.932 0 .519-.622.933-1.347.933H23.66c-.726 0-1.348-.414-1.348-.933 0-.518.622-.932 1.348-.932h19.688zM19.41 56.977a1.347 1.347 0 100-2.694 1.347 1.347 0 000 2.694zm11.812-4.974a1.347 1.347 0 100-2.694 1.347 1.347 0 000 2.694zm23.11-2.693a1.347 1.347 0 110 2.693H35.058a1.347 1.347 0 010-2.694h19.274zM5.937 47.03a1.347 1.347 0 100-2.695 1.347 1.347 0 000 2.694zm19.171-2.695a1.347 1.347 0 010 2.694H9.253a1.347 1.347 0 010-2.694h15.855zm35.545 0a1.347 1.347 0 110 2.694H29.152a1.347 1.347 0 110-2.694h31.5zm-5.908-4.974a1.347 1.347 0 010 2.695H16.093a1.347 1.347 0 010-2.695h38.652zm-42.902 2.695a1.347 1.347 0 100-2.695 1.347 1.347 0 000 2.695zm34.819-7.565a1.347 1.347 0 110 2.694H8.012a1.347 1.347 0 010-2.694h38.65zM3.347 37.185a1.347 1.347 0 100-2.694 1.347 1.347 0 000 2.694zm8.496-4.974a1.347 1.347 0 100-2.694 1.347 1.347 0 000 2.694zm46.634-2.652a1.347 1.347 0 110 2.694H16.406a1.347 1.347 0 110-2.694h42.07z" fill="#E1177C"/></svg>