<svg width="64" height="64" fill="none" xmlns="http://www.w3.org/2000/svg"><path d="M60.362 28.89c-.167-.084-4.386-2.338-7.979-.25-2.882 1.67-3.425 4.967-3.55 6.345l-1.338.752c-.668-.627-1.545-1.044-2.548-1.044-1.002 0-1.88.376-2.548 1.044l-6.016-3.507c.084-.293.126-.585.126-.877 0-1.67-1.128-3.09-2.632-3.507v-2.171c1.754-1.128 7.352-5.26 7.352-11.816 0-7.598-7.52-12.316-7.853-12.525L32.833 1l-.544.334c-.334.209-7.853 4.927-7.853 12.525 0 6.555 5.598 10.647 7.352 11.816v2.17c-1.546.418-2.632 1.838-2.632 3.508 0 .292.042.584.126.877l-6.058 3.507c-.668-.627-1.545-1.044-2.548-1.044A3.68 3.68 0 0017 38.367c0 1.67 1.128 3.09 2.632 3.507v7.265C18.128 49.598 17 50.976 17 52.646a3.68 3.68 0 003.676 3.674 3.6 3.6 0 002.716-1.21l5.89 3.38a3.179 3.179 0 00-.126.878c0 2.004 1.63 3.632 3.677 3.632 2.005 0 3.676-1.628 3.676-3.632 0-.293-.042-.585-.126-.877l5.89-3.382a3.6 3.6 0 002.716 1.21 3.68 3.68 0 003.676-3.673c0-1.67-1.128-3.09-2.632-3.507v-7.265c1.504-.46 2.632-1.837 2.632-3.507 0-.292-.042-.584-.083-.835l1.336-.751c.752.375 2.298.96 4.01.96 1.045 0 2.173-.209 3.26-.835 3.55-2.046 3.759-6.847 3.759-7.014v-.627l-.585-.375zm-14.37 10.73a1.7 1.7 0 01-1.003.334c-.209 0-.376-.042-.585-.126a.867.867 0 01-.418-.25c-.334-.25-.543-.627-.626-1.044v-.46a1.617 1.617 0 011.002-1.293c.167-.084.376-.126.585-.126.209 0 .46.042.627.126a1.65 1.65 0 011.002 1.502c0 .084 0 .167-.041.251a1.522 1.522 0 01-.543 1.086zm.584 13.026a1.63 1.63 0 01-1.629 1.628c-.292 0-.626-.083-.835-.25-.46-.293-.794-.794-.794-1.378v-.042c0-.167.042-.334.084-.501.083-.292.292-.543.543-.752a1.59 1.59 0 01.71-.334c.083 0 .167-.041.292-.041.376 0 .752.125 1.003.334.417.334.626.793.626 1.336zm-2.631-3.507a3.17 3.17 0 00-1.337.71l-6.183-3.591c.042-.25.084-.46.084-.71 0-.334-.042-.71-.167-1.002l6.099-3.549c.417.418.919.71 1.504.877v7.265zM32.833 60.996a1.625 1.625 0 01-1.63-1.378v-.25a1.65 1.65 0 011.003-1.503 1.67 1.67 0 01.627-.126c.208 0 .417.042.626.126a1.65 1.65 0 011.003 1.503v.25c-.126.752-.836 1.378-1.63 1.378zM29.24 46.258l-6.183 3.59a3.187 3.187 0 00-1.336-.71v-7.264a3.416 3.416 0 001.503-.877l6.1 3.507c-.084.334-.168.668-.168 1.044 0 .25.042.501.084.71zm-6.893 6.388c0 .584-.292 1.085-.794 1.378-.25.167-.543.25-.835.25a1.63 1.63 0 01-1.63-1.628c0-.501.251-1.002.627-1.294a1.701 1.701 0 011.003-.334c.084 0 .209 0 .292.041.293.042.502.167.71.334.251.167.418.46.544.752.041.167.083.334.083.5 0-.041 0-.041 0 0zm-3.3-14.279a1.63 1.63 0 011.63-1.628c.208 0 .417.042.584.125.543.209.919.71 1.003 1.294v.501c-.042.418-.293.794-.627 1.044-.125.083-.25.167-.418.25a1.335 1.335 0 01-.585.126c-.376 0-.752-.126-1.002-.334-.334-.418-.585-.877-.585-1.378zm12.783-8.308a1.7 1.7 0 011.003-.334c.376 0 .752.125 1.002.334.334.25.543.626.585 1.043v.25c0 .502-.25 1.003-.627 1.295-.125.084-.25.167-.417.25a1.335 1.335 0 01-.585.126c-.21 0-.418-.042-.585-.125a.866.866 0 01-.418-.25 1.622 1.622 0 01-.626-1.295v-.25c.125-.418.334-.794.668-1.044zm2.632 15.53c0 .502-.25.92-.627 1.212-.083.041-.167.125-.25.167a1.73 1.73 0 01-.794.208c-.293 0-.543-.083-.752-.208a.874.874 0 01-.25-.167 1.602 1.602 0 01-.627-1.253v-.042c0-.167 0-.292.041-.417.084-.334.293-.626.543-.877.168-.125.376-.25.627-.292.125-.042.25-.042.418-.042.167 0 .292 0 .418.042.208.042.417.167.584.292.251.209.46.501.543.835.042.125.042.292.042.46.084.041.084.083.084.083zm6.934-8.099a3.179 3.179 0 00-.125.877c0 .292.042.626.125.919l-6.14 3.548a3.672 3.672 0 00-1.42-.793V34.86a3.416 3.416 0 001.503-.877l6.057 3.507zM26.483 13.901c0-5.386 4.72-9.269 6.35-10.438 1.629 1.17 6.35 5.052 6.35 10.438 0 4.51-3.343 7.766-5.348 9.31v-8.517c0-.543-.46-1.002-1.002-1.002a.99.99 0 00-1.003 1.002v8.517c-2.047-1.544-5.347-4.8-5.347-9.31zm3.801 20.082c.418.418.961.71 1.504.877v7.181a4.21 4.21 0 00-1.42.752l-6.183-3.55a3.15 3.15 0 00.126-.876c0-.292-.042-.584-.126-.877l6.1-3.507zm-5.973 19.29c.041-.21.041-.419.041-.627a3.49 3.49 0 00-.167-1.127l6.016-3.466c.418.46 1.002.794 1.629 1.002v6.806a3.815 3.815 0 00-1.546.876l-5.973-3.465zm11.07 3.464c-.418-.417-.961-.71-1.546-.876v-6.806a3.47 3.47 0 001.63-1.002l6.015 3.466c-.125.334-.167.71-.167 1.127 0 .209 0 .417.042.626l-5.974 3.465zM56.1 35.11c-1.337.752-2.84.627-4.01.334l2.005-1.169c.501-.292.668-.876.376-1.377-.293-.501-.878-.668-1.379-.376l-2.005 1.169c.292-1.127.96-2.505 2.298-3.298 1.921-1.128 4.302-.418 5.389.041-.168 1.128-.71 3.55-2.674 4.676z" fill="#fff"/></svg>