<svg width="64" height="64" fill="none" xmlns="http://www.w3.org/2000/svg"><path d="M47.401 22.282c-1.07-.58-2.522-.58-3.745 0l-8.79 4.853-5.962 3.114-8.56 4.926c-1.07.579-2.522.579-3.745 0l-6.726-3.84c-1.07-.579-1.911-1.81-1.911-3.114v-7.46c0-1.159.611-2.39 1.91-3.114l6.65-3.694c1.07-.58 2.523-.58 3.745 0l6.727 3.839c1.07.58 1.91 1.81 1.91 3.114v4.925l5.962-3.259v-5.07c0-1.159-.611-2.39-1.91-3.114l-12.46-6.953c-1.07-.58-2.521-.58-3.744 0L3.91 14.533c-1.3.579-1.91 1.81-1.91 2.97V31.48c0 1.158.611 2.39 1.91 3.114l12.612 6.953c1.07.58 2.523.58 3.745 0l8.637-4.78 5.962-3.26 8.637-4.78c1.07-.579 2.523-.579 3.745 0l6.727 3.694c1.07.58 1.91 1.811 1.91 3.115v7.387c0 1.16-.611 2.39-1.91 3.115L47.4 49.733c-1.07.579-2.522.579-3.745 0l-6.726-3.694c-1.07-.58-1.91-1.811-1.91-3.115v-4.78l-5.963 3.26v4.924c0 1.16.612 2.39 1.911 3.115l12.688 6.953c1.07.58 2.522.58 3.745 0l12.688-6.88C61.16 48.935 62 47.704 62 46.4V32.35c0-1.159-.611-2.39-1.91-3.115L47.4 22.282z" fill="#8247E5"/></svg>