<svg width="64" height="64" fill="none" xmlns="http://www.w3.org/2000/svg"><path fill-rule="evenodd" clip-rule="evenodd" d="M47.806 11.519l9.669 5.632.012 15.034.013 15.034-12.88 7.382C37.534 58.66 31.705 61.99 31.666 62c-.04.01-5.831-3.392-12.87-7.561L6 46.859l.04-7.958c.023-4.377.041-11.121.041-14.986v-7.028l12.69-7.444L31.461 2 34.8 3.943l13.007 7.576zm-25.828.643c-5.23 3.077-9.509 5.62-9.507 5.65.003.06 19.032 11.21 19.14 11.216.033.001 4.35-2.518 9.594-5.6 7.496-4.404 9.518-5.617 9.456-5.673-.085-.077-19.114-11.195-19.15-11.19a3439.1 3439.1 0 00-9.533 5.597zM9.924 33.45c0 8.856.016 11.174.076 11.223.1.08 19.194 11.117 19.232 11.117.017 0 .028-5.017.027-11.148l-.004-11.148-9.558-5.563c-5.258-3.059-9.607-5.58-9.666-5.603-.102-.039-.107.516-.107 11.122zm33.963-5.22l-9.623 5.613v22.386l.198-.115 9.669-5.66 9.47-5.544V33.758c0-6.134-.02-11.15-.046-11.148-.025.003-4.376 2.532-9.668 5.62z" fill="#45A351"/></svg>