<svg width="72" height="72" fill="none" xmlns="http://www.w3.org/2000/svg"><circle cx="36" cy="36" r="34.5" stroke="#DC2C2C" stroke-width="3"/><path d="M56.924 49.003a3.55 3.55 0 00-1.57-2.282 3.55 3.55 0 00-2.729-.476l-4.378 1.002v-1.79a17.294 17.294 0 002.443-2.894 16.965 16.965 0 002.398-5.647c.536-2.4.548-4.939.033-7.346a.82.82 0 10-1.605.344 15.643 15.643 0 01-.03 6.644 15.332 15.332 0 01-2.166 5.103c-.306.464-.676.95-1.073 1.415v-9.093a.82.82 0 00-.82-.82h-6.49v-8.76a.82.82 0 00-.816-.82l-7.31-.025h-.002a.819.819 0 00-.82.82v4.557h-6.49a.82.82 0 00-.821.82v8.124H22.85v-1.115a.82.82 0 00-.82-.82h-.842a15.508 15.508 0 01-.245-2.39 15.408 15.408 0 011.431-6.904.82.82 0 00-1.487-.693 17.055 17.055 0 00-1.585 7.638c.02.786.095 1.572.222 2.35H15.82a.82.82 0 00-.82.82v14.419c0 .453.367.82.82.82h6.21a.82.82 0 00.82-.82v-.78h3.086l12.5 4.902a9.887 9.887 0 006.07.38l9.798-2.49a3.569 3.569 0 002.62-4.193zm-10.317-14.2v12.82l-2.193.502a8.329 8.329 0 01-3.465.05l-.011-.003v-1.244c.625-.933.833-2.116.505-3.196a3.684 3.684 0 00-.503-1.039l-.002-.002v-7.888h5.669zm-12.978-9.602l5.669.019v16.168l-3.169-1.311-2.5-1.036v-13.84zm-7.31 5.375h5.668v7.786l-1.017-.421a.82.82 0 00-.314-.063h-4.338v-7.302zm-5.11 19.787h-4.568V37.585h4.568v12.778zm32.69 1.243l-9.797 2.49a8.244 8.244 0 01-5.067-.317L26.39 48.82a.82.82 0 00-.3-.056h-3.24V39.52h7.643l5.307 2.197 2.905 1.202a2.052 2.052 0 011.098 2.658c-.085.206-.19.402-.328.577a2.114 2.114 0 01-2.311.696l-5.52-2.122-.068-.026a.82.82 0 10-.589 1.53s3.112 1.197 5.485 2.112c.048.02.096.036.143.052l1.822.701c.551.212 1.1.423 1.673.57a9.906 9.906 0 004.67.058l2.83-.648.009-.002 5.372-1.23a1.92 1.92 0 011.477.257c.441.284.743.722.85 1.236a1.931 1.931 0 01-1.418 2.269zM25.488 21.9a.819.819 0 00.55-.21 15.593 15.593 0 015.056-3.05 15.626 15.626 0 016.334-.9 15.4 15.4 0 014.472.974.82.82 0 00.584-1.533 17.025 17.025 0 00-4.949-1.078 17.277 17.277 0 00-7.004.995 17.248 17.248 0 00-5.592 3.374.82.82 0 00.55 1.429z" fill="#fff"/><path d="M44.11 27.755a.817.817 0 001.158-.08l6.749-7.77a.82.82 0 10-1.238-1.076l-6.75 7.77a.82.82 0 00.081 1.156zm6.051-3.507c-1.136 0-2.06.924-2.06 2.06 0 1.135.924 2.059 2.06 2.059 1.136 0 2.06-.924 2.06-2.06a2.062 2.062 0 00-2.06-2.059zm0 2.478a.42.42 0 110-.838.42.42 0 010 .838zm-4.555-4.304c1.136 0 2.06-.924 2.06-2.06a2.062 2.062 0 00-2.06-2.059c-1.135 0-2.06.924-2.06 2.06 0 1.135.925 2.059 2.06 2.059zm0-2.479a.42.42 0 11-.001.84.42.42 0 01.001-.84zm-23.033 3.886a.827.827 0 00.797.505.829.829 0 00.74-.568.827.827 0 00-.28-.902.829.829 0 00-.955-.031.827.827 0 00-.302.996z" fill="#fff"/></svg>