<svg width="50" height="50" fill="none" xmlns="http://www.w3.org/2000/svg"><path d="M46.338 3.662C48.69 6.014 49.91 8.96 50 12.5v25c-.09 3.54-1.31 6.485-3.662 8.838C43.986 48.69 41.04 49.91 37.5 50h-25c-3.542-.09-6.488-1.31-8.838-3.662C1.312 43.986.092 41.04 0 37.5v-25c.09-3.542 1.31-6.488 3.662-8.838C6.014 1.312 8.96.092 12.5 0h25c3.54.09 6.485 1.31 8.838 3.662z" fill="#3C5AFD"/><path d="M42.725 23.78a4.152 4.152 0 01-1.227-2.942V12.5a4.149 4.149 0 00-4.162-4.162h-4.162v20.824L16.498 8.338h-4.162A4.149 4.149 0 008.174 12.5v8.338A4.178 4.178 0 014 25a4.178 4.178 0 014.174 4.162V37.5a4.148 4.148 0 004.162 4.162h4.162V20.838l16.676 20.824h4.162a4.149 4.149 0 004.162-4.162v-8.338A4.178 4.178 0 0145.672 25a4.186 4.186 0 01-2.947-1.22z" fill="#fff"/></svg>