<svg width="60" height="37" fill="none" xmlns="http://www.w3.org/2000/svg"><g clip-path="url(#a)"><path d="M29.655 36.747a1.14 1.14 0 01-.569-.152l-1.808-1.071c-.27-.151-.139-.205-.05-.235.36-.127.434-.155.818-.373.04-.023.094-.015.135.01l1.39.824c.05.027.121.027.167 0l5.42-3.128a.171.171 0 00.082-.146v-6.253a.174.174 0 00-.084-.15L29.74 22.95a.167.167 0 00-.167 0l-5.416 3.125a.172.172 0 00-.085.148v6.252c0 .06.032.117.084.145l1.484.858c.805.402 1.298-.072 1.298-.55v-6.171c0-.088.069-.156.157-.156h.686c.086 0 .156.068.156.156v6.174c0 1.074-.586 1.691-1.604 1.691-.314 0-.56 0-1.25-.339l-1.42-.819a1.146 1.146 0 01-.57-.989v-6.252c0-.407.218-.787.57-.988l5.423-3.129a1.188 1.188 0 011.14 0l5.416 3.13c.35.203.569.581.569.988v6.253c0 .405-.219.784-.569.987l-5.417 3.13c-.173.1-.37.151-.57.151" fill="#689F63"/><path d="M31.329 32.438c-2.371 0-2.868-1.088-2.868-2 0-.088.07-.157.157-.157h.7c.077 0 .142.057.154.133.106.713.42 1.073 1.854 1.073 1.142 0 1.628-.258 1.628-.864 0-.348-.138-.607-1.912-.781-1.484-.146-2.401-.473-2.401-1.66 0-1.093.922-1.744 2.467-1.744 1.735 0 2.595.602 2.703 1.896a.158.158 0 01-.157.17h-.704a.155.155 0 01-.152-.121c-.17-.75-.58-.99-1.693-.99-1.246 0-1.391.433-1.391.759 0 .395.17.51 1.853.732 1.665.221 2.456.533 2.456 1.704 0 1.18-.985 1.857-2.702 1.857l.008-.007zm6.592-6.624h.182c.149 0 .177-.105.177-.166 0-.16-.11-.16-.17-.16h-.188l-.001.326zM37.7 25.3h.403c.138 0 .41 0 .41.31 0 .215-.14.26-.222.287.162.01.172.116.194.266.011.093.029.255.061.309h-.248a18.554 18.554 0 01-.045-.37c-.016-.066-.04-.098-.122-.098h-.205v.47H37.7V25.3zm-.484.583c0 .486.392.88.873.88a.876.876 0 10-.001-1.752.872.872 0 00-.874.87l.002.002zm1.919.003c0 .575-.47 1.044-1.045 1.044-.57 0-1.044-.464-1.044-1.044a1.044 1.044 0 112.087 0" fill="#689F63"/><path fill-rule="evenodd" clip-rule="evenodd" d="M12.877 12.281a.694.694 0 00-.347-.602L6.785 8.373a.67.67 0 00-.316-.09h-.06a.683.683 0 00-.317.09L.348 11.68a.699.699 0 00-.348.603l.013 8.903a.34.34 0 00.172.3.328.328 0 00.344 0l3.416-1.956a.7.7 0 00.347-.602v-4.16a.69.69 0 01.346-.6l1.454-.838a.69.69 0 01.693 0l1.453.837a.692.692 0 01.347.601v4.16c0 .246.134.474.348.601l3.413 1.955a.34.34 0 00.347 0 .349.349 0 00.172-.3l.011-8.902zm27.108 4.636c0 .062-.033.12-.087.15l-1.973 1.137a.174.174 0 01-.173 0l-1.974-1.137a.172.172 0 01-.086-.15v-2.278c0-.062.032-.12.085-.15l1.972-1.14a.175.175 0 01.175 0l1.974 1.14a.173.173 0 01.086.15l.001 2.278zM40.518.044a.348.348 0 00-.516.303v8.816a.243.243 0 01-.364.21l-1.44-.828a.693.693 0 00-.693 0L31.76 11.86a.692.692 0 00-.348.6v6.635c0 .248.133.476.348.601l5.746 3.319a.696.696 0 00.694 0l5.747-3.32a.695.695 0 00.348-.601V2.558a.696.696 0 00-.357-.606L40.518.044zm19.137 14.535a.694.694 0 00.345-.6v-1.608a.694.694 0 00-.346-.6l-5.71-3.315a.693.693 0 00-.696 0l-5.745 3.316a.693.693 0 00-.347.601v6.633c0 .25.134.48.35.603l5.709 3.254c.21.12.467.122.68.004l3.454-1.92a.347.347 0 00.002-.603l-5.78-3.317a.344.344 0 01-.175-.3v-2.08c0-.125.065-.24.173-.301l1.799-1.038a.343.343 0 01.346 0l1.8 1.038a.346.346 0 01.173.3v1.635a.35.35 0 00.174.301.35.35 0 00.347-.001l3.447-2.002z" fill="#fff"/><path fill-rule="evenodd" clip-rule="evenodd" d="M53.514 14.268a.132.132 0 01.133 0l1.102.637a.133.133 0 01.067.115v1.274a.133.133 0 01-.067.115l-1.102.636a.132.132 0 01-.133 0l-1.102-.636a.133.133 0 01-.068-.115V15.02a.13.13 0 01.066-.115l1.104-.636z" fill="#689F63"/><path d="M34.322 11.227L18.221 3.335 9.965 20.177l16.101 7.893 8.256-16.843z" fill="url(#b)"/><path d="M8.918 13.562l11.37 15.388 15.036-11.11-11.37-15.387L8.917 13.562z" fill="url(#c)"/><path d="M16.102 8.398V22.97h12.435V8.4H16.102z" fill="url(#d)"/></g><defs><linearGradient id="b" x1="26.267" y1="7.269" x2="18.011" y2="24.11" gradientUnits="userSpaceOnUse"><stop offset=".3" stop-color="#3E863D"/><stop offset=".5" stop-color="#55934F"/><stop offset=".8" stop-color="#5AAD45"/></linearGradient><linearGradient id="c" x1="14.671" y1="21.344" x2="29.708" y2="10.233" gradientUnits="userSpaceOnUse"><stop offset=".57" stop-color="#3E863D"/><stop offset=".72" stop-color="#619857"/><stop offset="1" stop-color="#76AC64"/></linearGradient><linearGradient id="d" x1="16.106" y1="15.684" x2="28.539" y2="15.684" gradientUnits="userSpaceOnUse"><stop offset=".16" stop-color="#6BBF47"/><stop offset=".38" stop-color="#79B461"/><stop offset=".47" stop-color="#75AC64"/><stop offset=".7" stop-color="#659E5A"/><stop offset=".9" stop-color="#3E863D"/></linearGradient><clipPath id="a"><path fill="#fff" d="M0 0h60v36.747H0z"/></clipPath></defs></svg>