<svg width="53" height="48" fill="none" xmlns="http://www.w3.org/2000/svg"><path d="M52.656 24.005c0-3.488-4.368-6.794-11.066-8.844 1.546-6.826.859-12.257-2.168-13.995-.697-.408-1.513-.601-2.404-.601v2.393c.494 0 .89.097 1.224.28 1.46.836 2.093 4.024 1.599 8.124a32.997 32.997 0 01-.548 3.155 52.028 52.028 0 00-6.815-1.17 52.368 52.368 0 00-4.465-5.366c3.499-3.252 6.783-5.034 9.016-5.034V.554c-2.952 0-6.816 2.104-10.723 5.753C22.4 2.679 18.537.597 15.585.597V2.99c2.222 0 5.517 1.771 9.016 5.002a50.697 50.697 0 00-4.433 5.356c-2.425.257-4.722.654-6.826 1.18a32.367 32.367 0 01-.558-3.112c-.505-4.1.118-7.288 1.567-8.136.322-.193.74-.279 1.234-.279V.607c-.901 0-1.717.194-2.425.602-3.016 1.738-3.693 7.158-2.136 13.963C4.347 17.232 0 20.528 0 24.005c0 3.489 4.368 6.794 11.066 8.844-1.546 6.827-.859 12.257 2.168 13.996.697.408 1.513.601 2.415.601 2.951 0 6.815-2.103 10.722-5.753 3.907 3.628 7.77 5.71 10.722 5.71.902 0 1.717-.193 2.426-.6 3.016-1.74 3.692-7.16 2.136-13.964 6.654-2.05 11.001-5.356 11.001-8.834zm-13.974-7.159a48.379 48.379 0 01-1.45 4.24 50.791 50.791 0 00-1.405-2.576A57.993 57.993 0 0034.28 16c1.524.225 2.995.504 4.4.847zm-4.916 11.431a57.186 57.186 0 01-2.587 4.1c-1.599.14-3.22.215-4.851.215a59.92 59.92 0 01-4.83-.204 59.112 59.112 0 01-2.597-4.079 55.917 55.917 0 01-2.233-4.271 56.034 56.034 0 012.222-4.283 57.231 57.231 0 012.587-4.1c1.599-.14 3.22-.214 4.851-.214 1.62 0 3.241.075 4.83.203a59.15 59.15 0 012.597 4.079 55.919 55.919 0 012.233 4.272 60.132 60.132 0 01-2.222 4.282zm3.467-1.395a46.004 46.004 0 011.48 4.272 48.198 48.198 0 01-4.421.858 59.311 59.311 0 001.545-2.544c.494-.858.956-1.727 1.396-2.586zM26.35 38.334a44.232 44.232 0 01-2.984-3.435c.966.043 1.953.075 2.951.075 1.01 0 2.007-.021 2.984-.075a41.884 41.884 0 01-2.951 3.435zm-7.986-6.322a48.45 48.45 0 01-4.4-.848 48.29 48.29 0 011.449-4.24c.44.86.901 1.718 1.406 2.577a72.63 72.63 0 001.545 2.511zm7.932-22.335a44.261 44.261 0 012.984 3.434 66.492 66.492 0 00-2.952-.075c-1.009 0-2.007.022-2.984.075a41.912 41.912 0 012.952-3.434zm-7.943 6.322a59.353 59.353 0 00-2.94 5.12 46.002 46.002 0 01-1.482-4.273A52.136 52.136 0 0118.353 16zM8.64 29.436c-3.8-1.62-6.257-3.745-6.257-5.43 0-1.686 2.458-3.822 6.257-5.431a33.072 33.072 0 012.973-1.084 51.55 51.55 0 002.415 6.536 50.817 50.817 0 00-2.383 6.504 32.6 32.6 0 01-3.005-1.095zm5.774 15.338c-1.46-.837-2.092-4.025-1.599-8.125.118-1.01.311-2.072.548-3.156 2.103.515 4.4.913 6.815 1.17a52.364 52.364 0 004.465 5.367c-3.499 3.252-6.783 5.033-9.016 5.033-.483-.01-.89-.107-1.213-.29zm25.459-8.179c.505 4.1-.118 7.288-1.567 8.136-.322.193-.74.279-1.234.279-2.222 0-5.517-1.771-9.016-5.002a50.703 50.703 0 004.433-5.355c2.425-.258 4.722-.655 6.826-1.181.247 1.084.44 2.125.558 3.123zm4.132-7.159c-.923.397-1.932.752-2.973 1.084a51.56 51.56 0 00-2.415-6.536A50.828 50.828 0 0041 17.48c1.063.332 2.071.697 3.016 1.095 3.8 1.62 6.257 3.745 6.257 5.43-.01 1.686-2.468 3.821-6.268 5.431z" fill="#61DAFB"/><path d="M26.319 28.91a4.905 4.905 0 100-9.81 4.905 4.905 0 000 9.81z" fill="#61DAFB"/></svg>