<svg width="72" height="72" fill="none" xmlns="http://www.w3.org/2000/svg"><circle cx="36" cy="36" r="34.5" stroke="#DC2C2C" stroke-width="3"/><path d="M52.8 17.133H23.4a4.205 4.205 0 00-4.2 4.2v25.2h-3.15a1.051 1.051 0 00-1.05 1.05v3.15a4.205 4.205 0 004.2 4.2h27.3a4.205 4.205 0 004.2-4.2v-25.2h5.25a1.049 1.049 0 001.05-1.05v-3.15a4.205 4.205 0 00-4.2-4.2zm-33.6 35.7a2.1 2.1 0 01-2.1-2.1v-2.1h25.2v2.1a4.164 4.164 0 00.564 2.1H19.2zm29.4-2.1a2.1 2.1 0 11-4.2 0v-3.15a1.05 1.05 0 00-1.05-1.05H21.3v-25.2a2.102 2.102 0 012.1-2.1h25.784a4.151 4.151 0 00-.584 2.1v29.4zm6.3-27.3h-4.2v-2.1a2.1 2.1 0 014.2 0v2.1z" fill="#fff"/><path d="M37.34 24.523a1.045 1.045 0 00-1.298.721l-4.2 14.7a1.049 1.049 0 102.018.578l4.2-14.701a1.05 1.05 0 00-.72-1.298zm-6.898 4.467a1.05 1.05 0 00-1.484 0l-3.15 3.15a1.05 1.05 0 000 1.485l3.15 3.15a1.05 1.05 0 001.484-1.484l-2.407-2.408 2.407-2.408a1.05 1.05 0 000-1.484zm10.501 0a1.05 1.05 0 00-1.485 1.485l2.407 2.408-2.407 2.407a1.05 1.05 0 101.485 1.485l3.15-3.15a1.05 1.05 0 000-1.484l-3.15-3.15z" fill="#fff"/></svg>