<svg width="138" height="127" fill="none" xmlns="http://www.w3.org/2000/svg"><path d="M36.87 68.902h-.996c-.09 0-.271.09-.361.09-.453.09-.995.362-1.538.543-.543.18-.995.452-1.447.723-.453.272-.905.453-1.176.633a4.827 4.827 0 01-.453.272l.09.09c.091 0 .182.09.363.09.361.091.814.182 1.266.272.09 0 .271.09.362.09.18 0 .271 0 .452.091.271 0 .543.09.905.09.542 0 1.175-.09 1.628-.18.995-.272 1.628-.905 2.08-1.357.452-.543.633-.905.633-.905s-.361-.18-.904-.362c-.181-.18-.453-.18-.905-.18z" fill="url(#a)"/><path d="M38.405 64.922c-.271-.362-.542-.724-.814-.995-.18-.181-.362-.272-.452-.453-.09-.09-.18-.09-.271-.18-.09-.091-.181-.091-.272-.181-.271-.272-.542-.453-.814-.543-.18-.181-.362-.181-.362-.181v.452c0 .271 0 .724.09 1.176.091.452.182.995.272 1.447.181.453.362.995.633 1.357.09.09.09.18.181.271l.09.09.091.091c.181.181.271.272.452.362.181.09.272.181.453.271.18.09.271.09.452.181.543.181.904.09.904.09s.09-.452 0-1.085c0-.361-.09-.723-.18-1.085 0-.09-.09-.18-.09-.271 0-.09-.091-.181-.091-.272 0-.18-.09-.361-.272-.542z" fill="url(#b)"/><path d="M30.718 66.007s-.09-.09-.181-.09a2.81 2.81 0 00-.543-.362.69.69 0 00-.452-.181c-.181-.09-.362-.09-.543-.181-.362-.09-.814-.181-1.266-.181-.272 0-.543 0-.814.09-.272 0-.543.09-.814.09-.272 0-.543.091-.814.182-.272.09-.543.09-.814.18-.543.091-.995.182-1.267.272-.362.09-.543.09-.543.09s.181.09.453.272c.18.09.271.18.543.271.09.09.18.09.27.181.091.09.182.09.363.181.271.09.452.18.723.362.09.09.272.09.362.18.09 0 .09.091.18.091.091 0 .182 0 .182.09a5.12 5.12 0 001.628.272c1.085 0 1.9-.452 2.442-.814.271-.181.452-.362.633-.543.272-.271.362-.452.272-.452 0 0 .09 0 0 0z" fill="url(#c)"/><path d="M29.271 62.931c.09.453.362.814.543 1.086.09.18.271.271.362.362.09.09.27.18.361.271.272.18.453.271.634.271.09 0 .18 0 .18.09h.09s.091-.09.091-.27c.09-.181.09-.453.181-.724.09-.633.181-1.447-.09-2.261a2.806 2.806 0 00-.543-1.176 4.016 4.016 0 00-.723-.995c-.091-.181-.272-.272-.362-.453-.09-.09-.181-.27-.272-.361l-.271-.272s-.09.181-.09.453c-.091.27-.181.723-.181 1.175 0 .272-.09.453-.09.724v.724c0 .271 0 .542.09.723 0 .181 0 .453.09.633z" fill="url(#d)"/><path d="M23.573 60.309c-.09-.181-.272-.362-.453-.543-.18-.181-.452-.452-.814-.633a14.604 14.604 0 00-1.175-.543c-.181 0-.362-.09-.543-.09-.181 0-.362-.09-.543-.09-.904-.182-1.9-.182-2.713-.272-.814 0-1.357-.09-1.357-.09s.18.27.543.633c.27.361.814.814 1.356 1.266.09.09.181.09.272.18l.09.091s.09.09.181.09c.181.091.362.272.543.362l.543.272c.18.09.361.18.542.18.995.272 1.9.091 2.533-.09.633-.271.995-.542.995-.542s.09-.09 0-.181z" fill="url(#e)"/><path d="M23.843 59.133l.452.452c.181.09.271.09.271.09s.272-.361.634-.904c.271-.543.633-1.357.633-2.261 0-.272 0-.633-.09-.995 0-.181-.091-.272-.091-.453 0-.18-.09-.27-.09-.452-.09-.271-.181-.452-.272-.723 0-.09-.09-.09-.09-.181 0-.09 0-.09-.09-.181 0-.09-.091-.181-.091-.272l-.271-.542s-.272.452-.634 1.085l-.271.543c0 .09-.09.18-.09.271 0 .09-.091.181-.091.272-.18.361-.271.814-.362 1.266 0 .18-.09.362-.09.452v.452c0 .453.09.814.18 1.176.091.362.272.633.453.905z" fill="url(#f)"/><path d="M16.79 53.525h.542c.723 0 1.085-.18 1.085-.18s0-.091-.09-.272c0-.09-.09-.181-.09-.272 0-.09-.091-.18-.181-.361-.091-.272-.272-.543-.543-.814l-.181-.181c-.09-.09-.181-.181-.271-.181-.181-.181-.362-.272-.543-.362-.181-.09-.453-.271-.724-.362-.271-.09-.452-.271-.723-.362-.543-.18-1.086-.452-1.538-.542-.452-.181-.905-.362-1.266-.453l-.543-.18s.09.18.18.452l.272.542c.09.181.271.362.362.634.09.18.271.452.452.633 0 .09.09.09.09.18 0 .091.091.091.091.181.09.091.181.181.272.362.18.181.361.453.633.633l.271.272c.09.09.18.18.362.18.452.272.904.453 1.357.453.361-.09.542 0 .723 0z" fill="url(#g)"/><path d="M18.776 51.083c0 .361.181.633.272.904.09.09.09.271.18.362.091.09.091.18.182.271l.18.181s.362-.271.815-.724c.09-.09.18-.27.361-.361.09-.181.272-.272.362-.453.181-.361.453-.723.543-1.085 0-.09.09-.18.09-.271 0-.09.09-.181.09-.362s.091-.452.091-.633v-1.267c0-.18 0-.362-.09-.542v-.453c0-.271-.09-.361-.09-.361s-.181.09-.362.361l-.814.814c-.272.362-.634.724-.905 1.176-.18.181-.271.453-.362.633-.09.181-.18.453-.271.634-.09.18-.09.452-.09.633v.452c-.181 0-.181.09-.181.09z" fill="url(#h)"/><path d="M12.808 44.57c.181.09.362.272.543.362.362.181.723.271 1.085.362.633.09 1.176.09 1.176.09s.09-.361-.09-.904c0-.181-.09-.271-.09-.452-.091-.181-.091-.362-.182-.453l-.271-.542c-.09-.09-.09-.181-.18-.272l-.091-.09-.09-.09c-.634-.724-1.72-1.448-2.533-1.99-.453-.272-.815-.543-1.086-.724-.271-.181-.452-.271-.452-.271s0 .18.09.542c.09.362.181.724.272 1.267.18.452.361.995.542 1.537.09.09.09.272.181.362.09.09.181.271.181.362.181.271.362.452.452.633.181-.09.362.09.543.271z" fill="url(#i)"/><path d="M16.878 45.113s.453-.18.995-.452c.272-.181.634-.362.905-.633.18-.09.271-.272.452-.453.181-.18.272-.361.362-.542.09-.181.181-.362.362-.543.09-.181.18-.362.271-.633.181-.453.272-.814.362-1.176.09-.362.18-.724.18-.905v-.361s-.18.09-.451.18c-.272.181-.633.362-.995.634-.362.271-.814.542-1.176.904s-.724.724-.995 1.085l-.271.543c-.09.181-.09.362-.181.543 0 .18-.09.362-.09.543v.452c.09.452.27.814.27.814z" fill="url(#j)"/><path d="M11.813 32.63c0 .181.09.453.09.634.09.452.181.814.362 1.176.271.452.543.814.814 1.085.271.271.633.452.905.633a6.092 6.092 0 001.085.362s0-.09.09-.271c0-.181.091-.362.091-.634 0-.27 0-.633-.09-.995a8.345 8.345 0 00-.362-1.175c-.09-.181-.181-.272-.272-.453-.09-.09-.09-.18-.18-.18-.09-.091-.091-.181-.181-.181l-.814-1.086c-.272-.362-.543-.724-.815-.995a8.619 8.619 0 00-.814-.995s-.09.271-.09.814c0 .272-.09.543-.09.814v.995c.18.09.18.272.27.453z" fill="url(#k)"/><path d="M19.593 35.344l.181-.18.18-.181c.091-.091.182-.272.363-.362.09-.09.18-.272.271-.362.09-.181.18-.272.271-.362.181-.18.272-.452.362-.633.09-.09.09-.181.181-.272 0-.09.09-.18.181-.27l.271-.544s-.542.09-1.266.272c-.18.09-.362.09-.543.18-.18.091-.362.091-.633.182-.362.18-.814.361-1.176.542l-.814.543c-.362.271-.633.633-.723.905-.181.361-.272.633-.272.904v.633c0 .181.09.272.09.272s.453 0 1.086-.181c.543-.181 1.357-.453 1.99-1.086z" fill="url(#l)"/><path d="M15.613 26.39c.181.361.453.633.724.904.452.452.904.633.904.633l.181-.18c.09-.182.181-.363.272-.634.09-.271.18-.543.271-.905v-.633c0-.18 0-.452-.09-.633 0-.271-.09-.452-.181-.724 0-.09-.09-.27-.09-.361 0-.09-.091-.272-.091-.362a11.092 11.092 0 00-.633-1.538 4.313 4.313 0 00-.272-.633l-.271-.543c-.09-.271-.18-.452-.18-.452s-.091.181-.272.452c-.09.181-.181.362-.181.543-.09.181-.181.452-.272.633 0 .09-.09.272-.09.362 0 .09-.09.271-.09.362-.09.271-.09.543-.181.814 0 .271-.09.543-.09.814 0 .271 0 .543.09.814.18.543.361.904.542 1.266z" fill="url(#m)"/><path d="M22.486 27.746c.181-.09.362-.271.543-.362.181-.18.362-.271.452-.452l.453-.452.361-.362.181-.18c.09-.091.09-.091.09-.182l.272-.271H23.21c-.452 0-.995.09-1.538.18-.09 0-.271.091-.361.091-.09 0-.272.09-.362.09-.272.091-.453.182-.724.272-.18.09-.362.18-.543.362-.18.09-.27.271-.452.362-.271.271-.452.542-.543.814-.09.271-.18.452-.18.633v.271s.452.09 1.085.09c.362 0 .724 0 1.085-.09.362-.09.814-.18 1.267-.362.18-.18.361-.361.542-.452z" fill="url(#n)"/><path d="M20.404 18.701c.09.362.272.724.453.995.361.543.723.904.723.904s.362-.18.724-.633c.09-.09.18-.271.271-.361.09-.181.181-.272.271-.453.181-.362.272-.723.272-1.266.09-.452 0-.995 0-1.538 0-.542-.09-1.085-.181-1.628-.09-.543-.09-.904-.18-1.266-.091-.271-.091-.543-.091-.543l-.09.09-.272.272a6.618 6.618 0 01-.814.995c-.272.452-.543.904-.814 1.447-.181.543-.362 1.086-.453 1.538v.723c0 .362.09.543.181.724z" fill="url(#o)"/><path d="M26.647 21.776c.09 0 .18-.09.362-.09.09 0 .09 0 .18-.09.091 0 .091 0 .181-.091.453-.181.815-.362 1.176-.543.362-.18.634-.362.814-.452.09-.09.181-.09.272-.181.09 0 .09-.09.09-.09l-.09-.091c-.09 0-.181-.09-.362-.09-.271-.091-.724-.181-1.176-.362-.271-.09-.452-.09-.724-.181-.09 0-.27 0-.361-.09h-1.9c-.452.09-.814.27-1.176.452-.18.09-.271.18-.452.27-.09.091-.18.182-.271.363-.362.452-.453.814-.453.814s.453.271 1.086.362c.362.09.724.18 1.085.18h1.267s.18 0 .452-.09z" fill="url(#p)"/><path d="M27.824 14.088c.09.18.18.271.18.271h.091s.09 0 .181-.09c.181-.09.362-.181.633-.362a4.291 4.291 0 001.357-1.809c.09-.271.272-.633.362-.995l.271-1.357c.09-.452.181-.904.272-1.266.09-.724.18-1.266.18-1.266s-.27.18-.633.452c-.18.18-.452.271-.633.452-.271.181-.452.452-.723.633l-.453.453-.09.09-.09.09c-.09.09-.09.181-.181.272-.272.362-.453.723-.633 1.085-.091.272-.181.453-.181.724 0 .18-.09.452-.09.633 0 .452.09.814.09 1.085-.09.543 0 .724.09.905z" fill="url(#q)"/><path d="M33.793 16.71c.271-.09.543-.09.724-.18.271-.09.452-.09.633-.18.362-.091.543-.182.543-.182s-.362-.271-.995-.723a6.026 6.026 0 00-1.086-.543 5.23 5.23 0 00-1.266-.452c-.362-.09-.633-.181-.905-.181-.904-.09-1.628.18-2.08.543a2.87 2.87 0 00-.543.452c-.09.09-.09.09-.09.18v.091s.09.09.271.181c.181.09.362.271.633.452.272.181.633.362.995.453.181.09.362.18.633.18.181.09.453.09.634.09.633 0 1.266-.09 1.9-.18z" fill="url(#r)"/><path d="M43.471 69.535c-.18 0-.362-.09-.633-.09-.09 0-.271 0-.362-.091-.18 0-.271-.09-.452-.09-.272-.091-.633-.091-.995-.182l-1.086-.271c-.18 0-.361-.09-.542-.09-.181-.091-.362-.091-.543-.181-.362-.09-.814-.181-1.176-.362-1.628-.453-3.075-1.086-4.251-1.628-.271-.181-.543-.272-.724-.362-.09-.09-.18-.09-.271-.181-.09-.09-.18-.09-.271-.181-.272-.18-.453-.271-.453-.271s-.18-.09-.452-.272c-.271-.18-.724-.452-1.266-.814-.995-.633-2.352-1.628-3.618-2.713-1.267-1.086-2.352-2.262-3.166-3.166a1.26 1.26 0 01-.271-.362l-.272-.271c-.18-.181-.271-.362-.362-.453-.09-.09-.18-.27-.27-.361l-.091-.09s-.09-.182-.362-.453c-.09-.18-.271-.271-.362-.543-.18-.18-.271-.452-.452-.723-.09-.09-.181-.272-.272-.362-.09-.181-.18-.272-.27-.452-.182-.272-.363-.634-.544-.905-.18-.362-.361-.633-.542-.995-.09-.09-.09-.18-.181-.271 0-.09-.09-.181-.09-.272l-.272-.542c-.633-1.447-1.266-2.985-1.538-4.161 0-.18-.09-.271-.09-.452 0-.09-.09-.272-.09-.362-.091-.272-.091-.452-.181-.633-.091-.362-.091-.543-.091-.543v-.18c0-.091 0-.272-.09-.363 0-.18-.09-.361-.09-.633 0-.271-.091-.542-.182-.814 0-.271-.09-.633-.09-.995v-1.085c-.09-.724-.09-1.538-.09-2.352 0-.814 0-1.628.09-2.352v-1.085c0-.362.09-.633.09-.995 0-.272.09-.543.181-.814 0-.272.09-.453.09-.633 0-.181.091-.272.091-.362v-.181s.09-.181.09-.543c0-.18.09-.362.181-.633 0-.09.09-.271.09-.362 0-.09.091-.271.091-.452.362-1.176.905-2.623 1.538-4.16l.271-.544c0-.09.09-.18.09-.27.091-.091.091-.182.182-.272.18-.362.361-.724.542-.995.181-.362.362-.633.543-.905.09-.18.181-.271.271-.452.09-.18.181-.271.272-.362.18-.271.362-.452.452-.723.18-.181.271-.362.362-.543.18-.271.362-.452.362-.452l.09-.09c.09-.091.09-.182.271-.363.09-.18.272-.27.362-.452l.272-.271c.09-.09.18-.181.271-.362.814-.904 1.9-2.08 3.166-3.166a37.586 37.586 0 013.618-2.713c.543-.362.995-.633 1.266-.814.362-.181.452-.272.452-.272s.181-.09.453-.271c.09 0 .18-.09.271-.181.09-.09.18-.09.271-.18.09 0 .181-.091.272-.091h.814c.633 0 1.538-.181 2.261-.543a4.23 4.23 0 001.085-.814c.181-.181.362-.271.453-.452l.452-.453c.271-.271.452-.542.633-.723l.272-.272h-1.99c-.09 0-.272 0-.362.09-.272 0-.543.091-.814.182-.543.09-.995.271-1.447.542a4.019 4.019 0 00-.995.724c-.272.271-.362.543-.453.814-.09.271-.18.452-.18.633v.09h-.091c-.09.091-.181.091-.362.182-.09.09-.18.09-.271.18a4.827 4.827 0 01-.453.272l-.542.271c-.272.181-.724.453-1.267.814-.995.724-2.351 1.629-3.618 2.714-1.266 1.085-2.351 2.261-3.165 3.166-.09.09-.181.271-.272.361l-.271.272c-.181.18-.271.362-.452.542-.09.181-.181.272-.272.362l-.09.09s-.09.182-.362.453c-.09.181-.271.362-.362.543-.18.18-.271.452-.452.723-.09.09-.18.272-.271.362-.09.181-.181.271-.272.452-.18.272-.361.634-.542.905-.181.362-.362.724-.543.995-.09.09-.09.18-.181.271 0 .09-.09.181-.09.272l-.272.542c-.723 1.448-1.266 2.985-1.537 4.161 0 .181-.091.271-.091.452 0 .09-.09.272-.09.362-.09.271-.09.452-.181.633-.09.362-.09.543-.09.543v.18c0 .091 0 .272-.091.363 0 .18-.09.361-.09.633 0 .271-.091.543-.182.814 0 .271-.09.633-.09.995v1.085c-.09.724-.09 1.538-.09 2.352 0 .814 0 1.628.09 2.352v1.085c0 .362.09.633.09.995 0 .271.09.543.181.814 0 .272.09.453.09.633 0 .181.091.272.091.362v.181s.09.181.09.543c0 .18.091.362.182.633 0 .09.09.271.09.362 0 .09.09.271.09.452a40.777 40.777 0 001.538 4.16l.271.544c0 .09.09.18.09.27.091.091.091.182.182.272.18.362.362.724.543.995.18.362.361.633.542.905.09.18.181.271.272.452.09.18.18.271.271.362.18.271.362.452.452.723.181.181.272.362.362.543.18.272.362.452.362.452l.09.09c.09.091.181.182.272.363.09.18.271.271.452.542l.271.272c.09.09.181.18.272.361.814.905 1.99 2.08 3.165 3.166 1.267 1.086 2.623 2.08 3.619 2.714.542.362.994.633 1.266.814l.543.271s.18.09.452.272c.09 0 .18.09.271.18.09.09.181.09.362.181.271.09.452.272.724.362a24.699 24.699 0 004.25 1.628c.362.181.815.272 1.177.362.18.09.361.09.633.181.18.09.362.09.542.09l1.086.272c.362.09.723.09.995.18.18 0 .271.091.452.091s.272 0 .362.09c.271 0 .452.091.633.091.362 0 .543.09.543.09v-.27c.09.361-.181.361-.543.27z" fill="url(#s)"/><path d="M39.944 69.263s4.341 1.086 5.336 5.156l-.09-4.704-4.975-.633-.271.181z" fill="url(#t)"/><path d="M104.994 68.902h.995c.09 0 .271.09.362.09.452.09.995.362 1.537.543.543.18.995.452 1.448.723.452.272.904.453 1.176.633.271.181.452.272.452.272l-.091.09c-.09 0-.181.09-.361.09-.362.091-.815.182-1.267.272-.09 0-.271.09-.362.09-.18 0-.271 0-.452.091-.271 0-.543.09-.904.09a8.95 8.95 0 01-1.628-.18c-.995-.272-1.629-.905-2.081-1.357-.452-.543-.633-.905-.633-.905s.362-.18.904-.362c.181-.18.453-.18.905-.18z" fill="url(#u)"/><path d="M103.458 64.922c.271-.362.543-.724.814-.995.181-.181.362-.272.452-.453.091-.09.181-.09.272-.18.09-.091.181-.091.271-.181.271-.272.543-.453.814-.543.181-.181.362-.181.362-.181v.452c0 .271 0 .724-.091 1.176-.09.452-.18.995-.271 1.447-.181.453-.362.995-.633 1.357-.091.09-.091.18-.181.271l-.09.09-.091.091c-.181.181-.271.272-.452.362-.181.09-.272.181-.452.271-.181.09-.272.09-.453.181-.542.181-.904.09-.904.09s-.091-.452 0-1.085c0-.361.09-.723.181-1.085 0-.09.09-.18.09-.271 0-.09.091-.181.091-.272 0-.18.09-.361.271-.542z" fill="url(#v)"/><path d="M111.146 66.007s.09-.09.181-.09c.09-.091.361-.272.542-.362a.693.693 0 01.452-.181c.181-.09.362-.09.543-.181.362-.09.814-.181 1.267-.181.271 0 .542 0 .814.09.271 0 .542.09.814.09.271 0 .542.091.814.182.271.09.542.09.814.18.542.091.995.182 1.266.272.362.09.543.09.543.09s-.181.09-.452.272c-.181.09-.272.18-.543.271-.091.09-.181.09-.272.181-.09.09-.18.09-.361.181-.272.09-.453.18-.724.362-.09.09-.271.09-.362.18-.09 0-.09.091-.181.091-.09 0-.181 0-.181.09a5.117 5.117 0 01-1.628.272c-1.085 0-1.899-.452-2.442-.814a3.952 3.952 0 01-.633-.543c-.271-.271-.362-.452-.271-.452 0 0-.091 0 0 0z" fill="url(#w)"/><path d="M112.592 62.931c-.09.453-.362.814-.542 1.086-.091.18-.272.271-.362.362-.091.09-.272.18-.362.271-.271.18-.452.271-.633.271-.091 0-.181 0-.181.09h-.091s-.09-.09-.09-.27c-.091-.181-.091-.453-.181-.724-.09-.633-.181-1.447.091-2.261.09-.453.271-.815.542-1.176.181-.362.452-.724.724-.995.09-.181.271-.272.362-.453.09-.09.181-.27.271-.361l.271-.272s.091.181.091.453c.09.27.181.723.181 1.175 0 .272.09.453.09.724v.724c0 .271 0 .542-.09.723 0 .181 0 .453-.091.633z" fill="url(#x)"/><path d="M118.291 60.309c.09-.181.271-.362.452-.543.181-.181.452-.452.814-.633.362-.181.723-.362 1.176-.543.181 0 .361-.09.542-.09.181 0 .362-.09.543-.09.905-.182 1.9-.182 2.714-.272.814 0 1.356-.09 1.356-.09s-.18.27-.542.633c-.272.361-.814.814-1.357 1.266-.091.09-.181.09-.271.18l-.091.091s-.09.09-.181.09c-.181.091-.362.272-.542.362l-.543.272c-.181.09-.362.18-.543.18-.995.272-1.899.091-2.533-.09-.633-.271-.994-.542-.994-.542s-.091-.09 0-.181z" fill="url(#y)"/><path d="M118.02 59.133l-.452.452c-.181.09-.271.09-.271.09s-.272-.361-.633-.904c-.272-.543-.634-1.357-.634-2.261 0-.272 0-.633.091-.995 0-.181.09-.272.09-.453 0-.18.091-.27.091-.452.09-.271.181-.452.271-.723 0-.09.091-.09.091-.181 0-.09 0-.09.09-.181 0-.09.09-.181.09-.272l.272-.542s.271.452.633 1.085l.271.543c0 .09.091.18.091.271 0 .09.09.181.09.272.181.361.272.814.362 1.266 0 .18.091.362.091.452v.452c0 .453-.091.814-.181 1.176-.091.362-.272.633-.453.905z" fill="url(#z)"/><path d="M125.074 53.525h-.543c-.723 0-1.085-.18-1.085-.18s0-.091.09-.272c0-.09.091-.181.091-.272 0-.09.09-.18.181-.361.09-.272.271-.543.542-.814l.181-.181c.091-.09.181-.181.272-.181.181-.181.362-.272.542-.362.181-.09.453-.271.724-.362.271-.09.452-.271.724-.362.542-.18 1.085-.452 1.537-.542.453-.181.905-.362 1.267-.453l.542-.18s-.09.18-.181.452l-.271.542c-.09.181-.271.362-.362.634a2.73 2.73 0 01-.452.633c0 .09-.09.09-.09.18 0 .091-.091.091-.091.181-.09.091-.181.181-.271.362-.181.181-.362.453-.633.633l-.272.272c-.09.09-.181.18-.362.18-.452.272-.904.453-1.356.453-.362-.09-.543 0-.724 0z" fill="url(#A)"/><path d="M123.087 51.083c0 .361-.181.633-.272.904-.09.09-.09.271-.18.362-.091.09-.091.18-.181.271l-.181.181s-.362-.271-.814-.724c-.091-.09-.181-.27-.362-.361-.091-.181-.271-.272-.362-.453-.181-.361-.452-.723-.543-1.085 0-.09-.09-.18-.09-.271 0-.09-.091-.181-.091-.362s-.09-.452-.09-.633v-1.267c0-.18 0-.362.09-.542v-.453c0-.271.091-.361.091-.361s.181.09.362.361l.814.814c.271.362.633.724.904 1.176.181.181.272.453.362.633.091.181.181.453.271.634.091.18.091.452.091.633v.452c.181 0 .181.09.181.09z" fill="url(#B)"/><path d="M129.055 44.57c-.181.09-.362.272-.543.362-.361.181-.723.271-1.085.362-.633.09-1.176.09-1.176.09s-.09-.361.091-.904c0-.181.09-.271.09-.452.09-.181.09-.362.181-.453l.271-.542c.091-.09.091-.181.181-.272l.091-.09.09-.09c.633-.724 1.719-1.448 2.533-1.99.452-.272.814-.543 1.085-.724.272-.181.452-.271.452-.271s0 .18-.09.542a14.25 14.25 0 00-.271 1.267c-.181.452-.362.995-.543 1.537-.091.09-.091.272-.181.362-.09.09-.181.271-.181.362-.181.271-.362.452-.452.633-.181-.09-.362.09-.543.271z" fill="url(#C)"/><path d="M124.985 45.113s-.453-.18-.995-.452c-.272-.181-.633-.362-.905-.633-.181-.09-.271-.272-.452-.453-.181-.18-.271-.361-.362-.542a1.882 1.882 0 00-.362-.543c-.09-.181-.181-.362-.271-.633-.181-.453-.271-.814-.362-1.176-.09-.362-.181-.724-.181-.905v-.361s.181.09.453.18c.271.181.633.362.995.634.361.271.814.542 1.175.904.362.362.724.724.995 1.085l.272.543c.09.181.09.362.181.543 0 .18.09.362.09.543v.452c-.09.452-.271.814-.271.814z" fill="url(#D)"/><path d="M130.05 32.63c0 .181-.09.453-.09.634-.09.452-.181.814-.362 1.176a5.64 5.64 0 01-.814 1.085c-.271.271-.633.452-.904.633-.634.271-1.086.362-1.086.362s0-.09-.09-.271c0-.181-.091-.362-.091-.634 0-.27 0-.633.091-.995.09-.361.181-.723.362-1.175.09-.181.18-.272.271-.453.09-.09.09-.18.181-.18.09-.091.09-.181.181-.181l.814-1.086c.271-.362.542-.724.814-.995.452-.633.814-.995.814-.995s.09.271.09.814c0 .272.091.543.091.814v.995c-.181.09-.181.272-.272.453z" fill="url(#E)"/><path d="M122.27 35.344l-.181-.18-.181-.181c-.09-.091-.18-.272-.361-.362-.091-.09-.181-.272-.272-.362a1.242 1.242 0 00-.271-.362c-.181-.18-.271-.452-.362-.633-.09-.09-.09-.181-.181-.272 0-.09-.09-.18-.181-.27l-.271-.544s.543.09 1.266.272c.181.09.362.09.543.18.181.091.362.091.633.182.362.18.814.361 1.176.542l.814.543c.362.271.633.633.724.905.181.361.271.633.271.904v.633c0 .181-.09.272-.09.272s-.453 0-1.086-.181c-.543-.181-1.357-.453-1.99-1.086z" fill="url(#F)"/><path d="M126.25 26.39c-.181.361-.452.633-.724.904a3.018 3.018 0 01-.904.633l-.181-.18a4.304 4.304 0 01-.271-.634 11.377 11.377 0 01-.272-.905v-.633c0-.18 0-.452.091-.633 0-.271.09-.452.181-.724 0-.09.09-.27.09-.361 0-.09.09-.272.09-.362.181-.543.362-.995.634-1.538.09-.271.18-.452.271-.633l.271-.543c.091-.271.181-.452.181-.452s.091.181.272.452c.09.181.18.362.18.543.091.181.181.452.272.633 0 .09.09.272.09.362 0 .09.091.271.091.362.09.271.09.543.181.814 0 .271.09.543.09.814 0 .271 0 .543-.09.814-.181.543-.362.904-.543 1.266z" fill="url(#G)"/><path d="M119.377 27.746c-.181-.09-.362-.271-.543-.362-.181-.18-.362-.271-.452-.452l-.452-.452-.362-.362-.181-.18c-.09-.091-.091-.091-.091-.182l-.271-.271h1.628c.453 0 .995.09 1.538.18.09 0 .271.091.362.091.09 0 .271.09.362.09.271.091.452.182.723.272.181.09.362.18.543.362.181.09.271.271.452.362.271.271.452.542.543.814.09.271.181.452.181.633v.271s-.453.09-1.086.09c-.361 0-.723 0-1.085-.09s-.814-.18-1.266-.362c-.181-.18-.362-.361-.543-.452z" fill="url(#H)"/><path d="M121.459 18.701a3.355 3.355 0 01-.452.995c-.362.543-.724.904-.724.904s-.362-.18-.724-.633c-.09-.09-.18-.271-.271-.361-.09-.181-.181-.272-.271-.453-.181-.362-.272-.723-.272-1.266-.09-.452 0-.995 0-1.538 0-.542.091-1.085.181-1.628.091-.543.091-.904.181-1.266.091-.271.091-.543.091-.543l.09.09.271.272c.181.271.453.633.815.995.271.452.542.904.814 1.447.18.543.361 1.086.452 1.538v.723c0 .362-.091.543-.181.724z" fill="url(#I)"/><path d="M115.216 21.776c-.09 0-.181-.09-.361-.09-.091 0-.091 0-.181-.09-.091 0-.091 0-.181-.091-.453-.181-.814-.362-1.176-.543-.362-.18-.633-.362-.814-.452-.091-.09-.181-.09-.272-.181-.09 0-.09-.09-.09-.09l.09-.091c.091 0 .181-.09.362-.09.272-.091.724-.181 1.176-.362.272-.09.452-.09.724-.181.09 0 .271 0 .362-.09h1.899c.452.09.814.27 1.176.452.181.09.271.18.452.27.091.091.181.182.272.363.361.452.452.814.452.814s-.452.271-1.086.362c-.361.09-.723.18-1.085.18h-1.266s-.181 0-.453-.09z" fill="url(#J)"/><path d="M114.039 14.088c-.09.18-.181.271-.181.271h-.09s-.091 0-.181-.09a5.148 5.148 0 01-.633-.362 4.296 4.296 0 01-1.357-1.809c-.09-.271-.271-.633-.362-.995l-.271-1.357c-.091-.452-.181-.904-.271-1.266-.091-.724-.181-1.266-.181-1.266s.271.18.633.452c.181.18.452.271.633.452.271.181.452.452.724.633l.452.453.09.09.091.09c.09.09.09.181.181.272.271.362.452.723.633 1.085.09.272.181.453.181.724 0 .18.09.452.09.633 0 .452-.09.814-.09 1.085.09.543 0 .724-.091.905z" fill="url(#K)"/><path d="M108.07 16.71c-.271-.09-.542-.09-.723-.18-.272-.09-.453-.09-.634-.18a2.91 2.91 0 01-.542-.182s.362-.271.995-.723a6.012 6.012 0 011.085-.543 5.211 5.211 0 011.266-.452c.362-.09.634-.181.905-.181.904-.09 1.628.18 2.08.543.272.18.362.27.543.452.09.09.09.09.09.18v.091s-.09.09-.271.181c-.181.09-.362.271-.633.452s-.633.362-.995.453c-.181.09-.362.18-.633.18-.181.09-.452.09-.633.09-.633 0-1.267-.09-1.9-.18z" fill="url(#L)"/><path d="M98.392 69.535c.181 0 .362-.09.633-.09.09 0 .272 0 .362-.091.181 0 .272-.09.452-.09.272-.091.634-.091.995-.182l1.086-.271c.181 0 .362-.09.543-.09.18-.091.361-.091.542-.181.362-.09.814-.181 1.176-.362 1.628-.453 3.075-1.086 4.251-1.628.272-.181.543-.272.724-.362.09-.09.181-.09.271-.181.091-.09.181-.09.272-.181.271-.18.452-.271.452-.271s.181-.09.452-.272c.271-.18.724-.452 1.266-.814.995-.633 2.352-1.628 3.619-2.713 1.266-1.086 2.351-2.262 3.165-3.166.091-.09.181-.181.272-.362l.271-.271c.181-.181.271-.362.362-.453.09-.09.181-.27.271-.361l.091-.09s.09-.182.361-.453c.091-.18.272-.271.362-.543.181-.18.272-.452.453-.723.09-.09.18-.272.271-.362.09-.181.181-.272.271-.452.181-.272.362-.634.543-.905.181-.362.362-.633.543-.995.09-.09.09-.18.181-.271 0-.09.09-.181.09-.272l.271-.542c.633-1.447 1.267-2.985 1.538-4.161 0-.18.09-.271.09-.452 0-.09.091-.272.091-.362.09-.272.09-.452.181-.633.09-.362.09-.543.09-.543v-.18c0-.091 0-.272.091-.363 0-.18.09-.361.09-.633 0-.271.091-.542.181-.814 0-.271.091-.633.091-.995v-1.085c.09-.724.09-1.538.09-2.352 0-.814 0-1.628-.09-2.352v-1.085c0-.362-.091-.633-.091-.995 0-.272-.09-.543-.181-.814 0-.272-.09-.453-.09-.633 0-.181-.091-.272-.091-.362v-.181s-.09-.181-.09-.543c0-.18-.091-.362-.181-.633 0-.09-.091-.271-.091-.362 0-.09-.09-.271-.09-.452-.362-1.176-.905-2.623-1.538-4.16l-.271-.544c0-.09-.09-.18-.09-.27-.091-.091-.091-.182-.181-.272-.181-.362-.362-.724-.543-.995-.181-.362-.362-.633-.543-.905-.09-.18-.181-.271-.271-.452a1.266 1.266 0 00-.271-.362c-.181-.271-.362-.452-.453-.723-.181-.181-.271-.362-.362-.543a3.219 3.219 0 00-.361-.452l-.091-.09c-.09-.091-.09-.182-.271-.363-.091-.18-.272-.27-.362-.452l-.271-.271a1.248 1.248 0 01-.272-.362c-.814-.904-1.899-2.08-3.165-3.166a37.602 37.602 0 00-3.619-2.713c-.542-.362-.995-.633-1.266-.814-.362-.181-.452-.272-.452-.272s-.181-.09-.452-.271c-.091 0-.181-.09-.272-.181-.09-.09-.181-.09-.271-.18-.091 0-.181-.091-.271-.091h-.815a5.495 5.495 0 01-2.261-.543c-.362-.181-.723-.452-1.085-.814-.181-.181-.362-.271-.452-.452l-.453-.453c-.271-.271-.452-.542-.633-.723l-.271-.272h1.99c.09 0 .271 0 .362.09.271 0 .542.091.814.182.542.09.995.271 1.447.542.362.181.723.453.995.724.271.271.362.543.452.814.09.271.181.452.181.633v.09h.09c.091.091.181.091.362.182.091.09.181.09.272.18.271.181.452.272.452.272l.542.271c.272.181.724.453 1.267.814.995.724 2.352 1.629 3.618 2.714s2.352 2.261 3.166 3.166c.09.09.181.271.271.361l.271.272c.181.18.272.362.453.542.09.181.181.272.271.362l.09.09s.091.182.362.453c.091.181.272.362.362.543.181.18.271.452.452.723.091.09.181.272.272.362.09.181.181.271.271.452.181.272.362.634.543.905.181.362.362.724.542.995.091.09.091.18.181.271 0 .09.091.181.091.272l.271.542c.724 1.448 1.266 2.985 1.538 4.161 0 .181.09.271.09.452 0 .09.091.272.091.362.09.271.09.452.181.633.09.362.09.543.09.543v.18c0 .091 0 .272.091.363 0 .18.09.361.09.633 0 .271.09.543.181.814 0 .271.09.633.09.995v1.085c.091.724.091 1.538.091 2.352 0 .814 0 1.628-.091 2.352v1.085c0 .362-.09.633-.09.995 0 .271-.091.543-.181.814 0 .272-.09.453-.09.633 0 .181-.091.272-.091.362v.181s-.09.181-.09.543c0 .18-.091.362-.181.633 0 .09-.091.271-.091.362 0 .09-.09.271-.09.452a40.858 40.858 0 01-1.538 4.16l-.271.544c0 .09-.091.18-.091.27-.09.091-.09.182-.181.272-.18.362-.361.724-.542.995a7.949 7.949 0 01-.543.905c-.09.18-.181.271-.271.452a1.25 1.25 0 01-.272.362c-.181.271-.361.452-.452.723-.181.181-.271.362-.362.543-.181.272-.362.452-.362.452l-.09.09c-.09.091-.181.182-.271.363-.091.18-.272.271-.453.542l-.271.272c-.09.09-.181.18-.271.361-.814.905-1.99 2.08-3.166 3.166-1.266 1.086-2.623 2.08-3.618 2.714-.543.362-.995.633-1.267.814l-.542.271s-.181.09-.452.272c-.091 0-.181.09-.272.18-.09.09-.181.09-.362.181-.271.09-.452.272-.723.362a24.715 24.715 0 01-4.251 1.628c-.362.181-.815.272-1.176.362-.181.09-.362.09-.633.181-.181.09-.362.09-.543.09l-1.086.272c-.361.09-.723.09-.995.18-.18 0-.27.091-.452.091-.18 0-.271 0-.362.09-.271 0-.452.091-.633.091-.362 0-.542.09-.542.09v-.27c-.091.361.18.361.542.27z" fill="url(#M)"/><path d="M101.919 69.263s-4.341 1.086-5.336 5.156l.09-4.704 4.975-.633.271.181z" fill="url(#N)"/><path opacity=".8" d="M9.363 93.252h2.126v9.93H9.647l-4.889-6.308v6.308H2.626v-9.93h1.848l4.89 6.315v-6.315zm6.807 8.019h5.318v1.911h-7.45v-9.93h7.305v1.918H16.17v1.987h4.037v1.912H16.17v2.202zm9.861-5.367c-.619.628-.928 1.401-.928 2.32 0 .914.31 1.685.928 2.313a3.052 3.052 0 002.258.941c.89 0 1.645-.314 2.264-.941.619-.628.928-1.4.928-2.313 0-.919-.31-1.692-.928-2.32a3.047 3.047 0 00-2.265-.949 3.04 3.04 0 00-2.257.949zm-1.572 5.976c-1.039-1.016-1.558-2.237-1.558-3.663 0-1.427.52-2.645 1.558-3.656 1.043-1.011 2.32-1.517 3.83-1.517 1.514 0 2.79.506 3.829 1.517 1.043 1.01 1.565 2.23 1.565 3.656 0 1.426-.522 2.647-1.565 3.663-1.039 1.011-2.315 1.517-3.83 1.517-1.51 0-2.786-.506-3.829-1.517zm14.12-8.628h7.305v1.918h-5.173v2.195h4.038v1.918H40.71v3.899h-2.13v-9.93zm11.411 2.652c-.618.628-.927 1.401-.927 2.32 0 .914.309 1.685.927 2.313a3.052 3.052 0 002.258.941c.89 0 1.646-.314 2.264-.941.619-.628.928-1.4.928-2.313 0-.919-.309-1.692-.928-2.32a3.047 3.047 0 00-2.264-.949 3.04 3.04 0 00-2.258.949zm-1.571 5.976c-1.04-1.016-1.558-2.237-1.558-3.663 0-1.427.519-2.645 1.558-3.656 1.043-1.011 2.32-1.517 3.829-1.517 1.514 0 2.79.506 3.83 1.517 1.043 1.01 1.564 2.23 1.564 3.656 0 1.426-.521 2.647-1.565 3.663-1.038 1.011-2.315 1.517-3.829 1.517-1.51 0-2.786-.506-3.83-1.517zm13.911-1.073c.434.448.954.671 1.558.671a2.07 2.07 0 001.551-.671c.43-.448.645-1.004.645-1.67v-5.885h2.125v5.886c0 1.209-.41 2.223-1.232 3.04-.822.812-1.854 1.219-3.096 1.219-1.237 0-2.266-.407-3.088-1.219-.822-.817-1.233-1.831-1.233-3.04v-5.886h2.126v5.886c0 .66.215 1.216.644 1.669zm15.103-7.555h2.126v9.93h-1.842l-4.889-6.308v6.308h-2.133v-9.93h1.85l4.888 6.315v-6.315zm4.674 0h3.691c1.445 0 2.657.48 3.636 1.44.978.96 1.468 2.135 1.468 3.525 0 1.39-.49 2.564-1.468 3.525-.98.96-2.19 1.44-3.636 1.44h-3.69v-9.93zm3.691 1.918H84.24v6.101h1.558c.822 0 1.524-.296 2.105-.887.582-.59.873-1.31.873-2.16 0-.854-.284-1.577-.852-2.168-.568-.59-1.276-.886-2.126-.886zM97.425 99l-1.205-3.262-1.212 3.261h2.417zm.706 1.841h-3.83l-.851 2.341h-2.271l3.905-9.93h2.265l3.905 9.93h-2.271l-.852-2.341zm2.694-7.59h7.797v1.919h-2.832v8.012h-2.126V95.17h-2.839v-1.918zm9.355 9.931v-9.93h2.133v9.93h-2.133zm7.243-7.278c-.618.628-.928 1.401-.928 2.32 0 .914.31 1.685.928 2.313a3.053 3.053 0 002.258.941c.891 0 1.646-.314 2.264-.941.619-.628.928-1.4.928-2.313 0-.919-.309-1.692-.928-2.32a3.045 3.045 0 00-2.264-.949 3.04 3.04 0 00-2.258.949zm-1.572 5.976c-1.038-1.016-1.558-2.237-1.558-3.663 0-1.427.52-2.645 1.558-3.656 1.044-1.011 2.32-1.517 3.83-1.517 1.514 0 2.79.506 3.829 1.517 1.043 1.01 1.565 2.23 1.565 3.656 0 1.426-.522 2.647-1.565 3.663-1.039 1.011-2.315 1.517-3.829 1.517-1.51 0-2.786-.506-3.83-1.517zm17.949-8.628h2.126v9.93h-1.842l-4.889-6.308v6.308h-2.133v-9.93h1.849l4.889 6.315v-6.315zm-97.347 19h4.182c1.02 0 1.865.321 2.535.962.674.637 1.01 1.429 1.01 2.376 0 .941-.334 1.733-1.003 2.375-.67.637-1.517.955-2.542.955h-2.05v3.262h-2.132v-9.93zm4.113 1.918h-1.98v2.832h1.98c.425 0 .778-.136 1.06-.408.286-.273.429-.607.429-1.004s-.143-.732-.43-1.005c-.281-.277-.634-.415-1.059-.415zm9.778 3.829l-1.205-3.261-1.212 3.261h2.417zm.706 1.842h-3.83l-.851 2.341h-2.271l3.905-9.93h2.264l3.906 9.93h-2.271l-.852-2.341zm4.543 2.341v-9.93h4.397c.983 0 1.796.316 2.437.949.647.627.97 1.398.97 2.312 0 .397-.063.769-.187 1.115a2.886 2.886 0 01-.443.838 3.871 3.871 0 01-.513.547 1.946 1.946 0 01-.45.312l-.18.097 2.126 3.76h-2.271l-1.912-3.476h-1.842v3.476h-2.132zm5.678-6.669c0-.387-.13-.708-.388-.962-.254-.254-.575-.381-.963-.381h-2.195v2.624h2.195c.388 0 .71-.122.963-.367a1.22 1.22 0 00.388-.914zm3.11-3.261h7.796v1.918h-2.832v8.012H67.22v-8.012h-2.84v-1.918zm16.092 0H82.6v9.93h-1.842l-4.889-6.309v6.309h-2.133v-9.93h1.85l4.888 6.315v-6.315zm6.807 8.019h5.318v1.911h-7.45v-9.93h7.305v1.918H87.28v1.987h4.037v1.912H87.28v2.202zm7.299 1.911v-9.93h4.397c.983 0 1.796.316 2.437.949.647.627.97 1.398.97 2.312 0 .397-.062.769-.187 1.115a2.913 2.913 0 01-.443.838 3.885 3.885 0 01-.513.547 1.927 1.927 0 01-.45.312l-.18.097 2.126 3.76h-2.271l-1.912-3.476h-1.841v3.476h-2.133zm5.678-6.669a1.29 1.29 0 00-.388-.962c-.254-.254-.575-.381-.962-.381h-2.195v2.624h2.195c.387 0 .708-.122.962-.367a1.22 1.22 0 00.388-.914z" fill="#fff"/><path d="M61.942 49.504c.794.713 1.19 1.774 1.19 3.143v7.116h-1.738v-6.499c0-1.157-.246-2.005-.738-2.526-.491-.52-1.134-.771-1.947-.771a3.674 3.674 0 00-1.645.385 3.08 3.08 0 00-1.248 1.273c-.34.579-.491 1.33-.491 2.218v5.92h-1.759v-10.8l1.607.676.038.732a3.338 3.338 0 011.513-1.484 4.612 4.612 0 012.155-.483c1.235 0 2.256.367 3.063 1.1zm13.646 5.232H67.26c.096 1.115.479 1.966 1.11 2.57.632.605 1.474.927 2.489.927a4.55 4.55 0 002.029-.416c.508-.25.899-.683 1.091-1.21l1.473.775a4.353 4.353 0 01-1.76 1.758c-.728.416-1.685.623-2.833.623-1.665 0-2.967-.51-3.924-1.511-.957-1.002-1.417-2.4-1.417-4.177 0-1.777.44-3.156 1.36-4.158.918-1.002 2.182-1.512 3.847-1.512a5.09 5.09 0 012.68.68 4.385 4.385 0 011.703 1.834c.39.808.586 1.694.574 2.589a8.892 8.892 0 01-.095 1.228zm-7.216-3.95c-.594.567-.957 1.361-1.091 2.4h6.699c-.115-1.02-.46-1.814-1.015-2.38-.555-.568-1.301-.87-2.24-.87-.937 0-1.76.283-2.353.85zm19.028-.87c.963 1.001 1.444 2.381 1.444 4.158 0 1.777-.481 3.175-1.444 4.177-.962 1.002-2.272 1.512-3.946 1.512-1.676 0-2.985-.51-3.947-1.512-.963-1.002-1.425-2.4-1.425-4.177 0-1.777.481-3.157 1.425-4.158.943-1.002 2.271-1.513 3.947-1.513 1.674 0 3.003.51 3.946 1.513zm-6.585 1.115c-.635.737-.962 1.758-.962 3.043 0 1.285.328 2.325.963 3.062.635.737 1.52 1.115 2.638 1.115 1.116 0 2.02-.378 2.656-1.115.636-.737.944-1.758.944-3.062 0-1.304-.308-2.306-.944-3.043-.635-.737-1.52-1.115-2.656-1.115-1.136 0-2.003.359-2.638 1.115zM54.91 7.177v23.668l15.673 5.511V12.482l16.904-6.1L72.144.987 54.91 7.178z" fill="#fff"/><path d="M71.664 13.255v12.904l15.823 5.543v-24.2l-15.823 5.753z" fill="#fff"/><defs><linearGradient id="u" x1="107.074" y1="68.902" x2="107.074" y2="71.886" gradientUnits="userSpaceOnUse"><stop offset=".177" stop-color="#fff"/><stop offset="1" stop-color="#fff" stop-opacity="0"/></linearGradient><linearGradient id="a" x1="34.789" y1="68.902" x2="34.789" y2="71.886" gradientUnits="userSpaceOnUse"><stop offset=".177" stop-color="#fff"/><stop offset="1" stop-color="#fff" stop-opacity="0"/></linearGradient><linearGradient id="c" x1="26.713" y1="65.012" x2="26.713" y2="67.816" gradientUnits="userSpaceOnUse"><stop offset=".177" stop-color="#fff"/><stop offset="1" stop-color="#fff" stop-opacity="0"/></linearGradient><linearGradient id="d" x1="30.447" y1="58.499" x2="30.447" y2="65.012" gradientUnits="userSpaceOnUse"><stop offset=".177" stop-color="#fff"/><stop offset="1" stop-color="#fff" stop-opacity="0"/></linearGradient><linearGradient id="e" x1="19.794" y1="58.047" x2="19.794" y2="61.261" gradientUnits="userSpaceOnUse"><stop offset=".177" stop-color="#fff"/><stop offset="1" stop-color="#fff" stop-opacity="0"/></linearGradient><linearGradient id="f" x1="24.521" y1="52.711" x2="24.521" y2="59.675" gradientUnits="userSpaceOnUse"><stop offset=".177" stop-color="#fff"/><stop offset="1" stop-color="#fff" stop-opacity="0"/></linearGradient><linearGradient id="g" x1="15.071" y1="49.002" x2="15.071" y2="53.525" gradientUnits="userSpaceOnUse"><stop offset=".177" stop-color="#fff"/><stop offset="1" stop-color="#fff" stop-opacity="0"/></linearGradient><linearGradient id="h" x1="20.359" y1="46.289" x2="20.359" y2="52.801" gradientUnits="userSpaceOnUse"><stop offset=".177" stop-color="#fff"/><stop offset="1" stop-color="#fff" stop-opacity="0"/></linearGradient><linearGradient id="i" x1="13.091" y1="39.596" x2="13.091" y2="45.384" gradientUnits="userSpaceOnUse"><stop offset=".177" stop-color="#fff"/><stop offset="1" stop-color="#fff" stop-opacity="0"/></linearGradient><linearGradient id="j" x1="18.688" y1="39.415" x2="18.688" y2="45.113" gradientUnits="userSpaceOnUse"><stop offset=".177" stop-color="#fff"/><stop offset="1" stop-color="#fff" stop-opacity="0"/></linearGradient><linearGradient id="k" x1="13.396" y1="29.555" x2="13.396" y2="36.52" gradientUnits="userSpaceOnUse"><stop offset=".177" stop-color="#fff"/><stop offset="1" stop-color="#fff" stop-opacity="0"/></linearGradient><linearGradient id="l" x1="19.141" y1="32.178" x2="19.141" y2="36.611" gradientUnits="userSpaceOnUse"><stop offset=".177" stop-color="#fff"/><stop offset="1" stop-color="#fff" stop-opacity="0"/></linearGradient><linearGradient id="m" x1="16.473" y1="20.329" x2="16.473" y2="27.927" gradientUnits="userSpaceOnUse"><stop offset=".177" stop-color="#fff"/><stop offset="1" stop-color="#fff" stop-opacity="0"/></linearGradient><linearGradient id="n" x1="21.672" y1="25.485" x2="21.672" y2="28.651" gradientUnits="userSpaceOnUse"><stop offset=".177" stop-color="#fff"/><stop offset="1" stop-color="#fff" stop-opacity="0"/></linearGradient><linearGradient id="o" x1="21.691" y1="12.912" x2="21.691" y2="20.601" gradientUnits="userSpaceOnUse"><stop offset=".177" stop-color="#fff"/><stop offset="1" stop-color="#fff" stop-opacity="0"/></linearGradient><linearGradient id="p" x1="26.24" y1="19.424" x2="26.24" y2="21.866" gradientUnits="userSpaceOnUse"><stop offset=".177" stop-color="#fff"/><stop offset="1" stop-color="#fff" stop-opacity="0"/></linearGradient><linearGradient id="q" x1="29.497" y1="7.214" x2="29.497" y2="14.359" gradientUnits="userSpaceOnUse"><stop offset=".177" stop-color="#fff"/><stop offset="1" stop-color="#fff" stop-opacity="0"/></linearGradient><linearGradient id="r" x1="32.21" y1="14.251" x2="32.21" y2="16.892" gradientUnits="userSpaceOnUse"><stop offset=".177" stop-color="#fff"/><stop offset="1" stop-color="#fff" stop-opacity="0"/></linearGradient><linearGradient id="s" x1="29.867" y1="8.389" x2="29.867" y2="69.585" gradientUnits="userSpaceOnUse"><stop offset=".177" stop-color="#fff"/><stop offset="1" stop-color="#fff" stop-opacity="0"/></linearGradient><linearGradient id="t" x1="42.612" y1="69.082" x2="42.612" y2="74.419" gradientUnits="userSpaceOnUse"><stop offset=".177" stop-color="#fff"/><stop offset="1" stop-color="#fff" stop-opacity="0"/></linearGradient><linearGradient id="b" x1="37.249" y1="62.389" x2="37.249" y2="68.2" gradientUnits="userSpaceOnUse"><stop offset=".177" stop-color="#fff"/><stop offset="1" stop-color="#fff" stop-opacity="0"/></linearGradient><linearGradient id="v" x1="104.614" y1="62.389" x2="104.614" y2="68.2" gradientUnits="userSpaceOnUse"><stop offset=".177" stop-color="#fff"/><stop offset="1" stop-color="#fff" stop-opacity="0"/></linearGradient><linearGradient id="w" x1="115.151" y1="65.012" x2="115.151" y2="67.816" gradientUnits="userSpaceOnUse"><stop offset=".177" stop-color="#fff"/><stop offset="1" stop-color="#fff" stop-opacity="0"/></linearGradient><linearGradient id="x" x1="111.416" y1="58.499" x2="111.416" y2="65.012" gradientUnits="userSpaceOnUse"><stop offset=".177" stop-color="#fff"/><stop offset="1" stop-color="#fff" stop-opacity="0"/></linearGradient><linearGradient id="y" x1="122.069" y1="58.047" x2="122.069" y2="61.261" gradientUnits="userSpaceOnUse"><stop offset=".177" stop-color="#fff"/><stop offset="1" stop-color="#fff" stop-opacity="0"/></linearGradient><linearGradient id="z" x1="117.342" y1="52.711" x2="117.342" y2="59.675" gradientUnits="userSpaceOnUse"><stop offset=".177" stop-color="#fff"/><stop offset="1" stop-color="#fff" stop-opacity="0"/></linearGradient><linearGradient id="A" x1="126.793" y1="49.002" x2="126.793" y2="53.525" gradientUnits="userSpaceOnUse"><stop offset=".177" stop-color="#fff"/><stop offset="1" stop-color="#fff" stop-opacity="0"/></linearGradient><linearGradient id="B" x1="121.504" y1="46.289" x2="121.504" y2="52.801" gradientUnits="userSpaceOnUse"><stop offset=".177" stop-color="#fff"/><stop offset="1" stop-color="#fff" stop-opacity="0"/></linearGradient><linearGradient id="C" x1="128.772" y1="39.596" x2="128.772" y2="45.384" gradientUnits="userSpaceOnUse"><stop offset=".177" stop-color="#fff"/><stop offset="1" stop-color="#fff" stop-opacity="0"/></linearGradient><linearGradient id="D" x1="123.176" y1="39.415" x2="123.176" y2="45.113" gradientUnits="userSpaceOnUse"><stop offset=".177" stop-color="#fff"/><stop offset="1" stop-color="#fff" stop-opacity="0"/></linearGradient><linearGradient id="E" x1="128.468" y1="29.555" x2="128.468" y2="36.52" gradientUnits="userSpaceOnUse"><stop offset=".177" stop-color="#fff"/><stop offset="1" stop-color="#fff" stop-opacity="0"/></linearGradient><linearGradient id="F" x1="122.722" y1="32.178" x2="122.722" y2="36.611" gradientUnits="userSpaceOnUse"><stop offset=".177" stop-color="#fff"/><stop offset="1" stop-color="#fff" stop-opacity="0"/></linearGradient><linearGradient id="G" x1="125.391" y1="20.329" x2="125.391" y2="27.927" gradientUnits="userSpaceOnUse"><stop offset=".177" stop-color="#fff"/><stop offset="1" stop-color="#fff" stop-opacity="0"/></linearGradient><linearGradient id="H" x1="120.191" y1="25.485" x2="120.191" y2="28.651" gradientUnits="userSpaceOnUse"><stop offset=".177" stop-color="#fff"/><stop offset="1" stop-color="#fff" stop-opacity="0"/></linearGradient><linearGradient id="I" x1="120.173" y1="12.912" x2="120.173" y2="20.601" gradientUnits="userSpaceOnUse"><stop offset=".177" stop-color="#fff"/><stop offset="1" stop-color="#fff" stop-opacity="0"/></linearGradient><linearGradient id="J" x1="115.623" y1="19.424" x2="115.623" y2="21.866" gradientUnits="userSpaceOnUse"><stop offset=".177" stop-color="#fff"/><stop offset="1" stop-color="#fff" stop-opacity="0"/></linearGradient><linearGradient id="K" x1="112.366" y1="7.214" x2="112.366" y2="14.359" gradientUnits="userSpaceOnUse"><stop offset=".177" stop-color="#fff"/><stop offset="1" stop-color="#fff" stop-opacity="0"/></linearGradient><linearGradient id="L" x1="109.653" y1="14.251" x2="109.653" y2="16.892" gradientUnits="userSpaceOnUse"><stop offset=".177" stop-color="#fff"/><stop offset="1" stop-color="#fff" stop-opacity="0"/></linearGradient><linearGradient id="M" x1="111.996" y1="8.389" x2="111.996" y2="69.585" gradientUnits="userSpaceOnUse"><stop offset=".177" stop-color="#fff"/><stop offset="1" stop-color="#fff" stop-opacity="0"/></linearGradient><linearGradient id="N" x1="99.251" y1="69.082" x2="99.251" y2="74.419" gradientUnits="userSpaceOnUse"><stop offset=".177" stop-color="#fff"/><stop offset="1" stop-color="#fff" stop-opacity="0"/></linearGradient></defs></svg>