<svg width="54" height="53" fill="none" xmlns="http://www.w3.org/2000/svg"><path d="M26.58 24c6.647 0 12.036-5.373 12.036-12S33.227 0 26.58 0c-6.648 0-12.037 5.373-12.037 12s5.389 12 12.037 12z" fill="#88BDF3"/><path d="M26.58 53c6.647 0 12.036-5.373 12.036-12S33.227 29 26.58 29c-6.648 0-12.037 5.373-12.037 12s5.389 12 12.037 12z" fill="#3075EE"/><path d="M41.127 38.5c6.647 0 12.036-5.373 12.036-12s-5.389-12-12.036-12c-6.648 0-12.037 5.373-12.037 12s5.389 12 12.037 12z" fill="#5795F1"/><path d="M12.037 38.5c6.647 0 12.036-5.373 12.036-12s-5.389-12-12.036-12C5.389 14.5 0 19.873 0 26.5s5.389 12 12.037 12z" fill="#205FEC"/><path fill-rule="evenodd" clip-rule="evenodd" d="M23.735 23.663a12.038 12.038 0 01-8.852-8.826 12.038 12.038 0 018.852 8.826z" fill="#134BEF"/><path fill-rule="evenodd" clip-rule="evenodd" d="M14.883 38.163a12.038 12.038 0 018.852-8.826 12.038 12.038 0 01-8.852 8.826z" fill="#0932E8"/><path fill-rule="evenodd" clip-rule="evenodd" d="M29.43 29.337a12.037 12.037 0 018.852 8.826 12.038 12.038 0 01-8.852-8.826z" fill="#164BEA"/><path fill-rule="evenodd" clip-rule="evenodd" d="M38.282 14.837a12.037 12.037 0 01-8.852 8.826 12.038 12.038 0 018.852-8.826z" fill="#3170F1"/></svg>