<svg width="155" height="124" fill="none" xmlns="http://www.w3.org/2000/svg"><path d="M44.201 66.193h-.995c-.09 0-.271.09-.361.09-.453.091-.995.363-1.538.543-.543.181-.995.453-1.447.724-.453.272-.905.452-1.176.633a4.752 4.752 0 01-.452.272l.09.09c.09 0 .18.09.362.09.362.091.814.181 1.266.272.09 0 .271.09.362.09.18 0 .271 0 .452.09.271 0 .543.091.905.091.542 0 1.176-.09 1.628-.18.995-.272 1.628-.905 2.08-1.357.453-.543.633-.905.633-.905s-.361-.18-.904-.362c-.181-.18-.452-.18-.905-.18z" fill="url(#a)"/><path d="M45.737 62.213c-.271-.361-.543-.723-.814-.995-.18-.18-.362-.271-.452-.452-.09-.09-.181-.09-.271-.18-.09-.091-.181-.091-.272-.182-.271-.271-.542-.452-.814-.542-.18-.181-.362-.181-.362-.181v.452c0 .271 0 .723.09 1.176.091.452.182.995.272 1.447.181.452.362.995.633 1.357.09.09.09.18.181.271l.09.09.091.091c.181.18.271.271.452.362.181.09.272.18.453.271.18.09.271.09.452.181.543.181.904.09.904.09s.09-.452 0-1.085c0-.362-.09-.724-.18-1.085 0-.09-.091-.181-.091-.272 0-.09-.09-.18-.09-.271 0-.18-.09-.362-.272-.543z" fill="url(#b)"/><path d="M38.05 63.299s-.09-.09-.181-.09a2.821 2.821 0 00-.543-.363.691.691 0 00-.452-.18c-.181-.09-.362-.09-.543-.181-.362-.09-.814-.181-1.266-.181-.272 0-.543 0-.814.09-.272 0-.543.09-.814.09-.272 0-.543.091-.814.181-.272.091-.543.091-.814.181-.543.09-.995.181-1.267.272-.362.09-.543.09-.543.09s.181.09.453.272c.18.09.271.18.542.27.09.091.181.091.272.182.09.09.18.09.362.18.271.091.452.182.723.363.09.09.272.09.362.18.09 0 .09.09.181.09.09 0 .18 0 .18.091a5.119 5.119 0 001.629.272c1.085 0 1.9-.453 2.442-.814.271-.181.452-.362.633-.543.272-.271.362-.452.272-.452 0 0 .09 0 0 0z" fill="url(#c)"/><path d="M36.603 60.223c.09.452.362.814.543 1.086.09.18.271.27.361.361.091.09.272.181.362.272.272.18.453.271.633.271.09 0 .181 0 .181.09h.09s.091-.09.091-.27c.09-.182.09-.453.181-.724.09-.634.181-1.448-.09-2.262a2.803 2.803 0 00-.543-1.176 4.016 4.016 0 00-.724-.995c-.09-.18-.27-.27-.361-.452-.09-.09-.181-.271-.272-.362l-.271-.271s-.09.18-.09.452a4.002 4.002 0 00-.181 1.176c0 .272-.09.452-.09.724v.723c0 .272 0 .543.09.724 0 .18 0 .452.09.633z" fill="url(#d)"/><path d="M30.905 57.6c-.09-.18-.271-.361-.452-.542-.181-.181-.453-.453-.814-.633-.362-.181-.724-.362-1.176-.543-.181 0-.362-.09-.543-.09-.18 0-.362-.091-.543-.091-.904-.181-1.9-.181-2.713-.271-.814 0-1.357-.09-1.357-.09s.18.27.543.632c.271.362.814.814 1.356 1.267.09.09.181.09.272.18l.09.09s.09.091.181.091c.181.09.362.272.543.362l.543.272c.18.09.361.18.542.18.995.272 1.9.09 2.533-.09.633-.271.995-.543.995-.543s.09-.09 0-.18z" fill="url(#e)"/><path d="M31.175 56.425l.452.452c.181.09.272.09.272.09s.271-.362.633-.904c.271-.543.633-1.357.633-2.262 0-.271 0-.633-.09-.995 0-.18-.09-.27-.09-.452 0-.18-.091-.271-.091-.452-.09-.271-.181-.452-.272-.724 0-.09-.09-.09-.09-.18 0-.091 0-.091-.09-.181 0-.09-.091-.181-.091-.272l-.271-.543s-.272.453-.634 1.086l-.271.543c0 .09-.09.18-.09.27 0 .091-.09.182-.09.272-.182.362-.272.814-.363 1.267 0 .18-.09.361-.09.452v.452c0 .452.09.814.18 1.176.091.362.272.633.453.904z" fill="url(#f)"/><path d="M24.121 50.817h.543c.724 0 1.085-.181 1.085-.181s0-.09-.09-.272c0-.09-.09-.18-.09-.27 0-.091-.09-.182-.181-.363-.09-.271-.272-.542-.543-.814l-.181-.18c-.09-.091-.18-.181-.271-.181-.181-.181-.362-.272-.543-.362-.18-.09-.452-.272-.724-.362-.271-.09-.452-.272-.723-.362-.543-.18-1.086-.452-1.538-.543-.452-.18-.904-.361-1.266-.452l-.543-.18s.09.18.18.451l.272.543c.09.181.272.362.362.633.09.181.271.453.452.634 0 .09.09.09.09.18s.091.09.091.181c.09.09.181.181.272.362.18.181.361.452.633.633l.271.272c.09.09.181.18.362.18.452.272.904.453 1.357.453.361-.09.542 0 .723 0z" fill="url(#g)"/><path d="M26.108 48.374c0 .362.181.633.272.905.09.09.09.271.18.362.091.09.091.18.182.27l.18.182s.362-.272.815-.724c.09-.09.18-.271.361-.362.09-.18.272-.27.362-.452.181-.362.453-.724.543-1.085 0-.09.09-.181.09-.272 0-.09.09-.18.09-.361s.091-.453.091-.634v-1.266c0-.18 0-.362-.09-.543v-.452c0-.271-.09-.362-.09-.362s-.181.09-.362.362l-.814.814c-.272.362-.634.724-.905 1.176-.18.181-.271.452-.362.633-.09.181-.18.453-.271.633-.09.181-.09.453-.09.633v.452c-.181 0-.181.091-.181.091z" fill="url(#h)"/><path d="M20.14 41.862c.181.09.362.271.543.362.362.18.724.271 1.085.362.633.09 1.176.09 1.176.09s.09-.362-.09-.904c0-.181-.09-.272-.09-.453-.091-.18-.091-.361-.182-.452l-.271-.543c-.09-.09-.09-.18-.18-.271l-.091-.09-.09-.09c-.634-.724-1.72-1.448-2.533-1.99-.453-.272-.815-.544-1.086-.724-.271-.181-.452-.272-.452-.272s0 .181.09.543c.09.362.181.724.272 1.266.18.453.361.995.542 1.538.09.09.09.271.181.362.09.09.181.271.181.362.181.27.362.452.453.633.18-.09.361.09.542.271z" fill="url(#i)"/><path d="M24.21 42.405s.453-.181.995-.453c.272-.18.634-.361.905-.633.18-.09.271-.271.452-.452.181-.18.272-.362.362-.543.09-.18.181-.361.362-.542.09-.181.18-.362.271-.633.181-.453.272-.815.362-1.176.09-.362.181-.724.181-.905v-.362s-.181.09-.452.181c-.272.181-.633.362-.995.633-.362.272-.814.543-1.176.905s-.724.724-.995 1.085l-.271.543c-.09.18-.09.362-.181.543 0 .18-.09.362-.09.542v.453c.09.452.27.814.27.814z" fill="url(#j)"/><path d="M19.145 29.922c0 .181.09.453.09.633.09.453.181.814.362 1.176.271.453.543.814.814 1.086.271.271.633.452.905.633.633.271 1.085.362 1.085.362s0-.09.09-.272c0-.18.091-.361.091-.633 0-.271 0-.633-.09-.995s-.181-.723-.362-1.176c-.09-.18-.181-.271-.272-.452-.09-.09-.09-.18-.18-.18-.09-.091-.09-.182-.181-.182l-.814-1.085c-.272-.362-.543-.724-.814-.995a8.616 8.616 0 00-.815-.995s-.09.271-.09.814c0 .271-.09.543-.09.814v.995c.18.09.18.271.27.452z" fill="url(#k)"/><path d="M26.925 32.636l.18-.18.182-.182c.09-.09.18-.271.362-.362.09-.09.18-.271.27-.361a1.26 1.26 0 01.272-.362c.181-.181.272-.453.362-.633.09-.09.09-.181.181-.272 0-.09.09-.18.18-.271l.272-.543s-.543.09-1.266.272c-.181.09-.362.09-.543.18-.18.09-.362.09-.633.181-.362.181-.814.362-1.176.543l-.814.543c-.362.271-.633.633-.724.904-.18.362-.27.633-.27.905v.633c0 .18.09.271.09.271s.452 0 1.085-.18c.543-.181 1.357-.453 1.99-1.086z" fill="url(#l)"/><path d="M22.945 23.681c.181.362.453.633.724.905.452.452.904.633.904.633l.181-.181c.09-.181.181-.362.272-.633.09-.272.18-.543.271-.905v-.633c0-.18 0-.452-.09-.633 0-.272-.09-.452-.181-.724 0-.09-.09-.271-.09-.362 0-.09-.091-.27-.091-.361a11.092 11.092 0 00-.633-1.538 4.313 4.313 0 00-.272-.633l-.271-.543c-.09-.271-.18-.452-.18-.452s-.091.18-.272.452c-.09.181-.181.362-.181.543-.09.18-.181.452-.271.633 0 .09-.09.271-.09.362 0 .09-.091.271-.091.362-.09.27-.09.542-.181.814 0 .271-.09.542-.09.814 0 .271 0 .542.09.814.18.543.362.904.542 1.266z" fill="url(#m)"/><path d="M29.818 25.038c.181-.09.362-.271.543-.362.181-.18.362-.271.452-.452l.453-.452.361-.362.181-.181c.09-.09.09-.09.09-.181l.272-.271h-1.628c-.452 0-.995.09-1.538.18-.09 0-.271.091-.362.091-.09 0-.27.09-.361.09-.272.09-.453.181-.724.272-.18.09-.362.18-.543.362-.18.09-.271.27-.452.361-.271.272-.452.543-.543.814-.09.272-.18.453-.18.634v.271s.452.09 1.085.09c.362 0 .724 0 1.085-.09.362-.09.814-.18 1.267-.362.18-.18.361-.362.542-.452z" fill="url(#n)"/><path d="M27.736 15.993c.09.362.272.723.453.995.361.542.723.904.723.904s.362-.18.724-.633c.09-.09.18-.271.271-.362.09-.18.181-.271.271-.452.181-.362.272-.724.272-1.266.09-.453 0-.995 0-1.538s-.09-1.085-.181-1.628c-.09-.543-.09-.905-.181-1.266-.09-.272-.09-.543-.09-.543l-.09.09-.272.272a6.6 6.6 0 01-.814.995c-.272.452-.543.904-.814 1.447-.181.543-.362 1.085-.453 1.538v.723c0 .362.09.543.181.724z" fill="url(#o)"/><path d="M33.979 19.068c.09 0 .18-.09.362-.09.09 0 .09 0 .18-.091.091 0 .091 0 .181-.09.453-.181.815-.362 1.176-.543.362-.181.633-.362.814-.453.09-.09.181-.09.272-.18.09 0 .09-.09.09-.09l-.09-.091c-.09 0-.181-.09-.362-.09-.271-.091-.724-.182-1.176-.363-.271-.09-.452-.09-.724-.18-.09 0-.27 0-.361-.09h-1.9c-.452.09-.814.27-1.176.451-.18.09-.271.181-.452.272-.09.09-.18.18-.271.361-.362.453-.453.815-.453.815s.453.27 1.086.361c.362.09.723.181 1.085.181h1.267s.18 0 .452-.09z" fill="url(#p)"/><path d="M35.156 11.38c.09.18.181.271.181.271h.09s.09 0 .181-.09c.181-.09.362-.181.634-.362a4.291 4.291 0 001.356-1.81c.09-.27.272-.632.362-.994l.271-1.357c.09-.452.181-.905.272-1.266.09-.724.18-1.267.18-1.267s-.27.181-.632.453c-.181.18-.453.271-.634.452-.27.18-.452.452-.723.633l-.453.452-.09.09-.09.091c-.09.09-.09.181-.181.272-.272.361-.453.723-.633 1.085-.09.271-.181.452-.181.724 0 .18-.09.452-.09.633 0 .452.09.814.09 1.085-.09.543 0 .724.09.905z" fill="url(#q)"/><path d="M41.125 14.003c.272-.09.543-.09.724-.181.271-.09.452-.09.633-.181.362-.09.543-.181.543-.181s-.362-.271-.995-.724a6.022 6.022 0 00-1.086-.542 5.233 5.233 0 00-1.266-.453c-.362-.09-.633-.18-.905-.18-.904-.091-1.628.18-2.08.542-.271.181-.362.272-.543.453-.09.09-.09.09-.09.18v.09s.09.091.271.182c.181.09.362.271.633.452.272.18.633.362.995.452.181.09.362.181.633.181.181.09.453.09.634.09.633 0 1.266-.09 1.9-.18z" fill="url(#r)"/><path d="M50.803 66.826c-.18 0-.362-.09-.633-.09-.09 0-.271 0-.362-.09-.18 0-.271-.091-.452-.091-.272-.09-.633-.09-.995-.181l-1.085-.271c-.181 0-.362-.09-.543-.09-.181-.091-.362-.091-.543-.182-.362-.09-.814-.18-1.176-.362-1.628-.452-3.075-1.085-4.251-1.628-.271-.18-.543-.271-.724-.361-.09-.09-.18-.09-.27-.181-.091-.09-.182-.09-.272-.181a4.711 4.711 0 00-.453-.272s-.18-.09-.452-.27c-.271-.182-.723-.453-1.266-.815-.995-.633-2.352-1.628-3.618-2.714-1.267-1.085-2.352-2.26-3.166-3.165a1.26 1.26 0 01-.271-.362l-.272-.272c-.18-.18-.271-.361-.361-.452-.091-.09-.181-.271-.272-.361l-.09-.091s-.09-.18-.362-.452c-.09-.181-.272-.272-.362-.543-.18-.18-.271-.452-.452-.724-.09-.09-.181-.27-.272-.361-.09-.181-.18-.272-.27-.453-.182-.271-.363-.633-.544-.904-.18-.362-.361-.633-.542-.995-.09-.09-.09-.181-.181-.271 0-.09-.09-.181-.09-.272l-.272-.542c-.633-1.448-1.266-2.985-1.538-4.161 0-.181-.09-.272-.09-.452 0-.091-.09-.272-.09-.362-.091-.272-.091-.453-.181-.633-.091-.362-.09-.543-.09-.543v-.181c0-.09 0-.271-.091-.362 0-.18-.09-.362-.09-.633s-.091-.543-.182-.814c0-.272-.09-.633-.09-.995v-1.086c-.09-.723-.09-1.537-.09-2.351 0-.814 0-1.628.09-2.352v-1.085c0-.362.09-.634.09-.995 0-.272.09-.543.181-.814 0-.272.09-.453.09-.634 0-.18.091-.271.091-.361v-.181s.09-.181.09-.543c0-.18.091-.362.181-.633 0-.09.09-.271.09-.362 0-.09.091-.271.091-.452.362-1.176.905-2.623 1.538-4.161l.271-.543c0-.09.09-.18.09-.271.091-.09.091-.181.182-.271.18-.362.361-.724.542-.995a7.95 7.95 0 01.543-.905c.09-.18.181-.271.271-.452.09-.181.181-.271.272-.362.18-.271.362-.452.452-.724.181-.18.271-.361.362-.542.18-.272.362-.453.362-.453l.09-.09c.09-.09.09-.18.271-.362.09-.18.272-.271.362-.452l.272-.271c.09-.09.18-.181.271-.362.814-.905 1.9-2.08 3.166-3.166a37.576 37.576 0 013.618-2.714c.543-.361.995-.633 1.266-.814.362-.18.452-.271.452-.271s.181-.09.453-.271c.09 0 .18-.09.271-.181.09-.09.18-.09.271-.181.09 0 .181-.09.272-.09h.814c.633 0 1.538-.181 2.261-.543.362-.181.724-.453 1.085-.814.181-.181.362-.272.453-.453l.452-.452c.271-.271.452-.543.633-.723l.272-.272h-1.99c-.09 0-.272 0-.362.09-.272 0-.543.091-.814.182-.543.09-.995.27-1.448.542a4.007 4.007 0 00-.994.724c-.272.271-.362.543-.453.814-.09.271-.18.452-.18.633v.09h-.091c-.09.09-.181.09-.362.181-.09.09-.18.09-.271.181a4.827 4.827 0 01-.453.272l-.542.271c-.271.18-.724.452-1.267.814-.995.724-2.351 1.628-3.617 2.714-1.267 1.085-2.352 2.26-3.166 3.165-.09.09-.181.272-.272.362l-.271.272c-.181.18-.271.361-.452.542-.09.181-.181.272-.272.362l-.09.09s-.09.181-.362.453c-.09.18-.271.362-.362.543-.18.18-.271.452-.452.723-.09.09-.18.271-.271.362-.09.18-.181.271-.272.452-.18.271-.361.633-.542.905-.181.361-.362.723-.543.995-.09.09-.09.18-.181.271 0 .09-.09.18-.09.271l-.272.543c-.723 1.447-1.266 2.985-1.538 4.16 0 .182-.09.272-.09.453 0 .09-.09.271-.09.362-.09.271-.09.452-.181.633-.09.362-.09.543-.09.543v.18c0 .091 0 .272-.091.363 0 .18-.09.361-.09.633 0 .271-.091.542-.182.814 0 .271-.09.633-.09.995v1.085c-.09.724-.09 1.538-.09 2.352 0 .814 0 1.628.09 2.352v1.085c0 .362.09.633.09.995 0 .271.09.543.181.814 0 .271.09.452.09.633s.091.272.091.362v.18s.09.182.09.544c0 .18.091.361.182.633 0 .09.09.271.09.361 0 .091.09.272.09.453a40.756 40.756 0 001.538 4.16l.271.543c0 .09.091.181.091.272.09.09.09.18.18.271.182.362.363.724.544.995.18.362.361.633.542.904.09.181.181.272.272.453.09.18.18.271.271.361.18.272.362.453.452.724.181.181.272.362.362.543.181.271.362.452.362.452l.09.09c.09.091.181.181.272.362.09.181.271.272.452.543l.271.271c.09.09.181.181.272.362.814.905 1.99 2.08 3.166 3.166 1.266 1.085 2.623 2.08 3.617 2.714.543.361.995.633 1.267.814l.543.271s.18.09.452.271c.09 0 .18.09.271.181.09.09.181.09.362.181.271.09.452.271.724.362a24.692 24.692 0 004.25 1.628c.363.181.815.271 1.177.362.18.09.361.09.633.18.18.091.362.091.543.091l1.085.272c.362.09.724.09.995.18.18 0 .271.09.452.09s.272 0 .362.091c.271 0 .452.09.633.09.362 0 .543.091.543.091v-.271c.09.362-.181.362-.543.271z" fill="url(#s)"/><path d="M47.276 66.555s4.341 1.085 5.336 5.156l-.09-4.704-4.975-.633-.271.18z" fill="url(#t)"/><path d="M112.338 66.193h.995c.09 0 .271.09.361.09.453.091.995.363 1.538.543.543.181.995.453 1.447.724.453.272.905.452 1.176.633.272.181.452.272.452.272l-.09.09c-.09 0-.181.09-.362.09-.362.091-.814.181-1.266.272-.091 0-.271.09-.362.09-.181 0-.271 0-.452.09-.271 0-.543.091-.905.091a8.97 8.97 0 01-1.628-.18c-.995-.272-1.628-.905-2.08-1.357-.452-.543-.633-.905-.633-.905s.361-.18.904-.362c.181-.18.452-.18.905-.18z" fill="url(#u)"/><path d="M110.802 62.213c.271-.361.543-.723.814-.995.181-.18.362-.271.452-.452.091-.09.181-.09.272-.18.09-.091.18-.091.271-.182.271-.271.543-.452.814-.542.181-.181.362-.181.362-.181v.452c0 .271 0 .723-.091 1.176-.09.452-.181.995-.271 1.447-.181.452-.362.995-.633 1.357-.091.09-.091.18-.181.271l-.091.09-.09.091c-.181.18-.271.271-.452.362-.181.09-.272.18-.453.271-.18.09-.271.09-.452.181-.543.181-.904.09-.904.09s-.091-.452 0-1.085c0-.362.09-.724.181-1.085 0-.09.09-.181.09-.272 0-.09.09-.18.09-.271 0-.18.091-.362.272-.543z" fill="url(#v)"/><path d="M118.489 63.299s.091-.09.181-.09c.091-.091.362-.272.543-.363a.69.69 0 01.452-.18c.181-.09.362-.09.543-.181.362-.09.814-.181 1.266-.181.272 0 .543 0 .814.09.272 0 .543.09.814.09.272 0 .543.091.814.181.272.091.543.091.815.181.542.09.994.181 1.266.272.362.09.543.09.543.09s-.181.09-.453.272c-.181.09-.271.18-.542.27-.091.091-.181.091-.272.182-.09.09-.181.09-.362.18a2.724 2.724 0 00-.723.363c-.091.09-.272.09-.362.18-.09 0-.09.09-.181.09-.09 0-.181 0-.181.091a5.118 5.118 0 01-1.628.272c-1.085 0-1.899-.453-2.442-.814a3.952 3.952 0 01-.633-.543c-.272-.271-.362-.452-.272-.452 0 0-.09 0 0 0z" fill="url(#w)"/><path d="M119.936 60.223c-.09.452-.362.814-.543 1.086-.09.18-.271.27-.361.361-.091.09-.272.181-.362.272-.272.18-.453.271-.633.271-.091 0-.181 0-.181.09h-.091s-.09-.09-.09-.27c-.091-.182-.091-.453-.181-.724-.091-.634-.181-1.448.09-2.262.091-.452.272-.814.543-1.176a4.03 4.03 0 01.724-.995c.09-.18.271-.27.361-.452.091-.09.181-.271.272-.362l.271-.271s.091.18.091.452c.09.272.18.724.18 1.176 0 .272.091.452.091.724v.723c0 .272 0 .543-.091.724 0 .18 0 .452-.09.633z" fill="url(#x)"/><path d="M125.634 57.6c.091-.18.271-.361.452-.542.181-.181.453-.453.814-.633.362-.181.724-.362 1.176-.543.181 0 .362-.09.543-.09.181 0 .362-.091.543-.091.904-.181 1.899-.181 2.713-.271.814 0 1.357-.09 1.357-.09s-.181.27-.543.632c-.271.362-.814.814-1.356 1.267-.091.09-.181.09-.272.18l-.09.09s-.091.091-.181.091c-.181.09-.362.272-.543.362l-.543.272c-.18.09-.361.18-.542.18-.995.272-1.9.09-2.533-.09-.633-.271-.995-.543-.995-.543s-.09-.09 0-.18z" fill="url(#y)"/><path d="M125.364 56.425l-.452.452c-.181.09-.272.09-.272.09s-.271-.362-.633-.904c-.271-.543-.633-1.357-.633-2.262 0-.271 0-.633.091-.995 0-.18.09-.27.09-.452 0-.18.09-.271.09-.452.091-.271.181-.452.272-.724 0-.09.09-.09.09-.18 0-.091 0-.091.091-.181 0-.09.09-.181.09-.272l.272-.543s.271.453.633 1.086l.271.543c0 .09.09.18.09.27 0 .091.091.182.091.272.181.362.271.814.362 1.267 0 .18.09.361.09.452v.452c0 .452-.09.814-.181 1.176-.09.362-.271.633-.452.904z" fill="url(#z)"/><path d="M132.418 50.817h-.543c-.724 0-1.085-.181-1.085-.181s0-.09.09-.272c0-.09.091-.18.091-.27 0-.091.09-.182.18-.363.091-.271.272-.542.543-.814l.181-.18c.09-.091.181-.181.271-.181.181-.181.362-.272.543-.362.181-.09.452-.272.724-.362.271-.09.452-.272.723-.362.543-.18 1.086-.452 1.538-.543.452-.18.905-.361 1.266-.452l.543-.18s-.09.18-.181.451l-.271.543c-.091.181-.272.362-.362.633a2.764 2.764 0 01-.452.634c0 .09-.091.09-.091.18s-.09.09-.09.181c-.091.09-.181.181-.272.362-.18.181-.361.452-.633.633l-.271.272c-.091.09-.181.18-.362.18-.452.272-.904.453-1.357.453-.361-.09-.542 0-.723 0z" fill="url(#A)"/><path d="M130.431 48.374c0 .362-.181.633-.272.905-.09.09-.09.271-.181.362-.09.09-.09.18-.181.27l-.181.182s-.361-.272-.814-.724c-.09-.09-.18-.271-.361-.362-.091-.18-.272-.27-.362-.452-.181-.362-.452-.724-.543-1.085 0-.09-.09-.181-.09-.272 0-.09-.091-.18-.091-.361s-.09-.453-.09-.634v-1.266c0-.18 0-.362.09-.543v-.452c0-.271.091-.362.091-.362s.181.09.361.362l.815.814c.271.362.633.724.904 1.176.181.181.271.452.362.633.09.181.181.453.271.633.091.181.091.453.091.633v.452c.181 0 .181.091.181.091z" fill="url(#B)"/><path d="M136.399 41.862c-.181.09-.362.271-.543.362-.362.18-.723.271-1.085.362-.633.09-1.176.09-1.176.09s-.091-.362.09-.904c0-.181.091-.272.091-.453.09-.18.09-.361.181-.452l.271-.543c.09-.09.09-.18.181-.271l.09-.09.091-.09c.633-.724 1.718-1.448 2.532-1.99.453-.272.815-.544 1.086-.724.271-.181.452-.272.452-.272s0 .181-.09.543c-.091.362-.181.724-.272 1.266-.181.453-.361.995-.542 1.538-.091.09-.091.271-.181.362-.091.09-.181.271-.181.362-.181.27-.362.452-.452.633-.181-.09-.362.09-.543.271z" fill="url(#C)"/><path d="M132.329 42.405s-.453-.181-.995-.453c-.272-.18-.634-.361-.905-.633-.181-.09-.271-.271-.452-.452a1.882 1.882 0 01-.362-.543 1.884 1.884 0 00-.362-.542c-.09-.181-.181-.362-.271-.633a8.333 8.333 0 01-.362-1.176c-.09-.362-.181-.724-.181-.905v-.362s.181.09.452.181c.272.181.634.362.995.633.362.272.814.543 1.176.905s.724.724.995 1.085l.272.543c.09.18.09.362.18.543 0 .18.091.362.091.542v.453c-.091.452-.271.814-.271.814z" fill="url(#D)"/><path d="M137.394 29.922c0 .181-.09.453-.09.633-.091.453-.181.814-.362 1.176a5.634 5.634 0 01-.814 1.086c-.271.271-.633.452-.905.633-.633.271-1.085.362-1.085.362s0-.09-.091-.272c0-.18-.09-.361-.09-.633 0-.271 0-.633.09-.995.091-.362.181-.723.362-1.176.091-.18.181-.271.272-.452.09-.09.09-.18.181-.18.09-.091.09-.182.18-.182l.814-1.085c.272-.362.543-.724.815-.995.452-.633.814-.995.814-.995s.09.271.09.814c0 .271.091.543.091.814v.995c-.181.09-.181.271-.272.452z" fill="url(#E)"/><path d="M129.614 32.636l-.181-.18-.181-.182c-.09-.09-.181-.271-.361-.362-.091-.09-.181-.271-.272-.361a1.242 1.242 0 00-.271-.362c-.181-.181-.272-.453-.362-.633-.09-.09-.09-.181-.181-.272 0-.09-.09-.18-.181-.271l-.271-.543s.543.09 1.266.272c.181.09.362.09.543.18.181.09.362.09.633.181.362.181.814.362 1.176.543l.814.543c.362.271.633.633.724.904.18.362.271.633.271.905v.633c0 .18-.091.271-.091.271s-.452 0-1.085-.18c-.543-.181-1.357-.453-1.99-1.086z" fill="url(#F)"/><path d="M133.594 23.681c-.181.362-.453.633-.724.905a3.014 3.014 0 01-.904.633l-.181-.181a4.403 4.403 0 01-.272-.633c-.09-.272-.181-.543-.271-.905v-.633c0-.18 0-.452.09-.633 0-.272.091-.452.181-.724 0-.09.091-.271.091-.362 0-.09.09-.27.09-.361.181-.543.362-.995.633-1.538.091-.271.181-.452.272-.633l.271-.543c.09-.271.181-.452.181-.452s.09.18.271.452c.091.181.181.362.181.543.091.18.181.452.272.633 0 .09.09.271.09.362 0 .09.09.271.09.362.091.27.091.542.181.814 0 .271.091.542.091.814 0 .271 0 .542-.091.814a8.825 8.825 0 01-.542 1.266z" fill="url(#G)"/><path d="M126.721 25.038c-.181-.09-.362-.271-.543-.362-.181-.18-.362-.271-.452-.452l-.453-.452-.361-.362-.181-.181c-.091-.09-.091-.09-.091-.181l-.271-.271h1.628c.452 0 .995.09 1.538.18.09 0 .271.091.362.091.09 0 .271.09.361.09.272.09.453.181.724.272.181.09.362.18.543.362.181.09.271.27.452.361.271.272.452.543.543.814.09.272.181.453.181.634v.271s-.453.09-1.086.09c-.362 0-.723 0-1.085-.09s-.814-.18-1.267-.362c-.181-.18-.361-.362-.542-.452z" fill="url(#H)"/><path d="M128.803 15.993a3.355 3.355 0 01-.453.995 6.485 6.485 0 01-.723.904s-.362-.18-.724-.633c-.09-.09-.181-.271-.271-.362-.091-.18-.181-.271-.271-.452-.181-.362-.272-.724-.272-1.266-.09-.453 0-.995 0-1.538s.091-1.085.181-1.628c.091-.543.091-.905.181-1.266.09-.272.09-.543.09-.543l.091.09.271.272c.181.271.453.633.814.995.272.452.543.904.814 1.447.181.543.362 1.085.453 1.538v.723c0 .362-.091.543-.181.724z" fill="url(#I)"/><path d="M122.56 19.068c-.09 0-.181-.09-.362-.09-.09 0-.09 0-.181-.091-.09 0-.09 0-.18-.09-.453-.181-.814-.362-1.176-.543-.362-.181-.633-.362-.814-.453-.091-.09-.181-.09-.272-.18-.09 0-.09-.09-.09-.09l.09-.091c.091 0 .181-.09.362-.09.271-.091.724-.182 1.176-.363.271-.09.452-.09.724-.18.09 0 .271 0 .361-.09h1.9c.452.09.814.27 1.176.451.181.09.271.181.452.272.09.09.181.18.271.361.362.453.453.815.453.815s-.453.27-1.086.361c-.362.09-.723.181-1.085.181h-1.267s-.18 0-.452-.09z" fill="url(#J)"/><path d="M121.383 11.38c-.091.18-.181.271-.181.271h-.09s-.091 0-.181-.09a5.089 5.089 0 01-.633-.362 4.287 4.287 0 01-1.357-1.81c-.091-.27-.272-.632-.362-.994l-.271-1.357c-.091-.452-.181-.905-.272-1.266a33.538 33.538 0 00-.181-1.267s.272.181.634.453c.18.18.452.271.633.452.271.18.452.452.723.633l.453.452.09.09.09.091c.091.09.091.181.181.272.272.361.453.723.633 1.085.091.271.181.452.181.724 0 .18.091.452.091.633 0 .452-.091.814-.091 1.085.091.543 0 .724-.09.905z" fill="url(#K)"/><path d="M115.414 14.003c-.271-.09-.543-.09-.724-.181-.271-.09-.452-.09-.633-.181-.362-.09-.542-.181-.542-.181s.361-.271.994-.724c.272-.18.634-.361 1.086-.542a5.255 5.255 0 011.266-.453c.362-.09.633-.18.905-.18.904-.091 1.628.18 2.08.542.271.181.362.272.543.453.09.09.09.09.09.18v.09s-.09.091-.271.182c-.181.09-.362.271-.633.452a3.36 3.36 0 01-.995.452c-.181.09-.362.181-.633.181-.181.09-.453.09-.634.09-.633 0-1.266-.09-1.899-.18z" fill="url(#L)"/><path d="M105.736 66.826c.181 0 .362-.09.633-.09.091 0 .271 0 .362-.09.181 0 .271-.091.452-.091.272-.09.633-.09.995-.181l1.086-.271c.18 0 .361-.09.542-.09.181-.091.362-.091.543-.182.362-.09.814-.18 1.176-.362 1.628-.452 3.075-1.085 4.251-1.628.271-.18.543-.271.724-.361.09-.09.181-.09.271-.181.09-.09.181-.09.271-.181.272-.181.453-.272.453-.272s.181-.09.452-.27c.271-.182.723-.453 1.266-.815.995-.633 2.352-1.628 3.618-2.714 1.267-1.085 2.352-2.26 3.166-3.165.091-.09.181-.181.271-.362l.272-.272c.181-.18.271-.361.362-.452.09-.09.18-.271.271-.361l.09-.091s.091-.18.362-.452c.091-.181.272-.272.362-.543.181-.18.271-.452.452-.724.091-.09.181-.27.272-.361.09-.181.18-.272.271-.453.181-.271.362-.633.543-.904.181-.362.361-.633.542-.995.091-.09.091-.181.181-.271 0-.09.091-.181.091-.272l.271-.542c.633-1.448 1.266-2.985 1.538-4.161 0-.181.09-.272.09-.452 0-.091.091-.272.091-.362.09-.272.09-.453.181-.633.09-.362.09-.543.09-.543v-.181c0-.09 0-.271.09-.362 0-.18.091-.362.091-.633s.09-.543.181-.814c0-.272.09-.633.09-.995v-1.086c.091-.723.091-1.537.091-2.351 0-.814 0-1.628-.091-2.352v-1.085c0-.362-.09-.634-.09-.995 0-.272-.091-.543-.181-.814 0-.272-.091-.453-.091-.634 0-.18-.09-.271-.09-.361v-.181s-.09-.181-.09-.543c0-.18-.091-.362-.181-.633 0-.09-.091-.271-.091-.362 0-.09-.09-.271-.09-.452-.362-1.176-.905-2.623-1.538-4.161l-.271-.543c0-.09-.091-.18-.091-.271-.09-.09-.09-.181-.181-.271-.181-.362-.361-.724-.542-.995a7.949 7.949 0 00-.543-.905c-.091-.18-.181-.271-.271-.452a1.25 1.25 0 00-.272-.362c-.181-.271-.362-.452-.452-.724-.181-.18-.271-.361-.362-.542-.181-.272-.362-.453-.362-.453l-.09-.09c-.091-.09-.091-.18-.271-.362-.091-.18-.272-.271-.362-.452l-.272-.271a1.26 1.26 0 01-.271-.362c-.814-.905-1.899-2.08-3.166-3.166a37.477 37.477 0 00-3.618-2.714c-.543-.361-.995-.633-1.266-.814-.362-.18-.452-.271-.452-.271s-.181-.09-.453-.271c-.09 0-.181-.09-.271-.181-.09-.09-.181-.09-.271-.181-.091 0-.181-.09-.272-.09h-.814a5.495 5.495 0 01-2.261-.543 4.233 4.233 0 01-1.085-.814c-.181-.181-.362-.272-.453-.453l-.452-.452c-.271-.271-.452-.543-.633-.723l-.271-.272h1.989c.091 0 .272 0 .362.09.272 0 .543.091.814.182.543.09.995.27 1.448.542.361.181.723.452.994.724.272.271.362.543.453.814.09.271.181.452.181.633v.09h.09c.091.09.181.09.362.181.09.09.181.09.271.181.272.181.453.272.453.272l.542.271c.272.18.724.452 1.267.814.995.724 2.351 1.628 3.618 2.714 1.266 1.085 2.351 2.26 3.165 3.165.091.09.181.272.272.362l.271.272c.181.18.271.361.452.542.091.181.181.272.272.362l.09.09s.091.181.362.453c.09.18.271.362.362.543.181.18.271.452.452.723.091.09.181.271.271.362.091.18.181.271.272.452.181.271.362.633.542.905.181.361.362.723.543.995.091.09.091.18.181.271 0 .09.091.18.091.271l.271.543c.723 1.447 1.266 2.985 1.538 4.16 0 .182.09.272.09.453 0 .09.09.271.09.362.091.271.091.452.181.633.091.362.091.543.091.543v.18c0 .091 0 .272.09.363 0 .18.091.361.091.633 0 .271.09.542.181.814 0 .271.09.633.09.995v1.085c.091.724.091 1.538.091 2.352 0 .814 0 1.628-.091 2.352v1.085c0 .362-.09.633-.09.995 0 .271-.091.543-.181.814 0 .271-.091.452-.091.633s-.09.272-.09.362v.18s-.091.182-.091.544c0 .18-.09.361-.181.633 0 .09-.09.271-.09.361 0 .091-.09.272-.09.453a40.86 40.86 0 01-1.538 4.16l-.271.543c0 .09-.091.181-.091.272-.09.09-.09.18-.181.271-.181.362-.362.724-.543.995-.18.362-.361.633-.542.904-.091.181-.181.272-.272.453-.09.18-.18.271-.271.361-.181.272-.362.453-.452.724-.181.181-.272.362-.362.543-.181.271-.362.452-.362.452l-.09.09c-.091.091-.181.181-.272.362-.09.181-.271.272-.452.543l-.271.271a1.25 1.25 0 00-.272.362c-.814.905-1.99 2.08-3.165 3.166-1.267 1.085-2.623 2.08-3.618 2.714-.543.361-.995.633-1.267.814l-.542.271s-.181.09-.453.271c-.09 0-.181.09-.271.181-.091.09-.181.09-.362.181-.271.09-.452.271-.724.362a24.683 24.683 0 01-4.251 1.628c-.362.181-.814.271-1.176.362-.18.09-.361.09-.633.18-.181.091-.362.091-.542.091l-1.086.272c-.362.09-.723.09-.995.18-.181 0-.271.09-.452.09s-.271 0-.362.091c-.271 0-.452.09-.633.09-.362 0-.543.091-.543.091v-.271c-.09.362.181.362.543.271z" fill="url(#M)"/><path d="M109.263 66.555s-4.341 1.085-5.336 5.156l.09-4.704 4.975-.633.271.18z" fill="url(#N)"/><path opacity=".8" d="M1.447 90.252h7.797v1.918H6.412v8.012H4.286V92.17H1.447v-1.918zm9.355 9.93v-9.93H15.2c.983 0 1.796.316 2.437.949.646.627.97 1.398.97 2.312 0 .397-.063.769-.187 1.115a2.9 2.9 0 01-.444.838 3.926 3.926 0 01-.512.547 1.94 1.94 0 01-.45.312l-.18.097 2.126 3.76h-2.271l-1.912-3.476h-1.842v3.476h-2.133zm5.679-6.669c0-.387-.13-.708-.388-.962-.254-.254-.575-.381-.963-.381h-2.195v2.624h2.195c.388 0 .71-.122.963-.367.259-.249.388-.553.388-.914zm6.952-.609c-.618.628-.928 1.401-.928 2.32 0 .914.31 1.685.928 2.313a3.05 3.05 0 002.258.941c.89 0 1.645-.313 2.264-.941.619-.628.928-1.4.928-2.313 0-.919-.31-1.692-.928-2.32a3.047 3.047 0 00-2.264-.949 3.04 3.04 0 00-2.258.949zm-1.572 5.976c-1.038-1.016-1.558-2.237-1.558-3.663 0-1.427.52-2.645 1.558-3.656 1.044-1.011 2.32-1.517 3.83-1.517 1.514 0 2.79.506 3.829 1.517 1.043 1.01 1.565 2.23 1.565 3.656 0 1.426-.522 2.647-1.565 3.663-1.039 1.011-2.315 1.517-3.83 1.517-1.509 0-2.785-.506-3.829-1.517zm17.95-8.628h2.125v9.93h-1.842l-4.889-6.308v6.308h-2.133v-9.93h1.85l4.888 6.315v-6.315zm12.692 5.747l-1.205-3.261-1.212 3.261h2.417zm.706 1.842H49.38l-.852 2.341h-2.271l3.906-9.93h2.264l3.906 9.93H54.06l-.852-2.34zm8.802-7.797c.521 0 1.018.07 1.488.208.471.134.857.298 1.157.492.305.193.572.387.803.581.236.194.404.358.506.492l.159.208-1.35 1.35a9.605 9.605 0 00-.118-.152 2.578 2.578 0 00-.326-.347 3.033 3.033 0 00-.547-.422 3.417 3.417 0 00-.782-.34 3.153 3.153 0 00-.99-.159c-.928 0-1.704.312-2.327.935s-.935 1.399-.935 2.327c0 .928.312 1.703.935 2.327.623.623 1.399.934 2.327.934.36 0 .704-.048 1.031-.145.333-.102.608-.22.825-.353.217-.139.408-.277.574-.416.166-.138.287-.258.36-.36l.111-.145 1.281 1.35c-.037.056-.094.13-.173.222a5.8 5.8 0 01-.505.478 5.43 5.43 0 01-.838.602c-.296.17-.686.328-1.17.471-.48.143-.98.215-1.496.215-1.515 0-2.793-.506-3.837-1.517-1.038-1.016-1.558-2.237-1.558-3.663 0-1.427.52-2.645 1.558-3.656 1.044-1.011 2.322-1.517 3.837-1.517zm10.414 0c.522 0 1.018.07 1.49.208.47.134.856.298 1.156.492.304.193.572.387.803.581.235.194.404.358.505.492l.16.208-1.35 1.35a9.037 9.037 0 00-.118-.152 2.568 2.568 0 00-.326-.347 3.034 3.034 0 00-.547-.422 3.413 3.413 0 00-.782-.34 3.152 3.152 0 00-.99-.159c-.928 0-1.704.312-2.327.935s-.935 1.399-.935 2.327c0 .928.312 1.703.935 2.327.623.623 1.399.934 2.326.934.36 0 .704-.048 1.032-.145.333-.102.607-.22.824-.353a5.63 5.63 0 00.575-.416 2.17 2.17 0 00.36-.36l.11-.145 1.282 1.35a2.58 2.58 0 01-.173.222 5.83 5.83 0 01-.506.478 5.43 5.43 0 01-.838.602c-.295.17-.685.328-1.17.471-.48.143-.979.215-1.496.215-1.514 0-2.793-.506-3.836-1.517-1.038-1.016-1.558-2.237-1.558-3.663 0-1.427.52-2.645 1.558-3.656 1.043-1.011 2.322-1.517 3.837-1.517zm8.012 8.227h5.319v1.911h-7.451v-9.93h7.305v1.918h-5.173v1.987h4.038v1.912h-4.038v2.202zm14.037 1.911h-6.738v-9.93h2.133v8.019h4.605v1.911zm3.76-1.911h5.318v1.911h-7.45v-9.93h7.305v1.918h-5.173v1.987h4.037v1.912h-4.037v2.202zm7.298 1.911v-9.93h4.398c.983 0 1.795.316 2.437.949.646.627.97 1.398.97 2.312 0 .397-.063.769-.187 1.115a2.904 2.904 0 01-.444.838 3.937 3.937 0 01-.512.547 1.923 1.923 0 01-.45.312l-.18.097 2.126 3.76h-2.272l-1.911-3.476h-1.842v3.476h-2.133zm5.679-6.669c0-.387-.13-.708-.388-.962-.254-.254-.575-.381-.963-.381h-2.195v2.624h2.195c.388 0 .709-.122.963-.367.258-.249.388-.553.388-.914zm9.5 2.486l-1.204-3.261-1.212 3.261h2.416zm.707 1.842h-3.83l-.851 2.341h-2.272l3.906-9.93h2.264l3.906 9.93h-2.271l-.852-2.34zm2.693-7.59h7.798v1.919h-2.833v8.012h-2.125V92.17h-2.84v-1.918zm11.35 2.653c-.619.628-.928 1.401-.928 2.32 0 .914.309 1.685.928 2.313a3.05 3.05 0 002.258.941c.891 0 1.645-.313 2.264-.941.619-.628.928-1.4.928-2.313 0-.919-.309-1.692-.928-2.32a3.047 3.047 0 00-2.264-.949 3.04 3.04 0 00-2.258.949zm-1.572 5.976c-1.039-1.016-1.558-2.237-1.558-3.663 0-1.427.519-2.645 1.558-3.656 1.043-1.011 2.32-1.517 3.83-1.517 1.514 0 2.79.506 3.829 1.517 1.043 1.01 1.565 2.23 1.565 3.656 0 1.426-.522 2.647-1.565 3.663-1.039 1.011-2.315 1.517-3.829 1.517-1.51 0-2.787-.506-3.83-1.517zm11.211 1.302v-9.93h4.397c.984 0 1.796.316 2.438.949.646.627.969 1.398.969 2.312 0 .397-.062.769-.187 1.115a2.88 2.88 0 01-.443.838 3.937 3.937 0 01-.512.547 1.965 1.965 0 01-.45.312l-.18.097 2.126 3.76h-2.272l-1.911-3.476h-1.842v3.476H145.1zm5.679-6.669c0-.387-.13-.708-.388-.962-.254-.254-.575-.381-.963-.381h-2.195v2.624h2.195c.388 0 .709-.122.963-.367.258-.249.388-.553.388-.914zM48.785 109.252h1.98l2.057 6.807 2.056-6.807h2.272l-3.262 9.93h-1.987l-2.126-6.669-2.126 6.669H45.66l-3.261-9.93h2.271l2.057 6.807 2.056-6.807zm9.923 9.93v-9.93h2.133v9.93h-2.133zm11.418-9.93h2.126v9.93H70.41l-4.888-6.309v6.309h-2.133v-9.93h1.849l4.888 6.315v-6.315zm11.412 0h2.126v9.93h-1.842l-4.889-6.309v6.309h-2.132v-9.93h1.849l4.888 6.315v-6.315zm6.807 8.019h5.319v1.911h-7.451v-9.93h7.305v1.918h-5.173v1.987h4.037v1.912h-4.037v2.202zm7.299 1.911v-9.93h4.397c.984 0 1.796.316 2.438.949.646.627.969 1.398.969 2.312 0 .397-.062.769-.187 1.115a2.865 2.865 0 01-.443.838 3.881 3.881 0 01-.512.547 1.95 1.95 0 01-.451.312l-.18.097 2.126 3.76h-2.271l-1.911-3.476h-1.842v3.476h-2.133zm5.678-6.669a1.29 1.29 0 00-.388-.962c-.253-.254-.574-.381-.962-.381h-2.195v2.624h2.195c.388 0 .709-.122.962-.367a1.22 1.22 0 00.388-.914zm8.718 3.761c0-.333-.168-.601-.505-.804a4.803 4.803 0 00-1.226-.505c-.48-.139-.96-.3-1.44-.485a2.86 2.86 0 01-1.219-.914c-.337-.425-.505-.963-.505-1.614 0-.803.321-1.488.962-2.056.647-.568 1.484-.852 2.514-.852.406 0 .799.049 1.177.146.379.092.688.203.928.332.245.125.457.254.637.388.185.129.316.242.395.339l.124.139-1.274 1.35a2.842 2.842 0 00-.235-.236c-.097-.097-.305-.224-.623-.38a2.205 2.205 0 00-.984-.236c-.406 0-.734.104-.983.312-.245.207-.367.459-.367.754 0 .333.166.601.499.804.337.198.743.367 1.218.505.48.139.961.3 1.441.485a2.85 2.85 0 011.232.914c.337.425.506.963.506 1.614 0 .918-.335 1.668-1.004 2.25-.665.582-1.584.873-2.756.873-.462 0-.91-.058-1.344-.174a4.489 4.489 0 01-1.066-.401 6.443 6.443 0 01-.734-.478 2.924 2.924 0 01-.457-.409l-.159-.173 1.281-1.274c.064.074.154.171.27.291.12.115.383.272.789.471.406.198.831.298 1.274.298.513 0 .912-.12 1.198-.36.291-.24.436-.545.436-.914z" fill="#fff"/><path d="M109.13 66.554s-4.342 1.085-5.337 5.156l.09-4.704 4.975-.633.272.18z" fill="#fff"/><path d="M68.567 20.752C64.222 9.598 60.828.262 61.007.02c.238-.182 7.322.91 15.716 2.425l15.36 2.849 3.988 4.061L100 13.478l-11.073 13.76C82.795 34.817 77.497 41 77.14 41c-.357.06-4.167-9.093-8.573-20.248zm9.287 4.062c.536-4.425.893-8.123.774-8.245-.119-.06-2.5-2.06-5.298-4.364-7.918-6.608-7.382-6.305-6.43-3.88.477 1.152 2.858 7.214 5.299 13.458 2.44 6.183 4.465 11.215 4.524 11.154.06-.06.595-3.698 1.131-8.123zm9.347-.424c3.81-4.668 6.786-8.548 6.727-8.67-.179-.181-11.787 1.82-12.145 2.062-.297.182-1.845 12.185-1.905 14.125 0 .788.12 1.333.238 1.212.12-.121 3.334-4.062 7.085-8.73zm3.572-11.215l4.107-.789-1.786-1.818c-2.024-2.061-2.202-2-6.667 2-1.548 1.395-1.786 1.819-.893 1.577.655-.122 3.036-.607 5.239-.97zm-6.668-2.546c2.024-1.759 3.453-3.213 3.155-3.335-1.964-.485-17.74-3.213-18.097-3.091-.477.182 10.06 9.457 10.834 9.517.179.06 2.024-1.334 4.108-3.091z" fill="#4D4D5D"/><path d="M68.567 20.752C64.222 9.598 60.828.262 61.007.02c.238-.182 7.322.91 15.716 2.425l15.36 2.849 3.988 4.061L100 13.478l-11.073 13.76C82.795 34.817 77.497 41 77.14 41c-.357.06-4.167-9.093-8.573-20.248zm9.287 4.062c.536-4.425.893-8.123.774-8.245-.119-.06-2.5-2.06-5.298-4.364-7.918-6.608-7.382-6.305-6.43-3.88.477 1.152 2.858 7.214 5.299 13.458 2.44 6.183 4.465 11.215 4.524 11.154.06-.06.595-3.698 1.131-8.123zm9.347-.424c3.81-4.668 6.786-8.548 6.727-8.67-.179-.181-11.787 1.82-12.145 2.062-.297.182-1.845 12.185-1.905 14.125 0 .788.12 1.333.238 1.212.12-.121 3.334-4.062 7.085-8.73zm3.572-11.215l4.107-.789-1.786-1.818c-2.024-2.061-2.202-2-6.667 2-1.548 1.395-1.786 1.819-.893 1.577.655-.122 3.036-.607 5.239-.97zm-6.668-2.546c2.024-1.759 3.453-3.213 3.155-3.335-1.964-.485-17.74-3.213-18.097-3.091-.477.182 10.06 9.457 10.834 9.517.179.06 2.024-1.334 4.108-3.091zM59.602 48.402h-1.079v7.434h1.08v-7.434zm5.041-2.998h-9.112v1.08h9.112v-1.08zm-2.998 2.998h-1.079v7.434h1.08v-7.434zM92.7 55.835h1.078v-4.477L92.7 50.08v5.755z" fill="#fff"/><path d="M98.638 45.406v8.175l-7.982-8.895v11.15h1.126V47.66l7.986 8.897v-11.15h-1.13zm-15.348-.002a5.22 5.22 0 00-5.216 5.216 5.22 5.22 0 005.216 5.216 5.22 5.22 0 005.215-5.216 5.222 5.222 0 00-5.215-5.215zm0 9.308a4.096 4.096 0 01-4.092-4.092 4.094 4.094 0 014.092-4.091 4.095 4.095 0 014.091 4.091 4.097 4.097 0 01-4.091 4.092z" fill="#fff"/><path d="M83.283 49.841c-.43 0-.78.322-.78.72 0 .397.35.72.78.72.43 0 .78-.323.78-.72 0-.398-.35-.72-.78-.72zm-7.173-1.239a3.199 3.199 0 00-3.193-3.197h-5.999v10.43h1.12v-9.299h4.879c1.13 0 2.05.927 2.05 2.066a2.061 2.061 0 01-2.027 2.069l-3.98-.003v5.168h1.12V51.8h2.624l2.143 4.033h1.303l-2.238-4.193a3.23 3.23 0 002.197-3.038z" fill="#fff"/><defs><linearGradient id="u" x1="114.418" y1="66.193" x2="114.418" y2="69.178" gradientUnits="userSpaceOnUse"><stop offset=".177" stop-color="#fff"/><stop offset="1" stop-color="#fff" stop-opacity="0"/></linearGradient><linearGradient id="a" x1="42.121" y1="66.193" x2="42.121" y2="69.178" gradientUnits="userSpaceOnUse"><stop offset=".177" stop-color="#fff"/><stop offset="1" stop-color="#fff" stop-opacity="0"/></linearGradient><linearGradient id="c" x1="34.045" y1="62.304" x2="34.045" y2="65.108" gradientUnits="userSpaceOnUse"><stop offset=".177" stop-color="#fff"/><stop offset="1" stop-color="#fff" stop-opacity="0"/></linearGradient><linearGradient id="d" x1="37.779" y1="55.791" x2="37.779" y2="62.303" gradientUnits="userSpaceOnUse"><stop offset=".177" stop-color="#fff"/><stop offset="1" stop-color="#fff" stop-opacity="0"/></linearGradient><linearGradient id="e" x1="27.126" y1="55.339" x2="27.126" y2="58.553" gradientUnits="userSpaceOnUse"><stop offset=".177" stop-color="#fff"/><stop offset="1" stop-color="#fff" stop-opacity="0"/></linearGradient><linearGradient id="f" x1="31.853" y1="50.002" x2="31.853" y2="56.967" gradientUnits="userSpaceOnUse"><stop offset=".177" stop-color="#fff"/><stop offset="1" stop-color="#fff" stop-opacity="0"/></linearGradient><linearGradient id="g" x1="22.403" y1="46.294" x2="22.403" y2="50.817" gradientUnits="userSpaceOnUse"><stop offset=".177" stop-color="#fff"/><stop offset="1" stop-color="#fff" stop-opacity="0"/></linearGradient><linearGradient id="h" x1="27.691" y1="43.58" x2="27.691" y2="50.093" gradientUnits="userSpaceOnUse"><stop offset=".177" stop-color="#fff"/><stop offset="1" stop-color="#fff" stop-opacity="0"/></linearGradient><linearGradient id="i" x1="20.423" y1="36.887" x2="20.423" y2="42.676" gradientUnits="userSpaceOnUse"><stop offset=".177" stop-color="#fff"/><stop offset="1" stop-color="#fff" stop-opacity="0"/></linearGradient><linearGradient id="j" x1="26.02" y1="36.706" x2="26.02" y2="42.405" gradientUnits="userSpaceOnUse"><stop offset=".177" stop-color="#fff"/><stop offset="1" stop-color="#fff" stop-opacity="0"/></linearGradient><linearGradient id="k" x1="20.728" y1="26.847" x2="20.728" y2="33.812" gradientUnits="userSpaceOnUse"><stop offset=".177" stop-color="#fff"/><stop offset="1" stop-color="#fff" stop-opacity="0"/></linearGradient><linearGradient id="l" x1="26.473" y1="29.47" x2="26.473" y2="33.902" gradientUnits="userSpaceOnUse"><stop offset=".177" stop-color="#fff"/><stop offset="1" stop-color="#fff" stop-opacity="0"/></linearGradient><linearGradient id="m" x1="23.805" y1="17.621" x2="23.805" y2="25.219" gradientUnits="userSpaceOnUse"><stop offset=".177" stop-color="#fff"/><stop offset="1" stop-color="#fff" stop-opacity="0"/></linearGradient><linearGradient id="n" x1="29.004" y1="22.777" x2="29.004" y2="25.942" gradientUnits="userSpaceOnUse"><stop offset=".177" stop-color="#fff"/><stop offset="1" stop-color="#fff" stop-opacity="0"/></linearGradient><linearGradient id="o" x1="29.023" y1="10.204" x2="29.023" y2="17.892" gradientUnits="userSpaceOnUse"><stop offset=".177" stop-color="#fff"/><stop offset="1" stop-color="#fff" stop-opacity="0"/></linearGradient><linearGradient id="p" x1="33.572" y1="16.716" x2="33.572" y2="19.158" gradientUnits="userSpaceOnUse"><stop offset=".177" stop-color="#fff"/><stop offset="1" stop-color="#fff" stop-opacity="0"/></linearGradient><linearGradient id="q" x1="36.83" y1="4.505" x2="36.83" y2="11.651" gradientUnits="userSpaceOnUse"><stop offset=".177" stop-color="#fff"/><stop offset="1" stop-color="#fff" stop-opacity="0"/></linearGradient><linearGradient id="r" x1="39.542" y1="11.543" x2="39.542" y2="14.184" gradientUnits="userSpaceOnUse"><stop offset=".177" stop-color="#fff"/><stop offset="1" stop-color="#fff" stop-opacity="0"/></linearGradient><linearGradient id="s" x1="37.199" y1="5.681" x2="37.199" y2="66.876" gradientUnits="userSpaceOnUse"><stop offset=".177" stop-color="#fff"/><stop offset="1" stop-color="#fff" stop-opacity="0"/></linearGradient><linearGradient id="t" x1="49.944" y1="66.374" x2="49.944" y2="71.711" gradientUnits="userSpaceOnUse"><stop offset=".177" stop-color="#fff"/><stop offset="1" stop-color="#fff" stop-opacity="0"/></linearGradient><linearGradient id="b" x1="44.581" y1="59.681" x2="44.581" y2="65.492" gradientUnits="userSpaceOnUse"><stop offset=".177" stop-color="#fff"/><stop offset="1" stop-color="#fff" stop-opacity="0"/></linearGradient><linearGradient id="v" x1="111.958" y1="59.681" x2="111.958" y2="65.492" gradientUnits="userSpaceOnUse"><stop offset=".177" stop-color="#fff"/><stop offset="1" stop-color="#fff" stop-opacity="0"/></linearGradient><linearGradient id="w" x1="122.494" y1="62.304" x2="122.494" y2="65.108" gradientUnits="userSpaceOnUse"><stop offset=".177" stop-color="#fff"/><stop offset="1" stop-color="#fff" stop-opacity="0"/></linearGradient><linearGradient id="x" x1="118.76" y1="55.791" x2="118.76" y2="62.303" gradientUnits="userSpaceOnUse"><stop offset=".177" stop-color="#fff"/><stop offset="1" stop-color="#fff" stop-opacity="0"/></linearGradient><linearGradient id="y" x1="129.413" y1="55.339" x2="129.413" y2="58.553" gradientUnits="userSpaceOnUse"><stop offset=".177" stop-color="#fff"/><stop offset="1" stop-color="#fff" stop-opacity="0"/></linearGradient><linearGradient id="z" x1="124.686" y1="50.002" x2="124.686" y2="56.967" gradientUnits="userSpaceOnUse"><stop offset=".177" stop-color="#fff"/><stop offset="1" stop-color="#fff" stop-opacity="0"/></linearGradient><linearGradient id="A" x1="134.136" y1="46.294" x2="134.136" y2="50.817" gradientUnits="userSpaceOnUse"><stop offset=".177" stop-color="#fff"/><stop offset="1" stop-color="#fff" stop-opacity="0"/></linearGradient><linearGradient id="B" x1="128.848" y1="43.58" x2="128.848" y2="50.093" gradientUnits="userSpaceOnUse"><stop offset=".177" stop-color="#fff"/><stop offset="1" stop-color="#fff" stop-opacity="0"/></linearGradient><linearGradient id="C" x1="136.116" y1="36.887" x2="136.116" y2="42.676" gradientUnits="userSpaceOnUse"><stop offset=".177" stop-color="#fff"/><stop offset="1" stop-color="#fff" stop-opacity="0"/></linearGradient><linearGradient id="D" x1="130.519" y1="36.706" x2="130.519" y2="42.405" gradientUnits="userSpaceOnUse"><stop offset=".177" stop-color="#fff"/><stop offset="1" stop-color="#fff" stop-opacity="0"/></linearGradient><linearGradient id="E" x1="135.811" y1="26.847" x2="135.811" y2="33.812" gradientUnits="userSpaceOnUse"><stop offset=".177" stop-color="#fff"/><stop offset="1" stop-color="#fff" stop-opacity="0"/></linearGradient><linearGradient id="F" x1="130.066" y1="29.47" x2="130.066" y2="33.902" gradientUnits="userSpaceOnUse"><stop offset=".177" stop-color="#fff"/><stop offset="1" stop-color="#fff" stop-opacity="0"/></linearGradient><linearGradient id="G" x1="132.734" y1="17.621" x2="132.734" y2="25.219" gradientUnits="userSpaceOnUse"><stop offset=".177" stop-color="#fff"/><stop offset="1" stop-color="#fff" stop-opacity="0"/></linearGradient><linearGradient id="H" x1="127.535" y1="22.777" x2="127.535" y2="25.942" gradientUnits="userSpaceOnUse"><stop offset=".177" stop-color="#fff"/><stop offset="1" stop-color="#fff" stop-opacity="0"/></linearGradient><linearGradient id="I" x1="127.516" y1="10.204" x2="127.516" y2="17.892" gradientUnits="userSpaceOnUse"><stop offset=".177" stop-color="#fff"/><stop offset="1" stop-color="#fff" stop-opacity="0"/></linearGradient><linearGradient id="J" x1="122.967" y1="16.716" x2="122.967" y2="19.158" gradientUnits="userSpaceOnUse"><stop offset=".177" stop-color="#fff"/><stop offset="1" stop-color="#fff" stop-opacity="0"/></linearGradient><linearGradient id="K" x1="119.71" y1="4.505" x2="119.71" y2="11.651" gradientUnits="userSpaceOnUse"><stop offset=".177" stop-color="#fff"/><stop offset="1" stop-color="#fff" stop-opacity="0"/></linearGradient><linearGradient id="L" x1="116.997" y1="11.543" x2="116.997" y2="14.184" gradientUnits="userSpaceOnUse"><stop offset=".177" stop-color="#fff"/><stop offset="1" stop-color="#fff" stop-opacity="0"/></linearGradient><linearGradient id="M" x1="119.34" y1="5.681" x2="119.34" y2="66.876" gradientUnits="userSpaceOnUse"><stop offset=".177" stop-color="#fff"/><stop offset="1" stop-color="#fff" stop-opacity="0"/></linearGradient><linearGradient id="N" x1="106.595" y1="66.374" x2="106.595" y2="71.711" gradientUnits="userSpaceOnUse"><stop offset=".177" stop-color="#fff"/><stop offset="1" stop-color="#fff" stop-opacity="0"/></linearGradient></defs></svg>